<svg width="20" height="17" viewBox="0 0 20 17" fill="none" xmlns="http://www.w3.org/2000/svg">
<path d="M0 1.28103C0 0.573538 0.573541 0 1.28104 0H6.83937C7.20729 0 7.56091 0.142459 7.82608 0.397499L9.85944 2.35321C10.1578 2.64013 10.5556 2.80039 10.9695 2.80039H16.4768C17.1843 2.80039 17.7578 3.37393 17.7578 4.08143V9.9002L15.221 17H2.84676C1.27454 17 0 15.7255 0 14.1533V1.28103Z" fill="url(#paint0_linear_1275_1900)"/>
<path d="M0 1.28103C0 0.573538 0.573541 0 1.28104 0H6.83937C7.20729 0 7.56091 0.142459 7.82608 0.397499L9.85944 2.35321C10.1578 2.64013 10.5556 2.80039 10.9695 2.80039H16.4768C17.1843 2.80039 17.7578 3.37393 17.7578 4.08143V9.9002L15.221 17H2.84676C1.27454 17 0 15.7255 0 14.1533V1.28103Z" fill="url(#paint1_linear_1275_1900)"/>
<path d="M0 1.28103C0 0.573538 0.573541 0 1.28104 0H6.83937C7.20729 0 7.56091 0.142459 7.82608 0.397499L9.85944 2.35321C10.1578 2.64013 10.5556 2.80039 10.9695 2.80039H16.4768C17.1843 2.80039 17.7578 3.37393 17.7578 4.08143V9.9002L15.221 17H2.84676C1.27454 17 0 15.7255 0 14.1533V1.28103Z" fill="url(#paint2_linear_1275_1900)"/>
<path d="M0 1.28103C0 0.573538 0.573541 0 1.28104 0H6.83937C7.20729 0 7.56091 0.142459 7.82608 0.397499L9.85944 2.35321C10.1578 2.64013 10.5556 2.80039 10.9695 2.80039H16.4768C17.1843 2.80039 17.7578 3.37393 17.7578 4.08143V9.9002L15.221 17H2.84676C1.27454 17 0 15.7255 0 14.1533V1.28103Z" fill="url(#paint3_radial_1275_1900)"/>
<path d="M0 1.28103C0 0.573538 0.573541 0 1.28104 0H6.83937C7.20729 0 7.56091 0.142459 7.82608 0.397499L9.85944 2.35321C10.1578 2.64013 10.5556 2.80039 10.9695 2.80039H16.4768C17.1843 2.80039 17.7578 3.37393 17.7578 4.08143V9.9002L15.221 17H2.84676C1.27454 17 0 15.7255 0 14.1533V1.28103Z" fill="url(#paint4_radial_1275_1900)"/>
<path d="M0 1.28103C0 0.573538 0.573541 0 1.28104 0H6.83937C7.20729 0 7.56091 0.142459 7.82608 0.397499L9.85944 2.35321C10.1578 2.64013 10.5556 2.80039 10.9695 2.80039H16.4768C17.1843 2.80039 17.7578 3.37393 17.7578 4.08143V9.9002L15.221 17H2.84676C1.27454 17 0 15.7255 0 14.1533V1.28103Z" fill="url(#paint5_radial_1275_1900)" fill-opacity="0.61"/>
<path d="M0 1.28103C0 0.573538 0.573541 0 1.28104 0H6.83937C7.20729 0 7.56091 0.142459 7.82608 0.397499L9.85944 2.35321C10.1578 2.64013 10.5556 2.80039 10.9695 2.80039H16.4768C17.1843 2.80039 17.7578 3.37393 17.7578 4.08143V9.9002L15.221 17H2.84676C1.27454 17 0 15.7255 0 14.1533V1.28103Z" fill="url(#paint6_radial_1275_1900)" fill-opacity="0.61"/>
<path d="M0 1.28103C0 0.573538 0.573541 0 1.28104 0H6.83937C7.20729 0 7.56091 0.142459 7.82608 0.397499L9.85944 2.35321C10.1578 2.64013 10.5556 2.80039 10.9695 2.80039H16.4768C17.1843 2.80039 17.7578 3.37393 17.7578 4.08143V9.9002L15.221 17H2.84676C1.27454 17 0 15.7255 0 14.1533V1.28103Z" fill="url(#paint7_radial_1275_1900)" fill-opacity="0.61"/>
<path d="M0 1.28103C0 0.573538 0.573541 0 1.28104 0H6.83937C7.20729 0 7.56091 0.142459 7.82608 0.397499L9.85944 2.35321C10.1578 2.64013 10.5556 2.80039 10.9695 2.80039H16.4768C17.1843 2.80039 17.7578 3.37393 17.7578 4.08143V9.9002L15.221 17H2.84676C1.27454 17 0 15.7255 0 14.1533V1.28103Z" fill="url(#paint8_radial_1275_1900)" fill-opacity="0.61"/>
<path d="M0 1.28103C0 0.573538 0.573541 0 1.28104 0H6.83937C7.20729 0 7.56091 0.142459 7.82608 0.397499L9.85944 2.35321C10.1578 2.64013 10.5556 2.80039 10.9695 2.80039H16.4768C17.1843 2.80039 17.7578 3.37393 17.7578 4.08143V9.9002L15.221 17H2.84676C1.27454 17 0 15.7255 0 14.1533V1.28103Z" fill="url(#paint9_radial_1275_1900)"/>
<path d="M0 1.28103C0 0.573538 0.573541 0 1.28104 0H6.83937C7.20729 0 7.56091 0.142459 7.82608 0.397499L9.85944 2.35321C10.1578 2.64013 10.5556 2.80039 10.9695 2.80039H16.4768C17.1843 2.80039 17.7578 3.37393 17.7578 4.08143V9.9002L15.221 17H2.84676C1.27454 17 0 15.7255 0 14.1533V1.28103Z" fill="url(#paint10_radial_1275_1900)"/>
<path d="M0 1.28103C0 0.573538 0.573541 0 1.28104 0H6.83937C7.20729 0 7.56091 0.142459 7.82608 0.397499L9.85944 2.35321C10.1578 2.64013 10.5556 2.80039 10.9695 2.80039H16.4768C17.1843 2.80039 17.7578 3.37393 17.7578 4.08143V9.9002L15.221 17H2.84676C1.27454 17 0 15.7255 0 14.1533V1.28103Z" fill="url(#paint11_radial_1275_1900)"/>
<path d="M0 1.28103C0 0.573538 0.573541 0 1.28104 0H6.83937C7.20729 0 7.56091 0.142459 7.82608 0.397499L9.85944 2.35321C10.1578 2.64013 10.5556 2.80039 10.9695 2.80039H16.4768C17.1843 2.80039 17.7578 3.37393 17.7578 4.08143V9.9002L15.221 17H2.84676C1.27454 17 0 15.7255 0 14.1533V1.28103Z" fill="url(#paint12_radial_1275_1900)"/>
<path d="M0 1.28103C0 0.573538 0.573541 0 1.28104 0H6.83937C7.20729 0 7.56091 0.142459 7.82608 0.397499L9.85944 2.35321C10.1578 2.64013 10.5556 2.80039 10.9695 2.80039H16.4768C17.1843 2.80039 17.7578 3.37393 17.7578 4.08143V9.9002L15.221 17H2.84676C1.27454 17 0 15.7255 0 14.1533V1.28103Z" fill="url(#paint13_radial_1275_1900)"/>
<path d="M0 1.28103C0 0.573538 0.573541 0 1.28104 0H6.83937C7.20729 0 7.56091 0.142459 7.82608 0.397499L9.85944 2.35321C10.1578 2.64013 10.5556 2.80039 10.9695 2.80039H16.4768C17.1843 2.80039 17.7578 3.37393 17.7578 4.08143V9.9002L15.221 17H2.84676C1.27454 17 0 15.7255 0 14.1533V1.28103Z" fill="url(#paint14_linear_1275_1900)" fill-opacity="0.3"/>
<path d="M0 1.28103C0 0.573538 0.573541 0 1.28104 0H6.83937C7.20729 0 7.56091 0.142459 7.82608 0.397499L9.85944 2.35321C10.1578 2.64013 10.5556 2.80039 10.9695 2.80039H16.4768C17.1843 2.80039 17.7578 3.37393 17.7578 4.08143V9.9002L15.221 17H2.84676C1.27454 17 0 15.7255 0 14.1533V1.28103Z" fill="url(#paint15_linear_1275_1900)" fill-opacity="0.3"/>
<path d="M0 1.28103C0 0.573538 0.573541 0 1.28104 0H6.83937C7.20729 0 7.56091 0.142459 7.82608 0.397499L9.85944 2.35321C10.1578 2.64013 10.5556 2.80039 10.9695 2.80039H16.4768C17.1843 2.80039 17.7578 3.37393 17.7578 4.08143V9.9002L15.221 17H2.84676C1.27454 17 0 15.7255 0 14.1533V1.28103Z" fill="url(#paint16_radial_1275_1900)" fill-opacity="0.3"/>
<path d="M0 1.28103C0 0.573538 0.573541 0 1.28104 0H6.83937C7.20729 0 7.56091 0.142459 7.82608 0.397499L9.85944 2.35321C10.1578 2.64013 10.5556 2.80039 10.9695 2.80039H16.4768C17.1843 2.80039 17.7578 3.37393 17.7578 4.08143V9.9002L15.221 17H2.84676C1.27454 17 0 15.7255 0 14.1533V1.28103Z" fill="url(#paint17_radial_1275_1900)" fill-opacity="0.3"/>
<path d="M0 1.28103C0 0.573538 0.573541 0 1.28104 0H6.83937C7.20729 0 7.56091 0.142459 7.82608 0.397499L9.85944 2.35321C10.1578 2.64013 10.5556 2.80039 10.9695 2.80039H16.4768C17.1843 2.80039 17.7578 3.37393 17.7578 4.08143V9.9002L15.221 17H2.84676C1.27454 17 0 15.7255 0 14.1533V1.28103Z" fill="url(#paint18_linear_1275_1900)" fill-opacity="0.3"/>
<path d="M0 1.28103C0 0.573538 0.573541 0 1.28104 0H6.83937C7.20729 0 7.56091 0.142459 7.82608 0.397499L9.85944 2.35321C10.1578 2.64013 10.5556 2.80039 10.9695 2.80039H16.4768C17.1843 2.80039 17.7578 3.37393 17.7578 4.08143V9.9002L15.221 17H2.84676C1.27454 17 0 15.7255 0 14.1533V1.28103Z" fill="url(#paint19_linear_1275_1900)"/>
<path d="M0 1.28103C0 0.573538 0.573541 0 1.28104 0H6.83937C7.20729 0 7.56091 0.142459 7.82608 0.397499L9.85944 2.35321C10.1578 2.64013 10.5556 2.80039 10.9695 2.80039H16.4768C17.1843 2.80039 17.7578 3.37393 17.7578 4.08143V9.9002L15.221 17H2.84676C1.27454 17 0 15.7255 0 14.1533V1.28103Z" fill="url(#paint20_radial_1275_1900)"/>
<path d="M0 1.28103C0 0.573538 0.573541 0 1.28104 0H6.83937C7.20729 0 7.56091 0.142459 7.82608 0.397499L9.85944 2.35321C10.1578 2.64013 10.5556 2.80039 10.9695 2.80039H16.4768C17.1843 2.80039 17.7578 3.37393 17.7578 4.08143V9.9002L15.221 17H2.84676C1.27454 17 0 15.7255 0 14.1533V1.28103Z" fill="url(#paint21_radial_1275_1900)"/>
<path d="M3.9004 6.75487C4.30798 5.62714 5.37851 4.87573 6.57766 4.87573L18.5354 4.87574C19.4496 4.87574 20.1003 5.76402 19.8247 6.63566L16.8615 16.0055C16.6744 16.5974 16.1252 16.9998 15.5044 16.9998L2.84686 16.9998L2.83891 16.9998C2.27022 16.9982 1.74075 16.8299 1.29681 16.5412L1.29364 16.5391C1.02689 16.3651 0.791151 16.1476 0.596418 15.8967C0.507978 15.7827 0.428009 15.6618 0.357422 15.5349C0.622307 15.5153 0.760223 15.3842 0.827031 15.2586L3.9004 6.75487Z" fill="url(#paint22_linear_1275_1900)"/>
<path d="M3.9004 6.75487C4.30798 5.62714 5.37851 4.87573 6.57766 4.87573L18.5354 4.87574C19.4496 4.87574 20.1003 5.76402 19.8247 6.63566L16.8615 16.0055C16.6744 16.5974 16.1252 16.9998 15.5044 16.9998L2.84686 16.9998L2.83891 16.9998C2.27022 16.9982 1.74075 16.8299 1.29681 16.5412L1.29364 16.5391C1.02689 16.3651 0.791151 16.1476 0.596418 15.8967C0.507978 15.7827 0.428009 15.6618 0.357422 15.5349C0.622307 15.5153 0.760223 15.3842 0.827031 15.2586L3.9004 6.75487Z" fill="url(#paint23_linear_1275_1900)"/>
<path d="M3.9004 6.75487C4.30798 5.62714 5.37851 4.87573 6.57766 4.87573L18.5354 4.87574C19.4496 4.87574 20.1003 5.76402 19.8247 6.63566L16.8615 16.0055C16.6744 16.5974 16.1252 16.9998 15.5044 16.9998L2.84686 16.9998L2.83891 16.9998C2.27022 16.9982 1.74075 16.8299 1.29681 16.5412L1.29364 16.5391C1.02689 16.3651 0.791151 16.1476 0.596418 15.8967C0.507978 15.7827 0.428009 15.6618 0.357422 15.5349C0.622307 15.5153 0.760223 15.3842 0.827031 15.2586L3.9004 6.75487Z" fill="url(#paint24_linear_1275_1900)" fill-opacity="0.6"/>
<path d="M3.9004 6.75487C4.30798 5.62714 5.37851 4.87573 6.57766 4.87573L18.5354 4.87574C19.4496 4.87574 20.1003 5.76402 19.8247 6.63566L16.8615 16.0055C16.6744 16.5974 16.1252 16.9998 15.5044 16.9998L2.84686 16.9998L2.83891 16.9998C2.27022 16.9982 1.74075 16.8299 1.29681 16.5412L1.29364 16.5391C1.02689 16.3651 0.791151 16.1476 0.596418 15.8967C0.507978 15.7827 0.428009 15.6618 0.357422 15.5349C0.622307 15.5153 0.760223 15.3842 0.827031 15.2586L3.9004 6.75487Z" fill="url(#paint25_linear_1275_1900)" fill-opacity="0.83"/>
<path d="M3.9004 6.75487C4.30798 5.62714 5.37851 4.87573 6.57766 4.87573L18.5354 4.87574C19.4496 4.87574 20.1003 5.76402 19.8247 6.63566L16.8615 16.0055C16.6744 16.5974 16.1252 16.9998 15.5044 16.9998L2.84686 16.9998L2.83891 16.9998C2.27022 16.9982 1.74075 16.8299 1.29681 16.5412L1.29364 16.5391C1.02689 16.3651 0.791151 16.1476 0.596418 15.8967C0.507978 15.7827 0.428009 15.6618 0.357422 15.5349C0.622307 15.5153 0.760223 15.3842 0.827031 15.2586L3.9004 6.75487Z" fill="url(#paint26_linear_1275_1900)" fill-opacity="0.83"/>
<path d="M3.9004 6.75487C4.30798 5.62714 5.37851 4.87573 6.57766 4.87573L18.5354 4.87574C19.4496 4.87574 20.1003 5.76402 19.8247 6.63566L16.8615 16.0055C16.6744 16.5974 16.1252 16.9998 15.5044 16.9998L2.84686 16.9998L2.83891 16.9998C2.27022 16.9982 1.74075 16.8299 1.29681 16.5412L1.29364 16.5391C1.02689 16.3651 0.791151 16.1476 0.596418 15.8967C0.507978 15.7827 0.428009 15.6618 0.357422 15.5349C0.622307 15.5153 0.760223 15.3842 0.827031 15.2586L3.9004 6.75487Z" fill="url(#paint27_linear_1275_1900)" fill-opacity="0.83"/>
<path d="M3.9004 6.75487C4.30798 5.62714 5.37851 4.87573 6.57766 4.87573L18.5354 4.87574C19.4496 4.87574 20.1003 5.76402 19.8247 6.63566L16.8615 16.0055C16.6744 16.5974 16.1252 16.9998 15.5044 16.9998L2.84686 16.9998L2.83891 16.9998C2.27022 16.9982 1.74075 16.8299 1.29681 16.5412L1.29364 16.5391C1.02689 16.3651 0.791151 16.1476 0.596418 15.8967C0.507978 15.7827 0.428009 15.6618 0.357422 15.5349C0.622307 15.5153 0.760223 15.3842 0.827031 15.2586L3.9004 6.75487Z" fill="url(#paint28_linear_1275_1900)"/>
<path d="M3.9004 6.75487C4.30798 5.62714 5.37851 4.87573 6.57766 4.87573L18.5354 4.87574C19.4496 4.87574 20.1003 5.76402 19.8247 6.63566L16.8615 16.0055C16.6744 16.5974 16.1252 16.9998 15.5044 16.9998L2.84686 16.9998L2.83891 16.9998C2.27022 16.9982 1.74075 16.8299 1.29681 16.5412L1.29364 16.5391C1.02689 16.3651 0.791151 16.1476 0.596418 15.8967C0.507978 15.7827 0.428009 15.6618 0.357422 15.5349C0.622307 15.5153 0.760223 15.3842 0.827031 15.2586L3.9004 6.75487Z" fill="url(#paint29_linear_1275_1900)"/>
<defs>
<linearGradient id="paint0_linear_1275_1900" x1="3.0378" y1="0.491521" x2="5.0394" y2="7.69734" gradientUnits="userSpaceOnUse">
<stop stop-color="#FFD052"/>
<stop offset="1" stop-color="#FFBD41"/>
</linearGradient>
<linearGradient id="paint1_linear_1275_1900" x1="0.0170277" y1="9.77148" x2="0.278162" y2="9.77148" gradientUnits="userSpaceOnUse">
<stop stop-color="#EEA850"/>
<stop offset="1" stop-color="#EEA850" stop-opacity="0"/>
</linearGradient>
<linearGradient id="paint2_linear_1275_1900" x1="3.13647" y1="-0.0900033" x2="3.13647" y2="0.279996" gradientUnits="userSpaceOnUse">
<stop stop-color="#EEA850"/>
<stop offset="1" stop-color="#EEA850" stop-opacity="0"/>
</linearGradient>
<radialGradient id="paint3_radial_1275_1900" cx="0" cy="0" r="1" gradientTransform="matrix(2.1309 2.63866 -0.413949 0.334288 7.87172 -0.134642)" gradientUnits="userSpaceOnUse">
<stop stop-color="#EEA850"/>
<stop offset="1" stop-color="#EEA850" stop-opacity="0"/>
</radialGradient>
<radialGradient id="paint4_radial_1275_1900" cx="0" cy="0" r="1" gradientTransform="matrix(2.1309 2.63866 -0.413949 0.334288 7.87172 -0.134642)" gradientUnits="userSpaceOnUse">
<stop stop-color="#EEA850"/>
<stop offset="1" stop-color="#EEA850" stop-opacity="0"/>
</radialGradient>
<radialGradient id="paint5_radial_1275_1900" cx="0" cy="0" r="1" gradientTransform="matrix(0.595433 0.583585 -0.0915519 0.0934095 9.59952 2.07155)" gradientUnits="userSpaceOnUse">
<stop stop-color="#EEA850"/>
<stop offset="1" stop-color="#EEA850" stop-opacity="0"/>
</radialGradient>
<radialGradient id="paint6_radial_1275_1900" cx="0" cy="0" r="1" gradientTransform="matrix(0.795921 0.475174 -0.286581 0.48002 7.60098 0.122466)" gradientUnits="userSpaceOnUse">
<stop stop-color="#EEA850"/>
<stop offset="1" stop-color="#EEA850" stop-opacity="0"/>
</radialGradient>
<radialGradient id="paint7_radial_1275_1900" cx="0" cy="0" r="1" gradientTransform="matrix(1.9603 -0.36258 0.0659905 0.356775 -0.259629 0.36258)" gradientUnits="userSpaceOnUse">
<stop stop-color="#EEA850"/>
<stop offset="1" stop-color="#EEA850" stop-opacity="0"/>
</radialGradient>
<radialGradient id="paint8_radial_1275_1900" cx="0" cy="0" r="1" gradientTransform="matrix(0.856345 -0.744358 0.291598 0.335464 6.67087e-09 0.744358)" gradientUnits="userSpaceOnUse">
<stop stop-color="#EEA850"/>
<stop offset="1" stop-color="#EEA850" stop-opacity="0"/>
</radialGradient>
<radialGradient id="paint9_radial_1275_1900" cx="0" cy="0" r="1" gradientUnits="userSpaceOnUse" gradientTransform="translate(12.0336 2.54496) rotate(90) scale(0.480633 2.45037)">
<stop stop-color="#EEA850"/>
<stop offset="1" stop-color="#EEA850" stop-opacity="0"/>
</radialGradient>
<radialGradient id="paint10_radial_1275_1900" cx="0" cy="0" r="1" gradientUnits="userSpaceOnUse" gradientTransform="translate(14.6584 2.64526) rotate(90) scale(0.314878 1.60532)">
<stop stop-color="#EEA850"/>
<stop offset="1" stop-color="#EEA850" stop-opacity="0"/>
</radialGradient>
<radialGradient id="paint11_radial_1275_1900" cx="0" cy="0" r="1" gradientUnits="userSpaceOnUse" gradientTransform="translate(13.583 2.63206) rotate(90) scale(0.362324 1.8472)">
<stop stop-color="#EEA850"/>
<stop offset="1" stop-color="#EEA850" stop-opacity="0"/>
</radialGradient>
<radialGradient id="paint12_radial_1275_1900" cx="0" cy="0" r="1" gradientUnits="userSpaceOnUse" gradientTransform="translate(17.8533 4.33712) rotate(-180) scale(0.263941 1.34561)">
<stop stop-color="#EEA850"/>
<stop offset="1" stop-color="#EEA850" stop-opacity="0"/>
</radialGradient>
<radialGradient id="paint13_radial_1275_1900" cx="0" cy="0" r="1" gradientTransform="matrix(-0.3153 0.360341 -1.8371 -1.60745 17.816 3.28751)" gradientUnits="userSpaceOnUse">
<stop stop-color="#EEA850"/>
<stop offset="1" stop-color="#EEA850" stop-opacity="0"/>
</radialGradient>
<linearGradient id="paint14_linear_1275_1900" x1="4.18772" y1="0" x2="4.18772" y2="0.390698" gradientUnits="userSpaceOnUse">
<stop stop-color="#FFD75C"/>
<stop offset="1" stop-color="#FFD75C" stop-opacity="0"/>
</linearGradient>
<linearGradient id="paint15_linear_1275_1900" x1="0" y1="2.91132" x2="0.464656" y2="2.91132" gradientUnits="userSpaceOnUse">
<stop stop-color="#FFD75C"/>
<stop offset="1" stop-color="#FFD75C" stop-opacity="0"/>
</linearGradient>
<radialGradient id="paint16_radial_1275_1900" cx="0" cy="0" r="1" gradientTransform="matrix(1.19159 1.18055 -2.15706 2.17721 8.50437 1.02555)" gradientUnits="userSpaceOnUse">
<stop stop-color="#FFD75C"/>
<stop offset="1" stop-color="#FFC75C" stop-opacity="0"/>
</radialGradient>
<radialGradient id="paint17_radial_1275_1900" cx="0" cy="0" r="1" gradientUnits="userSpaceOnUse" gradientTransform="translate(10.9549 2.97831) rotate(-1.14724) scale(4.95382 9.05133)">
<stop stop-color="#FFD55C"/>
<stop offset="1" stop-color="#FFC75C" stop-opacity="0"/>
</radialGradient>
<linearGradient id="paint18_linear_1275_1900" x1="17.7578" y1="4.94747" x2="17.3892" y2="4.94747" gradientUnits="userSpaceOnUse">
<stop stop-color="#FFD55C"/>
<stop offset="1" stop-color="#FFC75C" stop-opacity="0"/>
</linearGradient>
<linearGradient id="paint19_linear_1275_1900" x1="8.8789" y1="16.1242" x2="8.8789" y2="5.83096" gradientUnits="userSpaceOnUse">
<stop offset="0.182692" stop-color="#FCA23D"/>
<stop offset="0.826923" stop-color="#FCA23D" stop-opacity="0"/>
</linearGradient>
<radialGradient id="paint20_radial_1275_1900" cx="0" cy="0" r="1" gradientTransform="matrix(2.27707 -2.92764 3.05814 2.37854 5.84021 7.84556)" gradientUnits="userSpaceOnUse">
<stop offset="0.182692" stop-color="#FCA23D"/>
<stop offset="0.826923" stop-color="#FCA23D" stop-opacity="0"/>
</radialGradient>
<radialGradient id="paint21_radial_1275_1900" cx="0" cy="0" r="1" gradientUnits="userSpaceOnUse" gradientTransform="translate(10.8379 6.04166) rotate(-90) scale(2.3362 10.3503)">
<stop offset="0.182692" stop-color="#FCA23D"/>
<stop offset="0.746836" stop-color="#FCA23D" stop-opacity="0"/>
</radialGradient>
<linearGradient id="paint22_linear_1275_1900" x1="10.123" y1="4.87573" x2="10.123" y2="16.9998" gradientUnits="userSpaceOnUse">
<stop stop-color="#FFDF54"/>
<stop offset="1" stop-color="#FFBA5F"/>
</linearGradient>
<linearGradient id="paint23_linear_1275_1900" x1="3.32268" y1="8.73683" x2="3.5448" y2="8.8176" gradientUnits="userSpaceOnUse">
<stop stop-color="#FFC449"/>
<stop offset="1" stop-color="#FFC449" stop-opacity="0"/>
</linearGradient>
<linearGradient id="paint24_linear_1275_1900" x1="4.8865" y1="5.58988" x2="5.15599" y2="5.99334" gradientUnits="userSpaceOnUse">
<stop stop-color="#FFC449"/>
<stop offset="1" stop-color="#FFC449" stop-opacity="0"/>
</linearGradient>
<linearGradient id="paint25_linear_1275_1900" x1="10.123" y1="4.87573" x2="10.123" y2="5.45558" gradientUnits="userSpaceOnUse">
<stop stop-color="#FFC449"/>
<stop offset="1" stop-color="#FFC449" stop-opacity="0"/>
</linearGradient>
<linearGradient id="paint26_linear_1275_1900" x1="18.7835" y1="11.7099" x2="17.7874" y2="11.5184" gradientUnits="userSpaceOnUse">
<stop stop-color="#FFC449"/>
<stop offset="1" stop-color="#FFC449" stop-opacity="0"/>
</linearGradient>
<linearGradient id="paint27_linear_1275_1900" x1="20.2776" y1="6.17397" x2="19.3198" y2="6.51878" gradientUnits="userSpaceOnUse">
<stop stop-color="#FFC449"/>
<stop offset="1" stop-color="#FFC449" stop-opacity="0"/>
</linearGradient>
<linearGradient id="paint28_linear_1275_1900" x1="10.123" y1="4.87573" x2="10.123" y2="4.98381" gradientUnits="userSpaceOnUse">
<stop stop-color="#FFE04A"/>
<stop offset="1" stop-color="#FFE04A" stop-opacity="0"/>
</linearGradient>
<linearGradient id="paint29_linear_1275_1900" x1="10.123" y1="4.87573" x2="10.123" y2="4.98381" gradientUnits="userSpaceOnUse">
<stop stop-color="#FFE04A"/>
<stop offset="1" stop-color="#FFE04A" stop-opacity="0"/>
</linearGradient>
</defs>
</svg>
