<svg width="50" height="50" viewBox="0 0 50 50" fill="none" xmlns="http://www.w3.org/2000/svg">
<rect width="50" height="50" rx="10" fill="#141517"/>
<path d="M16 17.281C16 16.5735 16.5735 16 17.281 16H22.8394C23.2073 16 23.5609 16.1425 23.8261 16.3975L25.8594 18.3532C26.1578 18.6401 26.5556 18.8004 26.9695 18.8004H32.4768C33.1843 18.8004 33.7578 19.3739 33.7578 20.0814V25.9002L31.221 33H18.8468C17.2745 33 16 31.7255 16 30.1533V17.281Z" fill="url(#paint0_linear_818_1610)"/>
<path d="M16 17.281C16 16.5735 16.5735 16 17.281 16H22.8394C23.2073 16 23.5609 16.1425 23.8261 16.3975L25.8594 18.3532C26.1578 18.6401 26.5556 18.8004 26.9695 18.8004H32.4768C33.1843 18.8004 33.7578 19.3739 33.7578 20.0814V25.9002L31.221 33H18.8468C17.2745 33 16 31.7255 16 30.1533V17.281Z" fill="url(#paint1_linear_818_1610)"/>
<path d="M16 17.281C16 16.5735 16.5735 16 17.281 16H22.8394C23.2073 16 23.5609 16.1425 23.8261 16.3975L25.8594 18.3532C26.1578 18.6401 26.5556 18.8004 26.9695 18.8004H32.4768C33.1843 18.8004 33.7578 19.3739 33.7578 20.0814V25.9002L31.221 33H18.8468C17.2745 33 16 31.7255 16 30.1533V17.281Z" fill="url(#paint2_linear_818_1610)"/>
<path d="M16 17.281C16 16.5735 16.5735 16 17.281 16H22.8394C23.2073 16 23.5609 16.1425 23.8261 16.3975L25.8594 18.3532C26.1578 18.6401 26.5556 18.8004 26.9695 18.8004H32.4768C33.1843 18.8004 33.7578 19.3739 33.7578 20.0814V25.9002L31.221 33H18.8468C17.2745 33 16 31.7255 16 30.1533V17.281Z" fill="url(#paint3_radial_818_1610)"/>
<path d="M16 17.281C16 16.5735 16.5735 16 17.281 16H22.8394C23.2073 16 23.5609 16.1425 23.8261 16.3975L25.8594 18.3532C26.1578 18.6401 26.5556 18.8004 26.9695 18.8004H32.4768C33.1843 18.8004 33.7578 19.3739 33.7578 20.0814V25.9002L31.221 33H18.8468C17.2745 33 16 31.7255 16 30.1533V17.281Z" fill="url(#paint4_radial_818_1610)"/>
<path d="M16 17.281C16 16.5735 16.5735 16 17.281 16H22.8394C23.2073 16 23.5609 16.1425 23.8261 16.3975L25.8594 18.3532C26.1578 18.6401 26.5556 18.8004 26.9695 18.8004H32.4768C33.1843 18.8004 33.7578 19.3739 33.7578 20.0814V25.9002L31.221 33H18.8468C17.2745 33 16 31.7255 16 30.1533V17.281Z" fill="url(#paint5_radial_818_1610)" fill-opacity="0.61"/>
<path d="M16 17.281C16 16.5735 16.5735 16 17.281 16H22.8394C23.2073 16 23.5609 16.1425 23.8261 16.3975L25.8594 18.3532C26.1578 18.6401 26.5556 18.8004 26.9695 18.8004H32.4768C33.1843 18.8004 33.7578 19.3739 33.7578 20.0814V25.9002L31.221 33H18.8468C17.2745 33 16 31.7255 16 30.1533V17.281Z" fill="url(#paint6_radial_818_1610)" fill-opacity="0.61"/>
<path d="M16 17.281C16 16.5735 16.5735 16 17.281 16H22.8394C23.2073 16 23.5609 16.1425 23.8261 16.3975L25.8594 18.3532C26.1578 18.6401 26.5556 18.8004 26.9695 18.8004H32.4768C33.1843 18.8004 33.7578 19.3739 33.7578 20.0814V25.9002L31.221 33H18.8468C17.2745 33 16 31.7255 16 30.1533V17.281Z" fill="url(#paint7_radial_818_1610)" fill-opacity="0.61"/>
<path d="M16 17.281C16 16.5735 16.5735 16 17.281 16H22.8394C23.2073 16 23.5609 16.1425 23.8261 16.3975L25.8594 18.3532C26.1578 18.6401 26.5556 18.8004 26.9695 18.8004H32.4768C33.1843 18.8004 33.7578 19.3739 33.7578 20.0814V25.9002L31.221 33H18.8468C17.2745 33 16 31.7255 16 30.1533V17.281Z" fill="url(#paint8_radial_818_1610)" fill-opacity="0.61"/>
<path d="M16 17.281C16 16.5735 16.5735 16 17.281 16H22.8394C23.2073 16 23.5609 16.1425 23.8261 16.3975L25.8594 18.3532C26.1578 18.6401 26.5556 18.8004 26.9695 18.8004H32.4768C33.1843 18.8004 33.7578 19.3739 33.7578 20.0814V25.9002L31.221 33H18.8468C17.2745 33 16 31.7255 16 30.1533V17.281Z" fill="url(#paint9_radial_818_1610)"/>
<path d="M16 17.281C16 16.5735 16.5735 16 17.281 16H22.8394C23.2073 16 23.5609 16.1425 23.8261 16.3975L25.8594 18.3532C26.1578 18.6401 26.5556 18.8004 26.9695 18.8004H32.4768C33.1843 18.8004 33.7578 19.3739 33.7578 20.0814V25.9002L31.221 33H18.8468C17.2745 33 16 31.7255 16 30.1533V17.281Z" fill="url(#paint10_radial_818_1610)"/>
<path d="M16 17.281C16 16.5735 16.5735 16 17.281 16H22.8394C23.2073 16 23.5609 16.1425 23.8261 16.3975L25.8594 18.3532C26.1578 18.6401 26.5556 18.8004 26.9695 18.8004H32.4768C33.1843 18.8004 33.7578 19.3739 33.7578 20.0814V25.9002L31.221 33H18.8468C17.2745 33 16 31.7255 16 30.1533V17.281Z" fill="url(#paint11_radial_818_1610)"/>
<path d="M16 17.281C16 16.5735 16.5735 16 17.281 16H22.8394C23.2073 16 23.5609 16.1425 23.8261 16.3975L25.8594 18.3532C26.1578 18.6401 26.5556 18.8004 26.9695 18.8004H32.4768C33.1843 18.8004 33.7578 19.3739 33.7578 20.0814V25.9002L31.221 33H18.8468C17.2745 33 16 31.7255 16 30.1533V17.281Z" fill="url(#paint12_radial_818_1610)"/>
<path d="M16 17.281C16 16.5735 16.5735 16 17.281 16H22.8394C23.2073 16 23.5609 16.1425 23.8261 16.3975L25.8594 18.3532C26.1578 18.6401 26.5556 18.8004 26.9695 18.8004H32.4768C33.1843 18.8004 33.7578 19.3739 33.7578 20.0814V25.9002L31.221 33H18.8468C17.2745 33 16 31.7255 16 30.1533V17.281Z" fill="url(#paint13_radial_818_1610)"/>
<path d="M16 17.281C16 16.5735 16.5735 16 17.281 16H22.8394C23.2073 16 23.5609 16.1425 23.8261 16.3975L25.8594 18.3532C26.1578 18.6401 26.5556 18.8004 26.9695 18.8004H32.4768C33.1843 18.8004 33.7578 19.3739 33.7578 20.0814V25.9002L31.221 33H18.8468C17.2745 33 16 31.7255 16 30.1533V17.281Z" fill="url(#paint14_linear_818_1610)" fill-opacity="0.3"/>
<path d="M16 17.281C16 16.5735 16.5735 16 17.281 16H22.8394C23.2073 16 23.5609 16.1425 23.8261 16.3975L25.8594 18.3532C26.1578 18.6401 26.5556 18.8004 26.9695 18.8004H32.4768C33.1843 18.8004 33.7578 19.3739 33.7578 20.0814V25.9002L31.221 33H18.8468C17.2745 33 16 31.7255 16 30.1533V17.281Z" fill="url(#paint15_linear_818_1610)" fill-opacity="0.3"/>
<path d="M16 17.281C16 16.5735 16.5735 16 17.281 16H22.8394C23.2073 16 23.5609 16.1425 23.8261 16.3975L25.8594 18.3532C26.1578 18.6401 26.5556 18.8004 26.9695 18.8004H32.4768C33.1843 18.8004 33.7578 19.3739 33.7578 20.0814V25.9002L31.221 33H18.8468C17.2745 33 16 31.7255 16 30.1533V17.281Z" fill="url(#paint16_radial_818_1610)" fill-opacity="0.3"/>
<path d="M16 17.281C16 16.5735 16.5735 16 17.281 16H22.8394C23.2073 16 23.5609 16.1425 23.8261 16.3975L25.8594 18.3532C26.1578 18.6401 26.5556 18.8004 26.9695 18.8004H32.4768C33.1843 18.8004 33.7578 19.3739 33.7578 20.0814V25.9002L31.221 33H18.8468C17.2745 33 16 31.7255 16 30.1533V17.281Z" fill="url(#paint17_radial_818_1610)" fill-opacity="0.3"/>
<path d="M16 17.281C16 16.5735 16.5735 16 17.281 16H22.8394C23.2073 16 23.5609 16.1425 23.8261 16.3975L25.8594 18.3532C26.1578 18.6401 26.5556 18.8004 26.9695 18.8004H32.4768C33.1843 18.8004 33.7578 19.3739 33.7578 20.0814V25.9002L31.221 33H18.8468C17.2745 33 16 31.7255 16 30.1533V17.281Z" fill="url(#paint18_linear_818_1610)" fill-opacity="0.3"/>
<path d="M16 17.281C16 16.5735 16.5735 16 17.281 16H22.8394C23.2073 16 23.5609 16.1425 23.8261 16.3975L25.8594 18.3532C26.1578 18.6401 26.5556 18.8004 26.9695 18.8004H32.4768C33.1843 18.8004 33.7578 19.3739 33.7578 20.0814V25.9002L31.221 33H18.8468C17.2745 33 16 31.7255 16 30.1533V17.281Z" fill="url(#paint19_linear_818_1610)"/>
<path d="M16 17.281C16 16.5735 16.5735 16 17.281 16H22.8394C23.2073 16 23.5609 16.1425 23.8261 16.3975L25.8594 18.3532C26.1578 18.6401 26.5556 18.8004 26.9695 18.8004H32.4768C33.1843 18.8004 33.7578 19.3739 33.7578 20.0814V25.9002L31.221 33H18.8468C17.2745 33 16 31.7255 16 30.1533V17.281Z" fill="url(#paint20_radial_818_1610)"/>
<path d="M16 17.281C16 16.5735 16.5735 16 17.281 16H22.8394C23.2073 16 23.5609 16.1425 23.8261 16.3975L25.8594 18.3532C26.1578 18.6401 26.5556 18.8004 26.9695 18.8004H32.4768C33.1843 18.8004 33.7578 19.3739 33.7578 20.0814V25.9002L31.221 33H18.8468C17.2745 33 16 31.7255 16 30.1533V17.281Z" fill="url(#paint21_radial_818_1610)"/>
<path d="M19.9004 22.7549C20.308 21.6271 21.3785 20.8757 22.5777 20.8757L34.5354 20.8757C35.4496 20.8757 36.1003 21.764 35.8247 22.6357L32.8615 32.0055C32.6744 32.5974 32.1252 32.9998 31.5044 32.9998L18.8469 32.9998L18.8389 32.9998C18.2702 32.9982 17.7408 32.8299 17.2968 32.5412L17.2936 32.5391C17.0269 32.3651 16.7912 32.1476 16.5964 31.8967C16.508 31.7827 16.428 31.6618 16.3574 31.5349C16.6223 31.5153 16.7602 31.3842 16.827 31.2586L19.9004 22.7549Z" fill="url(#paint22_linear_818_1610)"/>
<path d="M19.9004 22.7549C20.308 21.6271 21.3785 20.8757 22.5777 20.8757L34.5354 20.8757C35.4496 20.8757 36.1003 21.764 35.8247 22.6357L32.8615 32.0055C32.6744 32.5974 32.1252 32.9998 31.5044 32.9998L18.8469 32.9998L18.8389 32.9998C18.2702 32.9982 17.7408 32.8299 17.2968 32.5412L17.2936 32.5391C17.0269 32.3651 16.7912 32.1476 16.5964 31.8967C16.508 31.7827 16.428 31.6618 16.3574 31.5349C16.6223 31.5153 16.7602 31.3842 16.827 31.2586L19.9004 22.7549Z" fill="url(#paint23_linear_818_1610)"/>
<path d="M19.9004 22.7549C20.308 21.6271 21.3785 20.8757 22.5777 20.8757L34.5354 20.8757C35.4496 20.8757 36.1003 21.764 35.8247 22.6357L32.8615 32.0055C32.6744 32.5974 32.1252 32.9998 31.5044 32.9998L18.8469 32.9998L18.8389 32.9998C18.2702 32.9982 17.7408 32.8299 17.2968 32.5412L17.2936 32.5391C17.0269 32.3651 16.7912 32.1476 16.5964 31.8967C16.508 31.7827 16.428 31.6618 16.3574 31.5349C16.6223 31.5153 16.7602 31.3842 16.827 31.2586L19.9004 22.7549Z" fill="url(#paint24_linear_818_1610)" fill-opacity="0.6"/>
<path d="M19.9004 22.7549C20.308 21.6271 21.3785 20.8757 22.5777 20.8757L34.5354 20.8757C35.4496 20.8757 36.1003 21.764 35.8247 22.6357L32.8615 32.0055C32.6744 32.5974 32.1252 32.9998 31.5044 32.9998L18.8469 32.9998L18.8389 32.9998C18.2702 32.9982 17.7408 32.8299 17.2968 32.5412L17.2936 32.5391C17.0269 32.3651 16.7912 32.1476 16.5964 31.8967C16.508 31.7827 16.428 31.6618 16.3574 31.5349C16.6223 31.5153 16.7602 31.3842 16.827 31.2586L19.9004 22.7549Z" fill="url(#paint25_linear_818_1610)" fill-opacity="0.83"/>
<path d="M19.9004 22.7549C20.308 21.6271 21.3785 20.8757 22.5777 20.8757L34.5354 20.8757C35.4496 20.8757 36.1003 21.764 35.8247 22.6357L32.8615 32.0055C32.6744 32.5974 32.1252 32.9998 31.5044 32.9998L18.8469 32.9998L18.8389 32.9998C18.2702 32.9982 17.7408 32.8299 17.2968 32.5412L17.2936 32.5391C17.0269 32.3651 16.7912 32.1476 16.5964 31.8967C16.508 31.7827 16.428 31.6618 16.3574 31.5349C16.6223 31.5153 16.7602 31.3842 16.827 31.2586L19.9004 22.7549Z" fill="url(#paint26_linear_818_1610)" fill-opacity="0.83"/>
<path d="M19.9004 22.7549C20.308 21.6271 21.3785 20.8757 22.5777 20.8757L34.5354 20.8757C35.4496 20.8757 36.1003 21.764 35.8247 22.6357L32.8615 32.0055C32.6744 32.5974 32.1252 32.9998 31.5044 32.9998L18.8469 32.9998L18.8389 32.9998C18.2702 32.9982 17.7408 32.8299 17.2968 32.5412L17.2936 32.5391C17.0269 32.3651 16.7912 32.1476 16.5964 31.8967C16.508 31.7827 16.428 31.6618 16.3574 31.5349C16.6223 31.5153 16.7602 31.3842 16.827 31.2586L19.9004 22.7549Z" fill="url(#paint27_linear_818_1610)" fill-opacity="0.83"/>
<path d="M19.9004 22.7549C20.308 21.6271 21.3785 20.8757 22.5777 20.8757L34.5354 20.8757C35.4496 20.8757 36.1003 21.764 35.8247 22.6357L32.8615 32.0055C32.6744 32.5974 32.1252 32.9998 31.5044 32.9998L18.8469 32.9998L18.8389 32.9998C18.2702 32.9982 17.7408 32.8299 17.2968 32.5412L17.2936 32.5391C17.0269 32.3651 16.7912 32.1476 16.5964 31.8967C16.508 31.7827 16.428 31.6618 16.3574 31.5349C16.6223 31.5153 16.7602 31.3842 16.827 31.2586L19.9004 22.7549Z" fill="url(#paint28_linear_818_1610)"/>
<path d="M19.9004 22.7549C20.308 21.6271 21.3785 20.8757 22.5777 20.8757L34.5354 20.8757C35.4496 20.8757 36.1003 21.764 35.8247 22.6357L32.8615 32.0055C32.6744 32.5974 32.1252 32.9998 31.5044 32.9998L18.8469 32.9998L18.8389 32.9998C18.2702 32.9982 17.7408 32.8299 17.2968 32.5412L17.2936 32.5391C17.0269 32.3651 16.7912 32.1476 16.5964 31.8967C16.508 31.7827 16.428 31.6618 16.3574 31.5349C16.6223 31.5153 16.7602 31.3842 16.827 31.2586L19.9004 22.7549Z" fill="url(#paint29_linear_818_1610)"/>
<defs>
<linearGradient id="paint0_linear_818_1610" x1="19.0378" y1="16.4915" x2="21.0394" y2="23.6973" gradientUnits="userSpaceOnUse">
<stop stop-color="#FFD052"/>
<stop offset="1" stop-color="#FFBD41"/>
</linearGradient>
<linearGradient id="paint1_linear_818_1610" x1="16.017" y1="25.7715" x2="16.2782" y2="25.7715" gradientUnits="userSpaceOnUse">
<stop stop-color="#EEA850"/>
<stop offset="1" stop-color="#EEA850" stop-opacity="0"/>
</linearGradient>
<linearGradient id="paint2_linear_818_1610" x1="19.1365" y1="15.91" x2="19.1365" y2="16.28" gradientUnits="userSpaceOnUse">
<stop stop-color="#EEA850"/>
<stop offset="1" stop-color="#EEA850" stop-opacity="0"/>
</linearGradient>
<radialGradient id="paint3_radial_818_1610" cx="0" cy="0" r="1" gradientTransform="matrix(2.1309 2.63866 -0.413949 0.334288 23.8717 15.8654)" gradientUnits="userSpaceOnUse">
<stop stop-color="#EEA850"/>
<stop offset="1" stop-color="#EEA850" stop-opacity="0"/>
</radialGradient>
<radialGradient id="paint4_radial_818_1610" cx="0" cy="0" r="1" gradientTransform="matrix(2.1309 2.63866 -0.413949 0.334288 23.8717 15.8654)" gradientUnits="userSpaceOnUse">
<stop stop-color="#EEA850"/>
<stop offset="1" stop-color="#EEA850" stop-opacity="0"/>
</radialGradient>
<radialGradient id="paint5_radial_818_1610" cx="0" cy="0" r="1" gradientTransform="matrix(0.595433 0.583585 -0.0915519 0.0934095 25.5995 18.0715)" gradientUnits="userSpaceOnUse">
<stop stop-color="#EEA850"/>
<stop offset="1" stop-color="#EEA850" stop-opacity="0"/>
</radialGradient>
<radialGradient id="paint6_radial_818_1610" cx="0" cy="0" r="1" gradientTransform="matrix(0.795921 0.475174 -0.286581 0.48002 23.601 16.1225)" gradientUnits="userSpaceOnUse">
<stop stop-color="#EEA850"/>
<stop offset="1" stop-color="#EEA850" stop-opacity="0"/>
</radialGradient>
<radialGradient id="paint7_radial_818_1610" cx="0" cy="0" r="1" gradientTransform="matrix(1.9603 -0.36258 0.0659905 0.356775 15.7404 16.3626)" gradientUnits="userSpaceOnUse">
<stop stop-color="#EEA850"/>
<stop offset="1" stop-color="#EEA850" stop-opacity="0"/>
</radialGradient>
<radialGradient id="paint8_radial_818_1610" cx="0" cy="0" r="1" gradientTransform="matrix(0.856345 -0.744358 0.291598 0.335464 16 16.7444)" gradientUnits="userSpaceOnUse">
<stop stop-color="#EEA850"/>
<stop offset="1" stop-color="#EEA850" stop-opacity="0"/>
</radialGradient>
<radialGradient id="paint9_radial_818_1610" cx="0" cy="0" r="1" gradientUnits="userSpaceOnUse" gradientTransform="translate(28.0336 18.545) rotate(90) scale(0.480633 2.45037)">
<stop stop-color="#EEA850"/>
<stop offset="1" stop-color="#EEA850" stop-opacity="0"/>
</radialGradient>
<radialGradient id="paint10_radial_818_1610" cx="0" cy="0" r="1" gradientUnits="userSpaceOnUse" gradientTransform="translate(30.6584 18.6453) rotate(90) scale(0.314878 1.60532)">
<stop stop-color="#EEA850"/>
<stop offset="1" stop-color="#EEA850" stop-opacity="0"/>
</radialGradient>
<radialGradient id="paint11_radial_818_1610" cx="0" cy="0" r="1" gradientUnits="userSpaceOnUse" gradientTransform="translate(29.583 18.6321) rotate(90) scale(0.362324 1.8472)">
<stop stop-color="#EEA850"/>
<stop offset="1" stop-color="#EEA850" stop-opacity="0"/>
</radialGradient>
<radialGradient id="paint12_radial_818_1610" cx="0" cy="0" r="1" gradientUnits="userSpaceOnUse" gradientTransform="translate(33.8533 20.3371) rotate(-180) scale(0.263941 1.34561)">
<stop stop-color="#EEA850"/>
<stop offset="1" stop-color="#EEA850" stop-opacity="0"/>
</radialGradient>
<radialGradient id="paint13_radial_818_1610" cx="0" cy="0" r="1" gradientTransform="matrix(-0.3153 0.360341 -1.8371 -1.60745 33.816 19.2875)" gradientUnits="userSpaceOnUse">
<stop stop-color="#EEA850"/>
<stop offset="1" stop-color="#EEA850" stop-opacity="0"/>
</radialGradient>
<linearGradient id="paint14_linear_818_1610" x1="20.1877" y1="16" x2="20.1877" y2="16.3907" gradientUnits="userSpaceOnUse">
<stop stop-color="#FFD75C"/>
<stop offset="1" stop-color="#FFD75C" stop-opacity="0"/>
</linearGradient>
<linearGradient id="paint15_linear_818_1610" x1="16" y1="18.9113" x2="16.4647" y2="18.9113" gradientUnits="userSpaceOnUse">
<stop stop-color="#FFD75C"/>
<stop offset="1" stop-color="#FFD75C" stop-opacity="0"/>
</linearGradient>
<radialGradient id="paint16_radial_818_1610" cx="0" cy="0" r="1" gradientTransform="matrix(1.19159 1.18055 -2.15706 2.17721 24.5044 17.0256)" gradientUnits="userSpaceOnUse">
<stop stop-color="#FFD75C"/>
<stop offset="1" stop-color="#FFC75C" stop-opacity="0"/>
</radialGradient>
<radialGradient id="paint17_radial_818_1610" cx="0" cy="0" r="1" gradientUnits="userSpaceOnUse" gradientTransform="translate(26.9549 18.9783) rotate(-1.14724) scale(4.95382 9.05133)">
<stop stop-color="#FFD55C"/>
<stop offset="1" stop-color="#FFC75C" stop-opacity="0"/>
</radialGradient>
<linearGradient id="paint18_linear_818_1610" x1="33.7578" y1="20.9475" x2="33.3892" y2="20.9475" gradientUnits="userSpaceOnUse">
<stop stop-color="#FFD55C"/>
<stop offset="1" stop-color="#FFC75C" stop-opacity="0"/>
</linearGradient>
<linearGradient id="paint19_linear_818_1610" x1="24.8789" y1="32.1242" x2="24.8789" y2="21.831" gradientUnits="userSpaceOnUse">
<stop offset="0.182692" stop-color="#FCA23D"/>
<stop offset="0.826923" stop-color="#FCA23D" stop-opacity="0"/>
</linearGradient>
<radialGradient id="paint20_radial_818_1610" cx="0" cy="0" r="1" gradientTransform="matrix(2.27707 -2.92764 3.05814 2.37854 21.8402 23.8456)" gradientUnits="userSpaceOnUse">
<stop offset="0.182692" stop-color="#FCA23D"/>
<stop offset="0.826923" stop-color="#FCA23D" stop-opacity="0"/>
</radialGradient>
<radialGradient id="paint21_radial_818_1610" cx="0" cy="0" r="1" gradientUnits="userSpaceOnUse" gradientTransform="translate(26.8379 22.0417) rotate(-90) scale(2.3362 10.3503)">
<stop offset="0.182692" stop-color="#FCA23D"/>
<stop offset="0.746836" stop-color="#FCA23D" stop-opacity="0"/>
</radialGradient>
<linearGradient id="paint22_linear_818_1610" x1="26.123" y1="20.8757" x2="26.123" y2="32.9998" gradientUnits="userSpaceOnUse">
<stop stop-color="#FFDF54"/>
<stop offset="1" stop-color="#FFBA5F"/>
</linearGradient>
<linearGradient id="paint23_linear_818_1610" x1="19.3227" y1="24.7368" x2="19.5448" y2="24.8176" gradientUnits="userSpaceOnUse">
<stop stop-color="#FFC449"/>
<stop offset="1" stop-color="#FFC449" stop-opacity="0"/>
</linearGradient>
<linearGradient id="paint24_linear_818_1610" x1="20.8865" y1="21.5899" x2="21.156" y2="21.9933" gradientUnits="userSpaceOnUse">
<stop stop-color="#FFC449"/>
<stop offset="1" stop-color="#FFC449" stop-opacity="0"/>
</linearGradient>
<linearGradient id="paint25_linear_818_1610" x1="26.123" y1="20.8757" x2="26.123" y2="21.4556" gradientUnits="userSpaceOnUse">
<stop stop-color="#FFC449"/>
<stop offset="1" stop-color="#FFC449" stop-opacity="0"/>
</linearGradient>
<linearGradient id="paint26_linear_818_1610" x1="34.7835" y1="27.7099" x2="33.7874" y2="27.5184" gradientUnits="userSpaceOnUse">
<stop stop-color="#FFC449"/>
<stop offset="1" stop-color="#FFC449" stop-opacity="0"/>
</linearGradient>
<linearGradient id="paint27_linear_818_1610" x1="36.2776" y1="22.174" x2="35.3198" y2="22.5188" gradientUnits="userSpaceOnUse">
<stop stop-color="#FFC449"/>
<stop offset="1" stop-color="#FFC449" stop-opacity="0"/>
</linearGradient>
<linearGradient id="paint28_linear_818_1610" x1="26.123" y1="20.8757" x2="26.123" y2="20.9838" gradientUnits="userSpaceOnUse">
<stop stop-color="#FFE04A"/>
<stop offset="1" stop-color="#FFE04A" stop-opacity="0"/>
</linearGradient>
<linearGradient id="paint29_linear_818_1610" x1="26.123" y1="20.8757" x2="26.123" y2="20.9838" gradientUnits="userSpaceOnUse">
<stop stop-color="#FFE04A"/>
<stop offset="1" stop-color="#FFE04A" stop-opacity="0"/>
</linearGradient>
</defs>
</svg>
