<svg width="8" height="8" viewBox="0 0 8 8" fill="none" xmlns="http://www.w3.org/2000/svg">
<path d="M3.71191 0.25H4.28711C4.32055 0.250001 4.35352 0.261654 4.37988 0.282227C4.40592 0.302716 4.42451 0.331155 4.43262 0.363281L4.64062 1.19238L4.6748 1.3291L4.80957 1.37109C4.97593 1.42248 5.135 1.48792 5.28613 1.56836L5.41016 1.63477L5.53223 1.5625L6.26465 1.12207C6.29331 1.10488 6.32718 1.09847 6.36035 1.10254C6.39347 1.10661 6.4246 1.12098 6.44824 1.14453L6.85547 1.55176C6.87902 1.5754 6.89339 1.60653 6.89746 1.63965C6.90153 1.67282 6.89512 1.70669 6.87793 1.73535L6.4375 2.46777L6.36523 2.58984L6.43164 2.71387C6.51208 2.865 6.57752 3.02407 6.62891 3.19043L6.6709 3.3252L6.80762 3.35938L7.63672 3.56738C7.66891 3.57553 7.69729 3.59398 7.71777 3.62012C7.72817 3.63344 7.73682 3.64828 7.74219 3.66406L7.75 3.71289V4.28809C7.74989 4.32135 7.73825 4.35365 7.71777 4.37988C7.69729 4.40602 7.66891 4.42447 7.63672 4.43262L6.80762 4.64062L6.6709 4.6748L6.62891 4.80957C6.57752 4.97593 6.51208 5.135 6.43164 5.28613L6.36523 5.41016L6.4375 5.53223L6.87793 6.26465C6.89512 6.29331 6.90153 6.32718 6.89746 6.36035C6.89339 6.39347 6.87902 6.4246 6.85547 6.44824L6.44824 6.85547C6.4246 6.87902 6.39347 6.89339 6.36035 6.89746C6.32718 6.90153 6.29331 6.89512 6.26465 6.87793L5.53223 6.4375L5.41016 6.36523L5.28613 6.43164C5.135 6.51208 4.97593 6.57752 4.80957 6.62891L4.6748 6.6709L4.64062 6.80762L4.43262 7.63672C4.42447 7.66891 4.40602 7.69729 4.37988 7.71777C4.35352 7.73835 4.32055 7.75 4.28711 7.75H3.71289C3.67945 7.75 3.64648 7.73835 3.62012 7.71777C3.59398 7.69729 3.57553 7.66891 3.56738 7.63672L3.35938 6.80762L3.3252 6.6709L3.19043 6.62891C3.02577 6.57801 2.86613 6.51142 2.71387 6.43066L2.58887 6.36523L2.46777 6.4375L1.73535 6.87793C1.70669 6.89512 1.67282 6.90153 1.63965 6.89746C1.60653 6.89339 1.5754 6.87902 1.55176 6.85547L1.14453 6.44824C1.12098 6.4246 1.10661 6.39347 1.10254 6.36035C1.09847 6.32718 1.10488 6.29331 1.12207 6.26465L1.5625 5.53223L1.63477 5.41113L1.56934 5.28613C1.48858 5.13387 1.42199 4.97423 1.37109 4.80957L1.3291 4.6748L1.19238 4.64062L0.363281 4.43262C0.331093 4.42447 0.302711 4.40602 0.282227 4.37988C0.261727 4.35364 0.25011 4.32138 0.25 4.28809V3.71289C0.250001 3.67945 0.261654 3.64648 0.282227 3.62012C0.302715 3.59408 0.331154 3.57549 0.363281 3.56738L1.19238 3.35938L1.3291 3.3252L1.37109 3.19141C1.42246 3.02508 1.48795 2.86595 1.56836 2.71484L1.63477 2.58984L1.5625 2.46875L1.12207 1.73535C1.10495 1.70672 1.09847 1.67276 1.10254 1.63965C1.10666 1.6068 1.12123 1.57625 1.14453 1.55273L1.55176 1.14453C1.5754 1.12098 1.60653 1.10661 1.63965 1.10254C1.67282 1.09847 1.70669 1.10488 1.73535 1.12207L2.46777 1.5625L2.58984 1.63477L2.71387 1.56836C2.865 1.48792 3.02407 1.42248 3.19043 1.37109L3.3252 1.3291L3.35938 1.19238L3.56738 0.363281C3.57553 0.331092 3.59398 0.30271 3.62012 0.282227C3.63321 0.271998 3.6476 0.263184 3.66309 0.257812L3.71191 0.25ZM4 2.15039C3.50935 2.15039 3.03835 2.34446 2.69141 2.69141C2.34446 3.03835 2.15039 3.50935 2.15039 4C2.15039 4.49065 2.34446 4.96165 2.69141 5.30859C3.03835 5.65554 3.50935 5.84961 4 5.84961C4.49065 5.84961 4.96165 5.65554 5.30859 5.30859C5.65554 4.96165 5.84961 4.49065 5.84961 4C5.84961 3.50935 5.65554 3.03835 5.30859 2.69141C4.96165 2.34446 4.49065 2.15039 4 2.15039Z" fill="white" stroke="white" stroke-width="0.5"/>
</svg>
