<svg width="18" height="18" viewBox="0 0 18 18" fill="none" xmlns="http://www.w3.org/2000/svg">
<circle cx="9" cy="9" r="9" fill="#555557"/>
<path d="M8.56836 3.25H9.43066C9.50869 3.25 9.58497 3.27621 9.64648 3.32422C9.70778 3.37216 9.75155 3.43918 9.77051 3.51465L10.082 4.75879L10.1162 4.89551L10.251 4.93652C10.5081 5.01592 10.7534 5.11869 10.9873 5.24316L11.1123 5.30957L11.2334 5.23633L12.333 4.57617C12.3998 4.53608 12.4783 4.51984 12.5557 4.5293C12.6331 4.53881 12.7055 4.57378 12.7607 4.62891L13.3711 5.23926C13.4262 5.29445 13.4612 5.36691 13.4707 5.44434C13.4802 5.52169 13.4639 5.60016 13.4238 5.66699L12.7637 6.7666L12.6904 6.8877L12.7568 7.0127C12.8813 7.24655 12.9841 7.49193 13.0635 7.74902L13.1045 7.88379L13.2412 7.91797L14.4854 8.22949C14.5609 8.2485 14.6279 8.29211 14.6758 8.35352C14.7237 8.41495 14.7499 8.49045 14.75 8.56836V9.43164C14.7499 9.50955 14.7237 9.58505 14.6758 9.64648C14.6279 9.70789 14.5609 9.7515 14.4854 9.77051L13.2412 10.082L13.1045 10.1162L13.0635 10.251C12.9841 10.5081 12.8813 10.7534 12.7568 10.9873L12.6904 11.1123L12.7637 11.2334L13.4238 12.333C13.4639 12.3998 13.4802 12.4783 13.4707 12.5557C13.4612 12.6331 13.4262 12.7055 13.3711 12.7607L12.7607 13.3711C12.7055 13.4262 12.6331 13.4612 12.5557 13.4707C12.4783 13.4802 12.3998 13.4639 12.333 13.4238L11.2334 12.7637L11.1123 12.6904L10.9873 12.7568C10.7534 12.8813 10.5081 12.9841 10.251 13.0635L10.1162 13.1045L10.082 13.2412L9.77051 14.4854C9.7515 14.5609 9.70789 14.6279 9.64648 14.6758C9.58505 14.7237 9.50955 14.7499 9.43164 14.75H8.56836C8.49045 14.7499 8.41495 14.7237 8.35352 14.6758C8.29211 14.6279 8.2485 14.5609 8.22949 14.4854L7.91797 13.2412L7.88379 13.1045L7.74902 13.0635L7.55957 13C7.37178 12.9322 7.18924 12.8505 7.0127 12.7568L6.8877 12.6914L6.7666 12.7637L5.66699 13.4238C5.60016 13.4639 5.52169 13.4802 5.44434 13.4707C5.36691 13.4612 5.29445 13.4262 5.23926 13.3711L4.62891 12.7607C4.57378 12.7055 4.53881 12.6331 4.5293 12.5557C4.51984 12.4783 4.53608 12.3998 4.57617 12.333L5.23633 11.2334L5.30859 11.1123L5.24316 10.9873C5.11833 10.7519 5.01519 10.5055 4.93652 10.251L4.89551 10.1162L4.75879 10.082L3.51465 9.77051C3.43917 9.75151 3.37214 9.70782 3.32422 9.64648C3.27633 9.58508 3.25008 9.50951 3.25 9.43164V8.56934C3.25 8.49131 3.27621 8.41503 3.32422 8.35352C3.37216 8.29222 3.43918 8.24845 3.51465 8.22949L4.75879 7.91797L4.89551 7.88379L4.93652 7.75C5.01591 7.49295 5.11872 7.24749 5.24316 7.01367L5.30957 6.88867L5.23633 6.76758L4.57617 5.66699C4.53622 5.60018 4.5198 5.5216 4.5293 5.44434C4.53887 5.3671 4.57392 5.29533 4.62891 5.24023L5.23926 4.62891C5.29445 4.57378 5.36691 4.53881 5.44434 4.5293C5.52169 4.51984 5.60016 4.53608 5.66699 4.57617L6.7666 5.23633L6.8877 5.30957L7.0127 5.24316C7.24655 5.11869 7.49193 5.01592 7.74902 4.93652L7.88379 4.89551L7.91797 4.75879L8.22949 3.51465C8.24849 3.43917 8.29218 3.37214 8.35352 3.32422C8.41492 3.27633 8.49049 3.25008 8.56836 3.25ZM9 6.34961C8.29718 6.34961 7.62295 6.62901 7.12598 7.12598C6.62901 7.62295 6.34961 8.29718 6.34961 9C6.34961 9.70282 6.62901 10.3771 7.12598 10.874C7.62295 11.371 8.29718 11.6504 9 11.6504C9.70282 11.6504 10.3771 11.371 10.874 10.874C11.371 10.3771 11.6504 9.70282 11.6504 9C11.6504 8.29718 11.371 7.62295 10.874 7.12598C10.3771 6.62901 9.70282 6.34961 9 6.34961Z" fill="white" stroke="white" stroke-width="0.5"/>
</svg>
