<svg width="16" height="14" viewBox="0 0 16 14" fill="none" xmlns="http://www.w3.org/2000/svg">
<mask id="path-1-inside-1_390_1325" fill="white">
<path d="M8 2.625C8 2.625 8.06062 2.88561 7.32444 1.75C6.54222 0.735 5.38667 0 4 0C1.78667 0 0 1.75875 0 3.9375C0 4.75125 0.248889 5.50375 0.675556 6.125C1.39556 7.18375 8 14 8 14M8 2.625C8 2.625 8 2.625 8.67556 1.75C9.45778 0.735 10.6133 0 12 0C14.2133 0 16 1.75875 16 3.9375C16 4.75125 15.7511 5.50375 15.3244 6.125C14.6044 7.18375 8 14 8 14"/>
</mask>
<path d="M8 2.625V1.425C7.63394 1.425 7.28789 1.59209 7.06025 1.87876C6.83261 2.16544 6.74827 2.54034 6.83121 2.89688L8 2.625ZM7.32444 1.75L8.33137 1.09724C8.31365 1.0699 8.29482 1.0433 8.27494 1.01749L7.32444 1.75ZM0.675556 6.125L1.66786 5.45019L1.66473 5.44564L0.675556 6.125ZM8 14L7.13819 14.835C7.36422 15.0683 7.67517 15.2 8 15.2C8.32483 15.2 8.63578 15.0683 8.86181 14.835L8 14ZM8.67556 1.75L9.6254 2.48334L9.62605 2.48251L8.67556 1.75ZM15.3244 6.125L14.3353 5.44564L14.3322 5.4502L15.3244 6.125ZM8 2.625C6.83121 2.89688 6.83098 2.8959 6.83075 2.89491C6.83067 2.89458 6.83044 2.89358 6.83029 2.89292C6.82998 2.89158 6.82968 2.89023 6.82937 2.88886C6.82875 2.88613 6.82813 2.88334 6.82751 2.88048C6.82627 2.87477 6.825 2.86873 6.82373 2.8624C6.8212 2.84988 6.81853 2.8355 6.81594 2.81953C6.81114 2.78992 6.8049 2.74418 6.80237 2.68766C6.80008 2.63659 6.79889 2.53975 6.82134 2.42018C6.84168 2.31183 6.90012 2.08159 7.09271 1.86026C7.32121 1.59766 7.64216 1.45869 7.96333 1.45112C8.23246 1.44478 8.43048 1.53101 8.5168 1.57415C8.68582 1.65862 8.7834 1.76141 8.78644 1.76445C8.81905 1.79703 8.80359 1.78791 8.71287 1.6625C8.63144 1.54991 8.50937 1.37181 8.33137 1.09724L7.32444 1.75L6.31752 2.40276C6.67182 2.9493 6.9077 3.27998 7.09013 3.46225C7.13161 3.50369 7.25612 3.62714 7.44391 3.72099C7.53963 3.76882 7.745 3.85693 8.01985 3.85045C8.34676 3.84275 8.67182 3.70164 8.90323 3.43569C9.09873 3.21102 9.15888 2.97623 9.18014 2.86295C9.20352 2.73844 9.20247 2.63628 9.19997 2.5803C9.19722 2.51887 9.19039 2.46864 9.18506 2.43577C9.18221 2.41817 9.17928 2.40247 9.17658 2.38902C9.17521 2.38223 9.17387 2.37585 9.17257 2.36989C9.17192 2.36691 9.17128 2.36402 9.17065 2.36123C9.17034 2.35983 9.17002 2.35846 9.16971 2.35711C9.16956 2.35643 9.16933 2.35543 9.16925 2.3551C9.16902 2.35411 9.16879 2.35312 8 2.625ZM7.32444 1.75L8.27494 1.01749C7.32189 -0.219165 5.84237 -1.2 4 -1.2V0V1.2C4.93096 1.2 5.76255 1.68916 6.37395 2.48251L7.32444 1.75ZM4 0V-1.2C1.14181 -1.2 -1.2 1.07826 -1.2 3.9375H0H1.2C1.2 2.43924 2.43152 1.2 4 1.2V0ZM0 3.9375H-1.2C-1.2 5.00004 -0.874032 5.98837 -0.313624 6.80436L0.675556 6.125L1.66473 5.44564C1.37181 5.01913 1.2 4.50246 1.2 3.9375H0ZM0.675556 6.125L-0.316734 6.7998C-0.0764298 7.15317 0.543705 7.85238 1.23814 8.61188C1.96579 9.4077 2.8646 10.3651 3.73696 11.2852C4.6101 12.2061 5.46024 13.0934 6.09185 13.7502C6.40773 14.0787 6.66913 14.3497 6.85163 14.5387C6.94289 14.6332 7.01443 14.7071 7.0632 14.7576C7.08759 14.7828 7.10628 14.8021 7.11891 14.8151C7.12522 14.8216 7.13002 14.8266 7.13324 14.8299C7.13486 14.8316 7.13608 14.8329 7.13691 14.8337C7.13732 14.8341 7.13763 14.8345 7.13785 14.8347C7.13795 14.8348 7.13804 14.8349 7.13809 14.8349C7.13815 14.835 7.13819 14.835 8 14C8.86181 13.165 8.8618 13.165 8.86176 13.1649C8.86171 13.1649 8.86164 13.1648 8.86155 13.1647C8.86136 13.1645 8.86107 13.1642 8.86068 13.1638C8.85991 13.163 8.85874 13.1618 8.85718 13.1602C8.85405 13.157 8.84936 13.1521 8.84315 13.1457C8.83074 13.1329 8.81227 13.1138 8.78811 13.0888C8.73978 13.0389 8.66873 12.9654 8.57799 12.8714C8.3965 12.6835 8.1363 12.4137 7.82176 12.0866C7.19254 11.4323 6.34657 10.5494 5.4786 9.6339C4.60984 8.71759 3.72254 7.77238 3.00936 6.99238C2.26296 6.17605 1.78754 5.62621 1.66785 5.4502L0.675556 6.125ZM8 2.625C8 3.825 8.52899 3.70211 8.94964 3.35862C8.94966 3.35858 8.94971 3.35851 8.94974 3.35848C8.94977 3.35844 8.94979 3.35841 8.94979 3.35841C8.94981 3.35839 8.94982 3.35838 8.94982 3.35837C8.94983 3.35836 8.94984 3.35835 8.94985 3.35833C8.94988 3.3583 8.94992 3.35824 8.95001 3.35814C8.95017 3.35792 8.9505 3.35749 8.95116 3.35664C8.95248 3.35493 8.95512 3.35151 8.9604 3.34467C8.97096 3.331 8.99207 3.30366 9.03429 3.24897C9.11874 3.13959 9.28763 2.92084 9.6254 2.48334L8.67556 1.75L7.72571 1.01666C7.38793 1.45416 7.21904 1.67291 7.1346 1.78228C7.09238 1.83697 7.07126 1.86431 7.06071 1.87798C7.05543 1.88482 7.05279 1.88824 7.05148 1.88995C7.05082 1.8908 7.05049 1.89122 7.05032 1.89144C7.05024 1.89154 7.0502 1.89159 7.05019 1.89161C7.05018 1.89163 7.05018 1.89163 7.05018 1.89162C7.05018 1.89162 7.05019 1.89161 7.05021 1.89159C7.05021 1.89158 7.05023 1.89156 7.05026 1.89152C7.05028 1.89149 7.05034 1.89142 7.05036 1.89138C7.47101 1.54789 8 1.425 8 2.625ZM8.67556 1.75L9.62605 2.48251C10.2374 1.68916 11.069 1.2 12 1.2V0V-1.2C10.1576 -1.2 8.67811 -0.219165 7.72506 1.01749L8.67556 1.75ZM12 0V1.2C13.5685 1.2 14.8 2.43924 14.8 3.9375H16H17.2C17.2 1.07826 14.8582 -1.2 12 -1.2V0ZM16 3.9375H14.8C14.8 4.50246 14.6282 5.01913 14.3353 5.44564L15.3244 6.125L16.3136 6.80436C16.874 5.98837 17.2 5.00004 17.2 3.9375H16ZM15.3244 6.125L14.3322 5.4502C14.2125 5.62621 13.737 6.17605 12.9906 6.99238C12.2775 7.77238 11.3902 8.71759 10.5214 9.6339C9.65343 10.5494 8.80746 11.4323 8.17824 12.0866C7.8637 12.4137 7.6035 12.6835 7.42201 12.8714C7.33127 12.9654 7.26022 13.0389 7.21189 13.0888C7.18773 13.1138 7.16926 13.1329 7.15684 13.1457C7.15064 13.1521 7.14595 13.157 7.14282 13.1602C7.14126 13.1618 7.14009 13.163 7.13931 13.1638C7.13893 13.1642 7.13864 13.1645 7.13845 13.1647C7.13836 13.1648 7.13829 13.1649 7.13824 13.1649C7.1382 13.165 7.13819 13.165 8 14C8.86181 14.835 8.86185 14.835 8.86191 14.8349C8.86196 14.8349 8.86204 14.8348 8.86215 14.8347C8.86236 14.8345 8.86268 14.8341 8.86309 14.8337C8.86392 14.8329 8.86514 14.8316 8.86675 14.8299C8.86998 14.8266 8.87478 14.8216 8.88109 14.8151C8.89372 14.8021 8.91241 14.7828 8.9368 14.7576C8.98557 14.7071 9.05711 14.6332 9.14837 14.5387C9.33087 14.3497 9.59227 14.0787 9.90815 13.7502C10.5398 13.0934 11.3899 12.2061 12.263 11.2852C13.1354 10.3651 14.0342 9.4077 14.7619 8.61188C15.4563 7.85238 16.0764 7.15317 16.3167 6.7998L15.3244 6.125Z" fill="#FF5F2F" mask="url(#path-1-inside-1_390_1325)"/>
</svg>
