<svg width="14" height="13" viewBox="0 0 14 13" fill="none" xmlns="http://www.w3.org/2000/svg">
<path d="M7 2.75C7 2.75 7.04925 2.97338 6.45111 2C5.81556 1.13 4.87667 0.5 3.75 0.5C1.95167 0.5 0.5 2.0075 0.5 3.875C0.5 4.5725 0.702222 5.2175 1.04889 5.75C1.63389 6.6575 7 12.5 7 12.5M7 2.75C7 2.75 7 2.75 7.54889 2C8.18444 1.13 9.12333 0.5 10.25 0.5C12.0483 0.5 13.5 2.0075 13.5 3.875C13.5 4.5725 13.2978 5.2175 12.9511 5.75C12.3661 6.6575 7 12.5 7 12.5" stroke="#FF5F2F" stroke-linecap="round" stroke-linejoin="round"/>
</svg>
