<svg width="16" height="14" viewBox="0 0 16 14" fill="none" xmlns="http://www.w3.org/2000/svg">
<path d="M11.4209 0.0957031C13.8379 0.0959427 15.8425 1.99945 15.8428 4.41699C15.8428 5.31209 15.5632 6.14341 15.0869 6.8291C14.8821 7.12611 14.3529 7.71568 13.7588 8.35645C13.1366 9.02744 12.3681 9.83543 11.6221 10.6113C10.8754 11.3879 10.1476 12.1365 9.60742 12.6904C9.33762 12.9671 9.11408 13.1961 8.95801 13.3555C8.88022 13.4349 8.81808 13.4975 8.77637 13.54C8.75593 13.5609 8.74025 13.5779 8.72949 13.5889L8.71289 13.6055C8.52498 13.7967 8.26712 13.9052 7.99902 13.9053C7.76444 13.9052 7.5381 13.8225 7.35938 13.6738L7.28613 13.6055L7.26953 13.5889C7.25874 13.5779 7.24251 13.5613 7.22168 13.54C7.17997 13.4975 7.11889 13.435 7.04102 13.3555C6.88492 13.1961 6.66075 12.9674 6.39062 12.6904C5.85041 12.1365 5.12363 11.3879 4.37695 10.6113C3.63079 9.83525 2.86157 9.0276 2.23926 8.35645C1.64748 7.71821 1.12067 7.13117 0.914062 6.83301C0.436037 6.14653 0.15625 5.31388 0.15625 4.41699C0.156488 1.9993 2.16096 0.0957031 4.57812 0.0957031C6.00962 0.0959512 7.18612 0.786671 7.99902 1.70508C8.81206 0.786567 9.98913 0.0957132 11.4209 0.0957031Z" fill="#FF5F2F"/>
</svg>
