<svg width="14" height="13" viewBox="0 0 14 13" fill="none" xmlns="http://www.w3.org/2000/svg">
<path d="M9.87402 0C12.0858 7.73497e-05 13.8326 1.82513 13.833 4.03125C13.833 4.85578 13.5898 5.62699 13.168 6.2666L13.167 6.26562C12.9839 6.54447 12.5233 7.08673 12.0137 7.66699C11.4751 8.2802 10.8092 9.01813 10.1641 9.72656C9.51841 10.4355 8.88895 11.1184 8.42188 11.624C8.18845 11.8767 7.99534 12.0859 7.86035 12.2314C7.79305 12.304 7.74018 12.3616 7.7041 12.4004C7.68646 12.4194 7.67242 12.4343 7.66309 12.4443C7.65868 12.4491 7.65474 12.4535 7.65234 12.4561L7.64844 12.46C7.4593 12.6632 7.19363 12.7783 6.91602 12.7783C6.63853 12.7782 6.37367 12.663 6.18457 12.46H6.18359V12.459C6.18296 12.4583 6.18173 12.4572 6.18066 12.4561C6.17827 12.4535 6.17449 12.4492 6.16992 12.4443C6.16061 12.4343 6.14668 12.4195 6.12891 12.4004C6.09284 12.3616 6.04002 12.3041 5.97266 12.2314C5.83766 12.0859 5.64372 11.8769 5.41016 11.624C4.94303 11.1183 4.31366 10.4356 3.66797 9.72656C3.02281 9.01815 2.35791 8.2802 1.81934 7.66699C1.30742 7.08412 0.84356 6.54047 0.662109 6.2627L0.663086 6.26172C0.242818 5.62287 0 4.85411 0 4.03125C0.000367112 1.82513 1.74624 8.04725e-05 3.95801 0C5.19242 4.50936e-05 6.20385 0.593916 6.91602 1.38086C7.62813 0.593904 8.63967 0.00014071 9.87402 0Z" fill="#FF5F2F"/>
</svg>
