<svg width="17" height="16" viewBox="0 0 17 16" fill="none" xmlns="http://www.w3.org/2000/svg">
<path d="M12.2031 0C14.8216 0.000115648 16.9375 2.1159 16.9375 4.73438C16.9374 5.70805 16.643 6.61394 16.1367 7.36426L16.1377 7.36523C15.92 7.69031 15.3492 8.34514 14.6982 9.06836C14.0198 9.8221 13.1813 10.7293 12.3672 11.6016C11.5523 12.4746 10.7585 13.3158 10.1689 13.9385C9.87434 14.2497 9.63027 14.5064 9.45996 14.6855C9.37493 14.775 9.3082 14.8458 9.2627 14.8936C9.24 14.9174 9.22174 14.9359 9.20996 14.9482C9.2044 14.9541 9.20021 14.9588 9.19727 14.9619L9.19238 14.9668C9.00372 15.1646 8.74208 15.2763 8.46875 15.2764C8.22965 15.2764 7.9995 15.1909 7.81934 15.0371L7.74512 14.9668L7.74023 14.9619C7.7373 14.9588 7.73309 14.9541 7.72754 14.9482C7.71578 14.9359 7.69751 14.9174 7.6748 14.8936C7.62932 14.8458 7.56256 14.775 7.47754 14.6855C7.30724 14.5064 7.06315 14.2497 6.76855 13.9385C6.17904 13.3158 5.38515 12.4746 4.57031 11.6016C3.75619 10.7293 2.91773 9.82211 2.23926 9.06836C1.58827 8.34515 1.01758 7.69035 0.799805 7.36523L0.800781 7.36426C0.294519 6.61393 6.79939e-05 5.70807 0 4.73438C0 2.11584 2.11582 1.15569e-05 4.73438 0C6.31166 7.2563e-05 7.59756 0.799776 8.46875 1.8457C9.33997 0.79977 10.6258 2.16031e-05 12.2031 0Z" fill="#E6E7E9"/>
</svg>
