<svg width="9" height="9" viewBox="0 0 9 9" fill="none" xmlns="http://www.w3.org/2000/svg">
<path d="M7.67812 1.32188C7.26178 0.902777 6.76661 0.570211 6.22116 0.343342C5.67571 0.116472 5.09075 -0.000216449 4.5 3.0141e-07C3.30653 3.0141e-07 2.16193 0.474106 1.31802 1.31802C0.474106 2.16193 0 3.30653 0 4.5C0 5.69347 0.474106 6.83807 1.31802 7.68198C2.16193 8.52589 3.30653 9 4.5 9C6.59812 9 8.3475 7.56563 8.84812 5.625H7.67812C7.44641 6.28285 7.01626 6.85259 6.44701 7.2556C5.87776 7.6586 5.19747 7.87503 4.5 7.875C3.60489 7.875 2.74645 7.51942 2.11351 6.88649C1.48058 6.25355 1.125 5.39511 1.125 4.5C1.125 3.60489 1.48058 2.74645 2.11351 2.11351C2.74645 1.48058 3.60489 1.125 4.5 1.125C5.43375 1.125 6.26625 1.51313 6.87375 2.12625L5.0625 3.9375H9V3.0141e-07L7.67812 1.32188Z" fill="#FF5F2F"/>
</svg>
