<svg width="15" height="18" viewBox="0 0 15 18" fill="none" xmlns="http://www.w3.org/2000/svg">
<path d="M11.6667 6.66667H13.3333C13.7754 6.66667 14.1993 6.84226 14.5118 7.15482C14.8244 7.46738 15 7.89131 15 8.33333V15.8333C15 16.2754 14.8244 16.6993 14.5118 17.0118C14.1993 17.3244 13.7754 17.5 13.3333 17.5H1.66667C1.22464 17.5 0.800716 17.3244 0.488155 17.0118C0.175595 16.6993 0 16.2754 0 15.8333V8.33333C0 7.89131 0.175595 7.46738 0.488155 7.15482C0.800716 6.84226 1.22464 6.66667 1.66667 6.66667H3.33333V8.33333H1.66667V15.8333H13.3333V8.33333H11.6667V6.66667ZM2.91667 4.58333L4.095 5.76167L6.66667 3.19V11.6667H8.33333V3.19L10.905 5.76167L12.0833 4.58333L7.5 0L2.91667 4.58333Z" fill="#585A5F"/>
</svg>
