<svg width="361" height="50" viewBox="0 0 361 50" fill="none" xmlns="http://www.w3.org/2000/svg">
<rect x="0.6" y="0.6" width="359.8" height="48.8" rx="11.4" fill="white" stroke="#E6E7E9" stroke-width="1.2"/>
<path d="M126.805 24.2656C126.383 22.9219 125.367 22.1094 123.867 22.1094C121.961 22.1094 120.492 23.6094 120.492 26.3438C120.492 29.0781 121.945 30.5781 123.945 30.5781C125.75 30.5781 126.945 29.4375 126.977 27.625H124.195V26.2031H128.648V27.4844C128.648 30.3438 126.68 32.1562 123.93 32.1562C120.867 32.1562 118.789 29.9219 118.789 26.3438C118.789 22.7344 120.93 20.5312 123.852 20.5312C126.305 20.5312 128.18 22.0625 128.57 24.2656H126.805ZM134.086 32.1719C131.68 32.1719 130.117 30.4219 130.117 27.7969C130.117 25.1562 131.68 23.4062 134.086 23.4062C136.477 23.4062 138.039 25.1562 138.039 27.7969C138.039 30.4219 136.477 32.1719 134.086 32.1719ZM134.086 30.7812C135.617 30.7812 136.352 29.4219 136.352 27.7969C136.352 26.1719 135.617 24.7812 134.086 24.7812C132.523 24.7812 131.789 26.1719 131.789 27.7969C131.789 29.4219 132.523 30.7812 134.086 30.7812ZM143.273 32.1719C140.867 32.1719 139.305 30.4219 139.305 27.7969C139.305 25.1562 140.867 23.4062 143.273 23.4062C145.664 23.4062 147.227 25.1562 147.227 27.7969C147.227 30.4219 145.664 32.1719 143.273 32.1719ZM143.273 30.7812C144.805 30.7812 145.539 29.4219 145.539 27.7969C145.539 26.1719 144.805 24.7812 143.273 24.7812C141.711 24.7812 140.977 26.1719 140.977 27.7969C140.977 29.4219 141.711 30.7812 143.273 30.7812ZM152.43 35.3594C150.289 35.3594 148.883 34.4062 148.727 32.8281H150.43C150.586 33.625 151.336 34.0156 152.445 34.0156C153.773 34.0156 154.617 33.4531 154.617 32.125V30.4531H154.508C154.211 31 153.602 31.875 152.039 31.875C150.039 31.875 148.492 30.375 148.492 27.6719C148.492 24.9688 150.008 23.4062 152.055 23.4062C153.633 23.4062 154.211 24.3594 154.523 24.8906H154.633V23.5156H156.258V32.1875C156.258 34.3594 154.617 35.3594 152.43 35.3594ZM152.414 30.5C153.836 30.5 154.633 29.4531 154.633 27.7031C154.633 25.9844 153.852 24.8281 152.414 24.8281C150.93 24.8281 150.195 26.0781 150.195 27.7031C150.195 29.3594 150.961 30.5 152.414 30.5ZM159.961 20.6875V32H158.289V20.6875H159.961ZM165.648 32.1719C163.148 32.1719 161.617 30.4531 161.617 27.8125C161.617 25.2031 163.18 23.4062 165.539 23.4062C167.477 23.4062 169.305 24.6094 169.305 27.6719V28.2656H163.273C163.32 29.875 164.266 30.7969 165.664 30.7969C166.617 30.7969 167.227 30.3906 167.508 29.875H169.195C168.82 31.25 167.508 32.1719 165.648 32.1719ZM163.289 27.0156H167.664C167.664 25.7188 166.836 24.7812 165.555 24.7812C164.219 24.7812 163.352 25.8125 163.289 27.0156ZM183.273 30.4062V31.6562H170.461V30.4062H176.102V27.9531H172.023V23.5H180.242V21.5312H171.992V20.3125H181.711V24.6875H173.492V26.7344H182.039V27.9531H177.57V30.4062H183.273ZM200.227 19.3281V33.3281H198.82V19.3281H200.227ZM197.367 19.6875V32.6406H195.961V27.875H193.57V26.6562H195.961V24.375H193.805C193.125 26.7266 191.633 28.7656 188.992 30.3438L188.117 29.2812C191.086 27.5156 192.516 25.1641 192.773 22.2812H188.805V21.0625H194.242C194.242 21.7812 194.188 22.4766 194.07 23.1562H195.961V19.6875H197.367ZM214.82 26.2812V27.5H202.023V26.2812H207.664V24.2344H209.133V26.2812H214.82ZM209.148 20.1406C209.148 21.9219 211.336 23.4844 214.039 23.8281L213.461 25C211.234 24.6484 209.273 23.5625 208.398 22.0156C207.5 23.5625 205.539 24.6484 203.305 25L202.758 23.8281C205.445 23.4844 207.633 21.9062 207.648 20.1406V19.5469H209.148V20.1406ZM213.227 28.7344V33.3281H211.727V29.9062H203.445V28.7344H213.227ZM226.758 19.3281V25H229.008V26.2344H226.758V33.3281H225.289V19.3281H226.758ZM224.07 21.5156V22.7344H215.773V21.5156H219.227V19.5156H220.711V21.5156H224.07ZM219.977 23.7656C221.977 23.7656 223.445 25.1094 223.461 27.0156C223.445 28.9375 221.977 30.2656 219.977 30.2812C217.961 30.2656 216.492 28.9375 216.492 27.0156C216.492 25.1094 217.961 23.7656 219.977 23.7656ZM219.977 24.9844C218.789 24.9844 217.898 25.8125 217.914 27.0156C217.898 28.2344 218.789 29.0469 219.977 29.0312C221.164 29.0469 222.039 28.2344 222.039 27.0156C222.039 25.8125 221.164 24.9844 219.977 24.9844ZM241.32 19.3281V33.3281H239.82V19.3281H241.32ZM237.148 20.8281C237.148 24.9219 235.398 28.4844 230.602 30.7812L229.82 29.5781C233.547 27.8047 235.359 25.2812 235.648 22.0156H230.492V20.8281H237.148Z" fill="#555557"/>
<g clip-path="url(#clip0_818_1634)">
<path d="M35.7623 25.1871C35.7623 24.3677 35.6958 23.7698 35.552 23.1497H26.1953V26.848H31.6874C31.5768 27.7671 30.9788 29.1512 29.65 30.0813L29.6314 30.2051L32.5898 32.4969L32.7948 32.5174C34.6771 30.7789 35.7623 28.2211 35.7623 25.1871Z" fill="#4285F4"/>
<path d="M26.1937 34.9313C28.8844 34.9313 31.1432 34.0454 32.7932 32.5174L29.6484 30.0813C28.8069 30.6682 27.6774 31.0779 26.1937 31.0779C23.5583 31.0779 21.3216 29.3395 20.5243 26.9366L20.4074 26.9466L17.3312 29.3273L17.291 29.4391C18.9298 32.6945 22.296 34.9313 26.1937 34.9313Z" fill="#34A853"/>
<path d="M20.5248 26.9366C20.3144 26.3166 20.1926 25.6521 20.1926 24.9656C20.1926 24.2791 20.3144 23.6147 20.5137 22.9947L20.5081 22.8626L17.3934 20.4437L17.2915 20.4921C16.6161 21.8431 16.2285 23.3601 16.2285 24.9656C16.2285 26.5712 16.6161 28.0882 17.2915 29.4391L20.5248 26.9366Z" fill="#FBBC05"/>
<path d="M26.1937 18.8534C28.065 18.8534 29.3273 19.6617 30.047 20.3372L32.8596 17.5911C31.1322 15.9855 28.8844 15 26.1937 15C22.296 15 18.9298 17.2367 17.291 20.4921L20.5132 22.9947C21.3216 20.5918 23.5583 18.8534 26.1937 18.8534Z" fill="#EB4335"/>
</g>
<defs>
<clipPath id="clip0_818_1634">
<rect width="20" height="20" fill="white" transform="translate(16 15)"/>
</clipPath>
</defs>
</svg>
