<svg width="21" height="20" viewBox="0 0 21 20" fill="none" xmlns="http://www.w3.org/2000/svg">
<path d="M10.4199 0C12.3039 0 14.0464 0.366661 15.6473 1.09998C17.2483 1.8333 18.514 2.83048 19.4443 4.09148C20.3747 5.35245 20.8398 6.72792 20.8398 8.21786C20.8398 9.70776 20.3747 11.0852 19.4443 12.3501C18.514 13.615 17.2502 14.6141 15.6531 15.3474C14.056 16.0807 12.3116 16.4474 10.4199 16.4474C9.82296 16.4474 9.20657 16.4047 8.57085 16.3193C5.81079 18.236 4.34165 19.206 4.16333 19.2293C4.07803 19.2604 3.99661 19.2564 3.91909 19.2177C3.88807 19.1944 3.86482 19.1633 3.84931 19.1245C3.8338 19.0857 3.82607 19.0508 3.82607 19.0198V18.9732C3.8726 18.6706 4.22533 17.4096 4.88434 15.1902C3.38803 14.4453 2.19989 13.4578 1.31994 12.2278C0.439978 10.9979 0 9.66122 0 8.21786C0 6.72792 0.465175 5.35245 1.39553 4.09148C2.32588 2.83048 3.59154 1.8333 5.19252 1.09998C6.79349 0.366661 8.53596 0 10.4199 0Z" fill="#181600"/>
</svg>
