<svg width="361" height="50" viewBox="0 0 361 50" fill="none" xmlns="http://www.w3.org/2000/svg">
<rect width="361" height="50" rx="12" fill="#FEE500"/>
<path d="M122.523 32V20.6875H124.242V26.0781H124.383L129.117 20.6875H131.273L126.711 25.7812L131.289 32H129.211L125.57 26.9531L124.242 28.4844V32H122.523ZM132.164 29.6094C132.164 27.6719 133.805 27.1719 135.336 27.0625C135.898 27.0234 137.172 26.9531 137.57 26.9375L137.555 26.2656C137.555 25.3125 136.977 24.75 135.836 24.75C134.852 24.75 134.258 25.2031 134.086 25.8281H132.43C132.586 24.4219 133.898 23.4062 135.898 23.4062C137.242 23.4062 139.227 23.9062 139.227 26.3594V32H137.602V30.8438H137.539C137.211 31.4844 136.43 32.1875 135.023 32.1875C133.414 32.1875 132.164 31.2656 132.164 29.6094ZM133.789 29.625C133.789 30.4375 134.461 30.8594 135.398 30.8594C136.758 30.8594 137.57 29.9531 137.57 28.9375V28.1562C137.18 28.1875 135.961 28.2734 135.57 28.2969C134.477 28.375 133.789 28.7812 133.789 29.625ZM141.242 32V20.6875H142.914V27.0938H143.055L146.414 23.5156H148.414L144.992 27.1562L148.648 32H146.602L143.727 28.1875L142.914 28.9844V32H141.242ZM149.336 29.6094C149.336 27.6719 150.977 27.1719 152.508 27.0625C153.07 27.0234 154.344 26.9531 154.742 26.9375L154.727 26.2656C154.727 25.3125 154.148 24.75 153.008 24.75C152.023 24.75 151.43 25.2031 151.258 25.8281H149.602C149.758 24.4219 151.07 23.4062 153.07 23.4062C154.414 23.4062 156.398 23.9062 156.398 26.3594V32H154.773V30.8438H154.711C154.383 31.4844 153.602 32.1875 152.195 32.1875C150.586 32.1875 149.336 31.2656 149.336 29.6094ZM150.961 29.625C150.961 30.4375 151.633 30.8594 152.57 30.8594C153.93 30.8594 154.742 29.9531 154.742 28.9375V28.1562C154.352 28.1875 153.133 28.2734 152.742 28.2969C151.648 28.375 150.961 28.7812 150.961 29.625ZM162.008 32.1719C159.602 32.1719 158.039 30.4219 158.039 27.7969C158.039 25.1562 159.602 23.4062 162.008 23.4062C164.398 23.4062 165.961 25.1562 165.961 27.7969C165.961 30.4219 164.398 32.1719 162.008 32.1719ZM162.008 30.7812C163.539 30.7812 164.273 29.4219 164.273 27.7969C164.273 26.1719 163.539 24.7812 162.008 24.7812C160.445 24.7812 159.711 26.1719 159.711 27.7969C159.711 29.4219 160.445 30.7812 162.008 30.7812ZM179.914 30.4062V31.6562H167.102V30.4062H172.742V27.9531H168.664V23.5H176.883V21.5312H168.633V20.3125H178.352V24.6875H170.133V26.7344H178.68V27.9531H174.211V30.4062H179.914ZM196.867 19.3281V33.3281H195.461V19.3281H196.867ZM194.008 19.6875V32.6406H192.602V27.875H190.211V26.6562H192.602V24.375H190.445C189.766 26.7266 188.273 28.7656 185.633 30.3438L184.758 29.2812C187.727 27.5156 189.156 25.1641 189.414 22.2812H185.445V21.0625H190.883C190.883 21.7812 190.828 22.4766 190.711 23.1562H192.602V19.6875H194.008ZM211.461 26.2812V27.5H198.664V26.2812H204.305V24.2344H205.773V26.2812H211.461ZM205.789 20.1406C205.789 21.9219 207.977 23.4844 210.68 23.8281L210.102 25C207.875 24.6484 205.914 23.5625 205.039 22.0156C204.141 23.5625 202.18 24.6484 199.945 25L199.398 23.8281C202.086 23.4844 204.273 21.9062 204.289 20.1406V19.5469H205.789V20.1406ZM209.867 28.7344V33.3281H208.367V29.9062H200.086V28.7344H209.867ZM223.398 19.3281V25H225.648V26.2344H223.398V33.3281H221.93V19.3281H223.398ZM220.711 21.5156V22.7344H212.414V21.5156H215.867V19.5156H217.352V21.5156H220.711ZM216.617 23.7656C218.617 23.7656 220.086 25.1094 220.102 27.0156C220.086 28.9375 218.617 30.2656 216.617 30.2812C214.602 30.2656 213.133 28.9375 213.133 27.0156C213.133 25.1094 214.602 23.7656 216.617 23.7656ZM216.617 24.9844C215.43 24.9844 214.539 25.8125 214.555 27.0156C214.539 28.2344 215.43 29.0469 216.617 29.0312C217.805 29.0469 218.68 28.2344 218.68 27.0156C218.68 25.8125 217.805 24.9844 216.617 24.9844ZM237.961 19.3281V33.3281H236.461V19.3281H237.961ZM233.789 20.8281C233.789 24.9219 232.039 28.4844 227.242 30.7812L226.461 29.5781C230.188 27.8047 232 25.2812 232.289 22.0156H227.133V20.8281H233.789Z" fill="#141517"/>
<path d="M26.9785 16.0625C28.8625 16.0625 30.6049 16.4292 32.2059 17.1625C33.8069 17.8958 35.0726 18.893 36.0029 20.154C36.9333 21.4149 37.3984 22.7904 37.3984 24.2804C37.3984 25.7703 36.9333 27.1477 36.0029 28.4126C35.0726 29.6775 33.8088 30.6766 32.2117 31.4099C30.6146 32.1432 28.8702 32.5099 26.9785 32.5099C26.3816 32.5099 25.7652 32.4672 25.1294 32.3818C22.3694 34.2985 20.9002 35.2685 20.7219 35.2918C20.6366 35.3229 20.5552 35.3189 20.4777 35.2802C20.4467 35.2569 20.4234 35.2258 20.4079 35.187C20.3924 35.1482 20.3847 35.1133 20.3847 35.0823V35.0357C20.4312 34.7331 20.7839 33.4721 21.4429 31.2527C19.9466 30.5078 18.7585 29.5203 17.8785 28.2903C16.9986 27.0604 16.5586 25.7237 16.5586 24.2804C16.5586 22.7904 17.0238 21.4149 17.9541 20.154C18.8845 18.893 20.1501 17.8958 21.7511 17.1625C23.3521 16.4292 25.0946 16.0625 26.9785 16.0625Z" fill="#181600"/>
</svg>
