<svg width="316" height="77" viewBox="0 0 316 77" fill="none" xmlns="http://www.w3.org/2000/svg">
<g filter="url(#filter0_d_1153_4366)">
<rect x="4" y="4" width="308" height="69" rx="10" fill="white"/>
</g>
<path d="M50.877 24.0879V32.1406H45.1348V24.0879H50.877ZM46.4199 25.1133V31.0879H49.6191V25.1133H46.4199ZM54.5957 22.9121V35.1895H53.2969V22.9121H54.5957ZM66.1758 22.8984V26.5625H67.9531V27.6562H66.1758V31.9082H64.877V22.8984H66.1758ZM66.6953 33.8496V34.9023H58.4102V30.9648H59.709V33.8496H66.6953ZM59.9961 23.7461C61.8418 23.7461 63.25 25.0039 63.2637 26.7949C63.25 28.5723 61.8418 29.8438 59.9961 29.8438C58.1504 29.8438 56.7285 28.5723 56.7422 26.7949C56.7285 25.0039 58.1504 23.7461 59.9961 23.7461ZM59.9961 24.8809C58.875 24.8809 58 25.6602 58.0137 26.7949C58 27.9297 58.875 28.709 59.9961 28.709C61.1309 28.709 61.9922 27.9297 61.9922 26.7949C61.9922 25.6602 61.1309 24.8809 59.9961 24.8809ZM79.0957 22.9258V30.5H77.8652V27.2734H76.4707V30.3223H75.2539V23.1035H76.4707V26.2207H77.8652V22.9258H79.0957ZM74.7754 24.2383V25.2773H68.582V24.2383H71.0566V22.9668H72.3418V24.2383H74.7754ZM71.6855 25.8242C73.2441 25.8242 74.3379 26.6582 74.3379 27.9434C74.3379 29.2012 73.2441 30.0488 71.6855 30.0488C70.1543 30.0488 69.0605 29.2012 69.0605 27.9434C69.0605 26.6582 70.1543 25.8242 71.6855 25.8242ZM71.6855 26.7812C70.8242 26.7812 70.2227 27.2188 70.2227 27.9434C70.2227 28.6406 70.8242 29.0918 71.6855 29.0918C72.5742 29.0918 73.1621 28.6406 73.1621 27.9434C73.1621 27.2188 72.5605 26.7812 71.6855 26.7812ZM73.1074 31.2246C73.0938 32.2295 73.6064 33.2617 74.707 33.877C75.8076 33.2139 76.3477 32.1064 76.3477 31.2246V30.8555H77.6328V31.2246C77.6328 32.4004 78.4805 33.5762 80.0664 34.0273L79.4512 35.0117C78.2344 34.6152 77.4072 33.8223 76.9902 32.8516C76.5938 33.7949 75.8623 34.6768 74.7344 35.1211C73.5654 34.6973 72.8271 33.8701 72.4512 32.9062C72 33.8359 71.1729 34.6084 70.0176 35.0117L69.4023 34.0273C70.9609 33.5352 71.8223 32.332 71.8359 31.2246V30.8555H73.1074V31.2246ZM87.0938 23.8691V24.9355H82.7598V29.0371C84.8105 29.0303 86.1846 28.9688 87.75 28.668L87.8867 29.7207C86.1777 30.0215 84.7012 30.1035 82.418 30.1035H81.4746V23.8691H87.0938ZM90.9629 22.9258V31.8535H89.6641V27.2871H86.3281V26.248H89.6641V22.9258H90.9629ZM91.2773 33.918V34.9707H82.9785V31.1562H84.291V33.918H91.2773ZM102.461 24.1289V32.0859H96.7324V24.1289H102.461ZM98.0039 25.1543V31.0332H101.176V25.1543H98.0039ZM105.811 22.9121V27.7109H107.779V28.8047H105.811V35.1621H104.512V22.9121H105.811ZM113.945 23.1719C116.639 23.1719 118.32 24.0469 118.32 25.5234C118.32 26.9727 116.639 27.834 113.945 27.834C111.266 27.834 109.57 26.9727 109.57 25.5234C109.57 24.0469 111.266 23.1719 113.945 23.1719ZM113.945 24.1973C112.059 24.1973 110.896 24.6758 110.91 25.5234C110.896 26.3438 112.059 26.8086 113.945 26.8223C115.818 26.8086 116.98 26.3438 116.98 25.5234C116.98 24.6758 115.818 24.1973 113.945 24.1973ZM118.17 30.9238V35.0117H109.707V30.9238H118.17ZM110.992 31.9629V33.959H116.912V31.9629H110.992ZM119.537 28.7773V29.8301H108.367V28.7773H119.537ZM126.045 23.1172C128.807 23.1172 130.42 23.8555 130.42 25.2227C130.42 26.5898 128.807 27.3418 126.045 27.3418C123.283 27.3418 121.67 26.5898 121.67 25.2227C121.67 23.8555 123.283 23.1172 126.045 23.1172ZM126.045 24.0742C124.09 24.0742 123.01 24.498 123.023 25.2227C123.01 25.9746 124.09 26.3711 126.045 26.3711C128 26.3711 129.08 25.9746 129.08 25.2227C129.08 24.498 128 24.0742 126.045 24.0742ZM131.637 28.0938V29.1328H120.467V28.0938H131.637ZM130.229 30.0762V32.9473H123.092V34.041H130.57V35.0391H121.82V32.0039H128.943V31.0469H121.807V30.0762H130.229ZM147.154 28.8867V29.9395H135.984V28.8867H138.664V27.2324C137.721 26.8496 137.188 26.2344 137.188 25.4277C137.188 23.9785 138.869 23.1309 141.562 23.1309C144.242 23.1309 145.938 23.9785 145.938 25.4277C145.938 26.2344 145.397 26.8564 144.447 27.2324V28.8867H147.154ZM141.562 30.7734C144.201 30.7734 145.787 31.5527 145.787 32.9473C145.787 34.3691 144.201 35.1348 141.562 35.1348C138.896 35.1348 137.311 34.3691 137.311 32.9473C137.311 31.5527 138.896 30.7734 141.562 30.7734ZM141.562 31.7715C139.689 31.7715 138.623 32.1953 138.623 32.9473C138.623 33.7129 139.689 34.1504 141.562 34.1367C143.408 34.1504 144.488 33.7129 144.488 32.9473C144.488 32.1953 143.408 31.7715 141.562 31.7715ZM141.562 24.1289C139.662 24.1289 138.514 24.6074 138.527 25.4277C138.514 26.248 139.662 26.7129 141.562 26.7129C143.463 26.7129 144.598 26.248 144.598 25.4277C144.598 24.6074 143.463 24.1289 141.562 24.1289ZM139.977 28.8867H143.162V27.5742C142.684 27.6562 142.144 27.6973 141.562 27.6973C140.988 27.6973 140.455 27.6562 139.977 27.5879V28.8867ZM158.27 22.9121V35.1621H156.957V22.9121H158.27ZM154.619 24.2246C154.619 27.8066 153.088 30.9238 148.891 32.9336L148.207 31.8809C151.468 30.3291 153.054 28.1211 153.307 25.2637H148.795V24.2246H154.619ZM174.088 22.9121V35.1621H172.844V28.8867H171.271V34.5332H170.055V23.1582H171.271V27.8203H172.844V22.9121H174.088ZM165.475 24.3613V30.8965C166.609 30.8896 167.847 30.8008 169.234 30.5273L169.371 31.6621C167.689 31.9629 166.281 32.0449 164.969 32.0449H164.176V24.3613H165.475ZM179.023 23.8281C180.685 23.8281 181.901 25.2363 182.1 27.5059H184.629V22.9121H185.914V35.1895H184.629V28.5586H182.113C181.97 30.9443 180.726 32.4277 179.023 32.4277C177.191 32.4277 175.906 30.7598 175.92 28.1211C175.906 25.4961 177.191 23.8281 179.023 23.8281ZM179.023 24.9902C177.916 24.9902 177.15 26.1934 177.15 28.1211C177.15 30.0625 177.916 31.2656 179.023 31.2656C180.131 31.2656 180.896 30.0625 180.896 28.1211C180.896 26.1934 180.131 24.9902 179.023 24.9902ZM201.432 22.9258V31.8945H200.133V27.2871H197.795V26.2344H200.133V22.9258H201.432ZM201.76 33.8496V34.9023H193.475V31.0879H194.773V33.8496H201.76ZM195.607 25.4004C195.607 26.9316 196.715 28.4629 198.561 29.0781L197.891 30.1172C196.517 29.6318 195.498 28.6475 194.965 27.4375C194.432 28.7842 193.358 29.8711 191.902 30.3906L191.232 29.3379C193.119 28.6953 194.281 27.082 194.281 25.4004V24.9219H191.629V23.8555H198.232V24.9219H195.607V25.4004ZM212.861 22.9121V27.875H214.83V28.9551H212.861V35.1621H211.576V22.9121H212.861ZM210.51 24.8262V25.8926H203.25V24.8262H206.271V23.0762H207.57V24.8262H210.51ZM206.928 26.7949C208.678 26.7949 209.963 27.9707 209.977 29.6387C209.963 31.3203 208.678 32.4824 206.928 32.4961C205.164 32.4824 203.879 31.3203 203.879 29.6387C203.879 27.9707 205.164 26.7949 206.928 26.7949ZM206.928 27.8613C205.889 27.8613 205.109 28.5859 205.123 29.6387C205.109 30.7051 205.889 31.416 206.928 31.4023C207.967 31.416 208.732 30.7051 208.732 29.6387C208.732 28.5859 207.967 27.8613 206.928 27.8613ZM221.584 24.0879V25.7969H224.346V22.9121H225.631V35.1895H224.346V30.2129H221.584V32.0996H215.896V24.0879H221.584ZM217.182 25.0996V31.0605H220.312V25.0996H217.182ZM221.584 29.1602H224.346V26.8633H221.584V29.1602ZM229.719 33.0566L228.625 36.8301H227.463L228.188 33.0566H229.719ZM244.061 22.9121V27.6562H246.029V28.7227H244.061V35.1895H242.762V22.9121H244.061ZM240.766 24.0879V25.1406H236.336V31.0605C238.394 31.0537 239.938 30.9648 241.682 30.6504L241.846 31.7441C239.932 32.0859 238.305 32.1543 236.021 32.1406H235.037V24.0879H240.766ZM251.115 26.0293C251.102 28.2715 252.455 30.5137 254.355 31.3613L253.576 32.3867C252.168 31.7168 251.054 30.3428 250.486 28.668C249.912 30.459 248.784 31.9424 247.314 32.6602L246.521 31.5664C248.449 30.7051 249.803 28.3672 249.803 26.0293V23.9375H251.115V26.0293ZM256.762 22.9121V35.1895H255.463V22.9121H256.762ZM272.676 22.9121V35.1621H271.432V22.9121H272.676ZM270.215 23.1445V34.5605H268.984V30.6094H267.207C266.77 31.8262 265.956 32.5303 264.91 32.5234C263.311 32.5371 262.271 30.8555 262.271 28.2031C262.271 25.5508 263.311 23.8828 264.91 23.8965C265.956 23.8896 266.763 24.5869 267.207 25.7969H268.984V23.1445H270.215ZM264.91 25.1133C264.008 25.1133 263.461 26.248 263.461 28.2031C263.461 30.1582 264.008 31.293 264.91 31.293C265.812 31.293 266.387 30.1582 266.387 28.2031C266.387 26.248 265.812 25.1133 264.91 25.1133ZM267.48 26.8496C267.542 27.2666 267.576 27.7178 267.576 28.2031C267.576 28.6816 267.542 29.1328 267.48 29.543H268.984V26.8496H267.48ZM284.447 22.9258V31.8945H283.148V27.2871H280.811V26.2344H283.148V22.9258H284.447ZM284.775 33.8496V34.9023H276.49V31.0879H277.789V33.8496H284.775ZM278.623 25.4004C278.623 26.9316 279.73 28.4629 281.576 29.0781L280.906 30.1172C279.532 29.6318 278.514 28.6475 277.98 27.4375C277.447 28.7842 276.374 29.8711 274.918 30.3906L274.248 29.3379C276.135 28.6953 277.297 27.082 277.297 25.4004V24.9219H274.645V23.8555H281.248V24.9219H278.623V25.4004ZM54.6777 42.9121V55.1895H53.3789V48.8184H50.8496V47.7656H53.3789V42.9121H54.6777ZM48.7988 46.8496C48.7988 48.791 50.043 50.7734 51.9297 51.6074L51.2051 52.6055C49.8037 51.9834 48.7236 50.7051 48.1836 49.1602C47.6436 50.7939 46.5703 52.1611 45.1621 52.8105L44.4512 51.8125C46.3105 50.9648 47.5137 48.873 47.5137 46.8496V46.043H44.793V45.0039H47.5273V43.1582H48.8262V45.0039H51.4785V46.043H48.7988V46.8496ZM66.7637 50.7461V55.0117H58.6289V50.7461H66.7637ZM59.9141 51.7578V53.959H65.4785V51.7578H59.9141ZM66.7637 42.9258V50.1172H65.4648V46.6582H63.25V45.5918H65.4648V42.9258H66.7637ZM62.5254 43.5137V47.0273H58.3418V48.5996C60.3037 48.6064 61.7598 48.5312 63.4961 48.2578L63.6055 49.3242C61.7461 49.625 60.1738 49.666 58.0137 49.666H57.0566V46.043H61.2676V44.5801H57.043V43.5137H62.5254ZM76.5801 46.5215C76.5801 48.5723 77.9199 50.6914 79.8066 51.498L79.0957 52.5098C77.6533 51.874 76.5049 50.5273 75.9375 48.8867C75.3701 50.6367 74.2148 52.127 72.793 52.8242L72.041 51.7988C73.8867 50.9375 75.2539 48.627 75.2676 46.5215V45.2227H72.4648V44.1426H79.3691V45.2227H76.5801V46.5215ZM82.2129 42.9121V55.1621H80.9141V42.9121H82.2129ZM94.6543 42.9121V55.1621H93.4102V48.8867H91.8379V54.5332H90.6211V43.1582H91.8379V47.8203H93.4102V42.9121H94.6543ZM86.041 44.3613V50.8965C87.1758 50.8896 88.4131 50.8008 89.8008 50.5273L89.9375 51.6621C88.2559 51.9629 86.8477 52.0449 85.5352 52.0449H84.7422V44.3613H86.041ZM106.18 44.0879V45.291C106.18 46.8086 106.18 48.5039 105.715 51.0059L104.402 50.8691C104.881 48.5039 104.881 46.7676 104.881 45.291V45.1406H97.4434V44.0879H106.18ZM107.438 52.4277V53.5078H96.2676V52.4277H100.52V48.1074H101.805V52.4277H107.438ZM118.484 43.5V44.5391H116.707V47.123H118.43V48.1621H109.447V47.123H111.184V44.5391H109.393V43.5H118.484ZM119.537 49.3789V50.4316H108.367V49.3789H119.537ZM118.279 53.8496V54.9023H109.775V51.457H111.088V53.8496H118.279ZM112.469 47.123H115.408V44.5391H112.469V47.123ZM133.51 42.9121V46.5352H135.287V47.6152H133.51V51.8125H132.197V42.9121H133.51ZM130.188 43.8418C130.188 47.0547 128 49.3926 124.418 50.4727L123.871 49.4336C126.735 48.5723 128.52 46.9453 128.779 44.9219H124.391V43.8418H130.188ZM134.016 53.8496V54.9023H125.73V50.8965H127.043V53.8496H134.016ZM140.332 44.7578C140.332 46.1523 141.453 47.5332 143.271 48.0801L142.656 49.1055C141.255 48.6748 140.229 47.7656 139.703 46.6309C139.143 47.8955 138.062 48.9209 136.627 49.3926L135.984 48.3672C137.83 47.752 139.033 46.2344 139.033 44.7441V44.5527H136.367V43.5H142.971V44.5527H140.332V44.7578ZM146.184 42.9121V49.2148H144.898V46.6309H142.615V45.5781H144.898V42.9121H146.184ZM146.184 49.7754V52.8379H139.498V54H146.621V55.0254H138.199V51.8535H144.898V50.8145H138.172V49.7754H146.184ZM157.709 42.9258V46.8633H159.486V47.9434H157.709V52.0859H156.41V42.9258H157.709ZM155.398 44.3477V45.4004H148.098V44.3477H151.105V42.9121H152.404V44.3477H155.398ZM151.748 45.9883C153.512 45.9883 154.715 46.9043 154.715 48.2988C154.715 49.6934 153.512 50.5957 151.748 50.5957C149.971 50.5957 148.768 49.6934 148.768 48.2988C148.768 46.9043 149.971 45.9883 151.748 45.9883ZM151.748 46.9863C150.709 46.9863 150.012 47.4922 150.025 48.2988C150.012 49.0918 150.709 49.584 151.748 49.584C152.787 49.584 153.484 49.0918 153.498 48.2988C153.484 47.4922 152.787 46.9863 151.748 46.9863ZM158.229 53.8496V54.9023H149.943V51.3613H151.242V53.8496H158.229ZM173.814 42.9121V52.0039H172.516V48.627H170.602V47.5332H172.516V46.248H170.602V45.1816H172.516V42.9121H173.814ZM170.465 43.8691V44.9219H169.289V49.0234C169.809 48.9824 170.308 48.9414 170.793 48.8867L170.848 49.8438C168.496 50.2129 165.748 50.2539 163.779 50.2676L163.615 49.1738C164.073 49.1738 164.579 49.1738 165.105 49.1602V44.9219H163.957V43.8691H170.465ZM174.129 53.8496V54.9023H165.83V51.2656H167.143V53.8496H174.129ZM166.363 49.1465C166.917 49.1328 167.478 49.1191 168.045 49.0918V44.9219H166.363V49.1465ZM180.213 46.5215C180.213 48.5723 181.553 50.6914 183.439 51.498L182.729 52.5098C181.286 51.874 180.138 50.5273 179.57 48.8867C179.003 50.6367 177.848 52.127 176.426 52.8242L175.674 51.7988C177.52 50.9375 178.887 48.627 178.9 46.5215V45.2227H176.098V44.1426H183.002V45.2227H180.213V46.5215ZM185.846 42.9121V55.1621H184.547V42.9121H185.846Z" fill="#555557"/>
<path d="M32.3715 42.741C32.5313 42.7412 32.6864 42.7946 32.8123 42.893C32.9382 42.9914 33.0277 43.129 33.0664 43.284L33.3446 44.3957L34.4573 44.6738C34.6124 44.7127 34.75 44.8022 34.8483 44.9282C34.9466 45.0542 35 45.2094 35 45.3692C35 45.529 34.9466 45.6843 34.8483 45.8103C34.75 45.9363 34.6124 46.0258 34.4573 46.0646L33.3446 46.3428L33.0674 47.4555C33.0289 47.6109 32.9394 47.749 32.8133 47.8477C32.6872 47.9464 32.5316 48 32.3715 48C32.2113 48 32.0558 47.9464 31.9296 47.8477C31.8035 47.749 31.7141 47.6109 31.6755 47.4555L31.3983 46.3428L30.2856 46.0656C30.1301 46.0271 29.9921 45.9376 29.8934 45.8115C29.7947 45.6854 29.741 45.5299 29.741 45.3697C29.741 45.2096 29.7947 45.054 29.8934 44.9279C29.9921 44.8018 30.1301 44.7123 30.2856 44.6738L31.3974 44.3966L31.6755 43.284C31.7144 43.1288 31.8039 42.9911 31.93 42.8927C32.0561 42.7943 32.2115 42.7409 32.3715 42.741ZM18.1318 29.6043C18.4166 28.7717 19.6469 28.7995 19.8697 29.6875L20.1526 30.8231L21.2883 31.107C22.206 31.3364 22.206 32.6392 21.2883 32.8677L20.1526 33.1516L19.8697 34.2872C19.6402 35.2048 18.3373 35.2048 18.1079 34.2872L17.8239 33.1516L16.6883 32.8677C15.7706 32.6383 15.7706 31.3364 16.6883 31.107L17.8239 30.8231L18.1079 29.6875L18.1318 29.6043ZM18.9883 31.7933C18.9333 31.867 18.8679 31.9323 18.7942 31.9873C18.8679 32.0423 18.9333 32.1077 18.9883 32.1814C19.0433 32.1077 19.1087 32.0423 19.1823 31.9873C19.1086 31.932 19.0432 31.8673 18.9883 31.7933ZM30.2091 30.7705C30.4422 30.5376 30.7582 30.4068 31.0876 30.4068C31.4171 30.4068 31.7331 30.5376 31.9662 30.7705L33.5884 32.3926C33.8213 32.6256 33.9521 32.9416 33.9521 33.2711C33.9521 33.6005 33.8213 33.9165 33.5884 34.1495L31.7635 35.9753L28.3833 32.5953L30.2091 30.7705ZM22.6381 45.1002C22.5714 45.1665 22.4866 45.2118 22.3943 45.2302L19.0141 45.906C18.937 45.9213 18.8573 45.9174 18.7821 45.8946C18.7068 45.8718 18.6384 45.8308 18.5828 45.7752C18.5272 45.7196 18.4862 45.6512 18.4634 45.5759C18.4405 45.5007 18.4366 45.421 18.452 45.3439L19.1278 41.9649C19.1463 41.8721 19.1919 41.787 19.2588 41.7201L27.7074 33.2711L31.0876 36.6511L22.6381 45.1002Z" fill="#C2C4C7"/>
<defs>
<filter id="filter0_d_1153_4366" x="0" y="0" width="316" height="77" filterUnits="userSpaceOnUse" color-interpolation-filters="sRGB">
<feFlood flood-opacity="0" result="BackgroundImageFix"/>
<feColorMatrix in="SourceAlpha" type="matrix" values="0 0 0 0 0 0 0 0 0 0 0 0 0 0 0 0 0 0 127 0" result="hardAlpha"/>
<feOffset/>
<feGaussianBlur stdDeviation="2"/>
<feComposite in2="hardAlpha" operator="out"/>
<feColorMatrix type="matrix" values="0 0 0 0 0 0 0 0 0 0 0 0 0 0 0 0 0 0 0.15 0"/>
<feBlend mode="normal" in2="BackgroundImageFix" result="effect1_dropShadow_1153_4366"/>
<feBlend mode="normal" in="SourceGraphic" in2="effect1_dropShadow_1153_4366" result="shape"/>
</filter>
</defs>
</svg>
