<svg width="316" height="77" viewBox="0 0 316 77" fill="none" xmlns="http://www.w3.org/2000/svg">
<g filter="url(#filter0_d_1149_4304)">
<rect x="4" y="4" width="308" height="69" rx="10" fill="white"/>
</g>
<path d="M55.6621 32.5645V33.6445H44.4512V32.5645H49.3867V30.0488H45.7363V23.7461H47.0352V25.8516H53.0508V23.7461H54.3359V30.0488H50.6719V32.5645H55.6621ZM47.0352 28.9961H53.0508V26.9043H47.0352V28.9961ZM66.4629 24.0879V25.291C66.4629 26.8086 66.4629 28.5039 65.998 31.0059L64.6855 30.8691C65.1641 28.5039 65.1641 26.7676 65.1641 25.291V25.1406H57.7266V24.0879H66.4629ZM67.7207 32.4277V33.5078H56.5508V32.4277H60.8027V28.1074H62.0879V32.4277H67.7207ZM82.2266 22.9258V29.7207H80.9277V22.9258H82.2266ZM76.5254 24.5527C76.5117 26.1797 77.7012 27.6699 79.5742 28.2441L78.9453 29.2695C77.5029 28.8047 76.4297 27.8408 75.8691 26.5898C75.3154 27.9365 74.2217 28.9961 72.752 29.4883L72.1094 28.4629C74.0234 27.834 75.1992 26.248 75.1992 24.5527V23.3633H76.5254V24.5527ZM82.3086 30.3906V31.4297H80.6953V33.959H82.4316V35.0117H73.9004V33.959H75.6504V31.4297H74.0098V30.3906H82.3086ZM76.9355 33.959H79.4102V31.4297H76.9355V33.959ZM95.3379 29.3105V30.3496H84.168V29.3105H95.3379ZM94.0801 33.8496V34.9023H85.5762V31.3477H86.8887V33.8496H94.0801ZM89.7461 23.3223C92.3984 23.3086 94.1211 24.2383 94.1211 25.7695C94.1211 27.3145 92.3984 28.2441 89.7461 28.2578C87.0801 28.2441 85.3711 27.3145 85.3711 25.7695C85.3711 24.2383 87.0801 23.3086 89.7461 23.3223ZM89.7461 24.3613C87.873 24.3613 86.6973 24.8945 86.7109 25.7695C86.6973 26.6719 87.873 27.1914 89.7461 27.1914C91.6191 27.1914 92.7812 26.6719 92.7812 25.7695C92.7812 24.8945 91.6191 24.3613 89.7461 24.3613ZM105.879 24.1289V32.0859H100.15V24.1289H105.879ZM101.422 25.1543V31.0332H104.594V25.1543H101.422ZM109.229 22.9121V27.7109H111.197V28.8047H109.229V35.1621H107.93V22.9121H109.229ZM117.363 23.1719C120.057 23.1719 121.738 24.0469 121.738 25.5234C121.738 26.9727 120.057 27.834 117.363 27.834C114.684 27.834 112.988 26.9727 112.988 25.5234C112.988 24.0469 114.684 23.1719 117.363 23.1719ZM117.363 24.1973C115.477 24.1973 114.314 24.6758 114.328 25.5234C114.314 26.3438 115.477 26.8086 117.363 26.8223C119.236 26.8086 120.398 26.3438 120.398 25.5234C120.398 24.6758 119.236 24.1973 117.363 24.1973ZM121.588 30.9238V35.0117H113.125V30.9238H121.588ZM114.41 31.9629V33.959H120.33V31.9629H114.41ZM122.955 28.7773V29.8301H111.785V28.7773H122.955ZM130.707 24.2246V24.9766C130.707 26.002 130.707 27.5879 130.352 29.7754L129.066 29.6797C129.374 27.7178 129.408 26.3027 129.422 25.2773H124.445V24.2246H130.707ZM127.562 27.7246V31.3887C128.868 31.3477 130.194 31.2588 131.418 31.1016L131.486 32.0723C128.93 32.4824 126.086 32.5371 123.912 32.5234L123.762 31.4707C124.527 31.4639 125.382 31.457 126.277 31.4297V27.7246H127.562ZM133.428 22.9121V27.9707H135.301V29.0781H133.428V35.1621H132.115V22.9121H133.428ZM149.109 24.1562V25.4688C149.109 27.0547 149.109 28.7773 148.658 31.3887L147.332 31.2656C147.824 28.8184 147.824 27.0137 147.824 25.4688V25.2227H140.605V24.1562H149.109ZM150.572 32.3457V33.4258H139.402V32.3457H150.572ZM161.674 22.9121V35.1895H160.375V22.9121H161.674ZM157.928 24.0195V28.4902H153.525V31.1699C155.508 31.1631 157.244 31.0742 159.295 30.7324L159.418 31.7988C157.244 32.168 155.398 32.25 153.238 32.25H152.199V27.4512H156.602V25.0723H152.186V24.0195H157.928ZM169.18 23.1172C171.873 23.1172 173.555 23.9785 173.555 25.4551C173.555 26.8906 171.873 27.752 169.18 27.752C166.5 27.752 164.805 26.8906 164.805 25.4551C164.805 23.9785 166.5 23.1172 169.18 23.1172ZM169.18 24.1289C167.293 24.1289 166.131 24.6074 166.145 25.4551C166.131 26.2754 167.293 26.7402 169.18 26.7402C171.053 26.7402 172.215 26.2754 172.215 25.4551C172.215 24.6074 171.053 24.1289 169.18 24.1289ZM173.404 30.9238V35.0117H164.941V30.9238H168.537V29.6387H163.602V28.5859H174.771V29.6387H169.822V30.9238H173.404ZM166.227 31.9629V33.959H172.146V31.9629H166.227ZM181.279 23.1172C184.041 23.1172 185.654 23.8555 185.654 25.2227C185.654 26.5898 184.041 27.3418 181.279 27.3418C178.518 27.3418 176.904 26.5898 176.904 25.2227C176.904 23.8555 178.518 23.1172 181.279 23.1172ZM181.279 24.0742C179.324 24.0742 178.244 24.498 178.258 25.2227C178.244 25.9746 179.324 26.3711 181.279 26.3711C183.234 26.3711 184.314 25.9746 184.314 25.2227C184.314 24.498 183.234 24.0742 181.279 24.0742ZM186.871 28.0938V29.1328H175.701V28.0938H186.871ZM185.463 30.0762V32.9473H178.326V34.041H185.805V35.0391H177.055V32.0039H184.178V31.0469H177.041V30.0762H185.463ZM200.844 22.9121V25.8242H202.621V26.9043H200.844V29.8301H199.545V22.9121H200.844ZM197.207 23.7188V24.7715H193.051V28.1484C195.437 28.1416 196.783 28.0527 198.314 27.752L198.465 28.791C196.811 29.1465 195.361 29.2012 192.736 29.2012H191.766V23.7188H197.207ZM200.844 30.4316V34.998H193.023V30.4316H200.844ZM194.295 31.4707V33.959H199.559V31.4707H194.295ZM206.6 23.8281C208.432 23.8281 209.73 25.4961 209.744 28.1211C209.73 30.7598 208.432 32.4277 206.6 32.4277C204.768 32.4277 203.455 30.7598 203.469 28.1211C203.455 25.4961 204.768 23.8281 206.6 23.8281ZM206.6 24.9902C205.479 24.9902 204.713 26.1934 204.713 28.1211C204.713 30.0625 205.479 31.2656 206.6 31.2656C207.734 31.2656 208.5 30.0625 208.5 28.1211C208.5 26.1934 207.734 24.9902 206.6 24.9902ZM212.861 22.9121V27.7109H214.83V28.8047H212.861V35.1621H211.562V22.9121H212.861ZM217.619 33.0566L216.525 36.8301H215.363L216.088 33.0566H217.619ZM231.961 22.9121V27.6562H233.93V28.7227H231.961V35.1895H230.662V22.9121H231.961ZM228.666 24.0879V25.1406H224.236V31.0605C226.294 31.0537 227.839 30.9648 229.582 30.6504L229.746 31.7441C227.832 32.0859 226.205 32.1543 223.922 32.1406H222.938V24.0879H228.666ZM239.016 26.0293C239.002 28.2715 240.355 30.5137 242.256 31.3613L241.477 32.3867C240.068 31.7168 238.954 30.3428 238.387 28.668C237.812 30.459 236.685 31.9424 235.215 32.6602L234.422 31.5664C236.35 30.7051 237.703 28.3672 237.703 26.0293V23.9375H239.016V26.0293ZM244.662 22.9121V35.1895H243.363V22.9121H244.662ZM256.242 23.9922V29.707H250.514V23.9922H256.242ZM251.785 25.0449V28.6816H254.971V25.0449H251.785ZM259.66 22.8984V26.5625H261.438V27.6562H259.66V31.8809H258.361V22.8984H259.66ZM260.18 33.8496V34.9023H251.895V31.0195H253.193V33.8496H260.18ZM273.578 27.7246V28.791H271.678V35.1484H270.379V22.9121H271.678V27.7246H273.578ZM263.885 24.1016V30.9922C265.594 30.9922 267.378 30.8486 269.326 30.4453L269.477 31.5391C267.385 31.9629 265.443 32.0723 263.611 32.0723H262.6V24.1016H263.885ZM284.393 22.9121V29.1465H283.094V22.9121H284.393ZM280.715 23.459C280.701 26.6719 278.609 28.5723 274.904 29.3926L274.426 28.3398C277.495 27.6973 279.095 26.3232 279.293 24.5254H275.068V23.459H280.715ZM284.393 29.6934V32.7695H277.666V34.0137H284.803V35.0391H276.381V31.7988H283.094V30.7188H276.34V29.6934H284.393ZM53.9941 42.9121V47.6562H55.9629V48.75H53.9941V55.1621H52.6953V42.9121H53.9941ZM46.2012 43.9375V47.082H49.4414V43.9375H50.7266V52.25H44.916V43.9375H46.2012ZM46.2012 51.1836H49.4414V48.1074H46.2012V51.1836ZM66.0938 42.9121V47.6973H68.0625V48.791H66.0938V55.1895H64.8086V42.9121H66.0938ZM62.6348 44.0195V48.5176H58.3418V51.1699C60.4473 51.1631 62.0059 51.0879 63.7969 50.7598L63.9199 51.8125C62.0059 52.168 60.3516 52.25 58.0547 52.2637H57.0566V47.4648H61.3496V45.0723H57.0293V44.0195H62.6348ZM78.5625 46.4941V47.5332H70.127V43.3496H71.4121V46.4941H78.5625ZM79.8477 49.0781V50.1172H68.6367V49.0781H79.8477ZM78.6445 53.8086V54.875H70.0312V51.2793H71.3301V53.8086H78.6445ZM94.3262 42.9258V51.9492H93.0273V42.9258H94.3262ZM94.6953 53.8496V54.9023H86.3145V51.1152H87.627V53.8496H94.6953ZM88.7207 45.7695C88.7207 47.3008 89.8965 48.7227 91.7969 49.2832L91.168 50.3086C89.7324 49.8643 88.6523 48.9414 88.1055 47.752C87.5518 49.0439 86.4717 50.0488 85.0156 50.5137L84.373 49.502C86.2734 48.9004 87.4219 47.3965 87.4219 45.7695V45.5234H84.7012V44.4844H87.4219V42.9668H88.7344V44.4844H91.4277V45.5234H88.7207V45.7695ZM106.016 43.6777V44.7578C106.016 45.9199 106.016 47.1777 105.674 48.9277H107.438V49.9941H102.475V55.1758H101.162V49.9941H96.2676V48.9277H104.361C104.73 47.1846 104.73 45.8994 104.73 44.7578V44.7441H97.6348V43.6777H106.016ZM112.359 43.7871C114.301 43.7734 115.682 44.9766 115.695 46.6992C115.682 48.4219 114.301 49.625 112.359 49.625C110.432 49.625 109.01 48.4219 109.023 46.6992C109.01 44.9766 110.432 43.7734 112.359 43.7871ZM112.359 44.9082C111.17 44.9082 110.295 45.6191 110.309 46.6992C110.295 47.7793 111.17 48.4902 112.359 48.4902C113.549 48.4902 114.424 47.7793 114.424 46.6992C114.424 45.6191 113.549 44.9082 112.359 44.9082ZM118.498 42.9121V55.1895H117.199V42.9121H118.498ZM108.436 51.4707C110.664 51.4707 113.754 51.4434 116.434 51.0605L116.529 52.0039C113.754 52.5371 110.787 52.5508 108.6 52.5508L108.436 51.4707ZM126.66 43.8965C128.273 43.8828 129.326 45.5508 129.326 48.2031C129.326 50.8555 128.273 52.5371 126.66 52.5234C125.061 52.5371 124.021 50.8555 124.021 48.2031C124.021 45.5508 125.061 43.8828 126.66 43.8965ZM126.66 45.1133C125.771 45.1133 125.225 46.248 125.225 48.2031C125.225 50.1582 125.771 51.293 126.66 51.293C127.562 51.293 128.123 50.1582 128.123 48.2031C128.123 46.248 127.562 45.1133 126.66 45.1133ZM134.426 42.9121V55.1621H133.182V48.7773H131.664V54.5605H130.434V43.1445H131.664V47.7109H133.182V42.9121H134.426ZM146.197 42.9121V50.1992H144.898V47.0957H142.615V46.0293H144.898V42.9121H146.197ZM142.096 50.541C144.666 50.541 146.238 51.3887 146.238 52.8516C146.238 54.3145 144.666 55.1484 142.096 55.1621C139.525 55.1484 137.939 54.3145 137.953 52.8516C137.939 51.3887 139.525 50.541 142.096 50.541ZM142.096 51.5527C140.305 51.5527 139.238 52.0176 139.238 52.8516C139.238 53.6719 140.305 54.1504 142.096 54.1367C143.887 54.1504 144.953 53.6719 144.953 52.8516C144.953 52.0176 143.887 51.5527 142.096 51.5527ZM140.373 45.0723C140.373 46.6309 141.48 48.1348 143.326 48.7637L142.656 49.7891C141.282 49.3105 140.271 48.333 139.744 47.123C139.204 48.4971 138.131 49.5977 136.668 50.1309L135.984 49.0918C137.885 48.4355 139.047 46.7812 139.047 45.0859V44.8125H136.395V43.7598H142.998V44.8125H140.373V45.0723ZM154.824 43.8281C156.485 43.8281 157.702 45.2363 157.9 47.5059H160.43V42.9121H161.715V55.1895H160.43V48.5586H157.914C157.771 50.9443 156.526 52.4277 154.824 52.4277C152.992 52.4277 151.707 50.7598 151.721 48.1211C151.707 45.4961 152.992 43.8281 154.824 43.8281ZM154.824 44.9902C153.717 44.9902 152.951 46.1934 152.951 48.1211C152.951 50.0625 153.717 51.2656 154.824 51.2656C155.932 51.2656 156.697 50.0625 156.697 48.1211C156.697 46.1934 155.932 44.9902 154.824 44.9902ZM173.746 42.9258V51.9355H172.461V42.9258H173.746ZM174.088 53.8496V54.9023H165.652V51.2246H166.951V53.8496H174.088ZM169.85 43.7734V47.4238H165.516V49.1875C167.771 49.1807 169.303 49.1055 171.121 48.7773L171.258 49.8438C169.33 50.1855 167.703 50.2539 165.27 50.2539H164.244V46.4395H168.564V44.8125H164.217V43.7734H169.85ZM189.332 42.9121V52.0039H188.033V48.627H186.119V47.5332H188.033V46.248H186.119V45.1816H188.033V42.9121H189.332ZM185.982 43.8691V44.9219H184.807V49.0234C185.326 48.9824 185.825 48.9414 186.311 48.8867L186.365 49.8438C184.014 50.2129 181.266 50.2539 179.297 50.2676L179.133 49.1738C179.591 49.1738 180.097 49.1738 180.623 49.1602V44.9219H179.475V43.8691H185.982ZM189.646 53.8496V54.9023H181.348V51.2656H182.66V53.8496H189.646ZM181.881 49.1465C182.435 49.1328 182.995 49.1191 183.562 49.0918V44.9219H181.881V49.1465ZM195.73 46.5215C195.73 48.5723 197.07 50.6914 198.957 51.498L198.246 52.5098C196.804 51.874 195.655 50.5273 195.088 48.8867C194.521 50.6367 193.365 52.127 191.943 52.8242L191.191 51.7988C193.037 50.9375 194.404 48.627 194.418 46.5215V45.2227H191.615V44.1426H198.52V45.2227H195.73V46.5215ZM201.363 42.9121V55.1621H200.064V42.9121H201.363Z" fill="#555557"/>
<path d="M32.3715 42.741C32.5313 42.7412 32.6864 42.7946 32.8123 42.893C32.9382 42.9914 33.0277 43.129 33.0664 43.284L33.3446 44.3957L34.4573 44.6738C34.6124 44.7127 34.75 44.8022 34.8483 44.9282C34.9466 45.0542 35 45.2094 35 45.3692C35 45.529 34.9466 45.6843 34.8483 45.8103C34.75 45.9363 34.6124 46.0258 34.4573 46.0646L33.3446 46.3428L33.0674 47.4555C33.0289 47.6109 32.9394 47.749 32.8133 47.8477C32.6872 47.9464 32.5316 48 32.3715 48C32.2113 48 32.0558 47.9464 31.9296 47.8477C31.8035 47.749 31.7141 47.6109 31.6755 47.4555L31.3983 46.3428L30.2856 46.0656C30.1301 46.0271 29.9921 45.9376 29.8934 45.8115C29.7947 45.6854 29.741 45.5299 29.741 45.3697C29.741 45.2096 29.7947 45.054 29.8934 44.9279C29.9921 44.8018 30.1301 44.7123 30.2856 44.6738L31.3974 44.3966L31.6755 43.284C31.7144 43.1288 31.8039 42.9911 31.93 42.8927C32.0561 42.7943 32.2115 42.7409 32.3715 42.741ZM18.1318 29.6043C18.4166 28.7717 19.6469 28.7995 19.8697 29.6875L20.1526 30.8231L21.2883 31.107C22.206 31.3364 22.206 32.6392 21.2883 32.8677L20.1526 33.1516L19.8697 34.2872C19.6402 35.2048 18.3373 35.2048 18.1079 34.2872L17.8239 33.1516L16.6883 32.8677C15.7706 32.6383 15.7706 31.3364 16.6883 31.107L17.8239 30.8231L18.1079 29.6875L18.1318 29.6043ZM18.9883 31.7933C18.9333 31.867 18.8679 31.9323 18.7942 31.9873C18.8679 32.0423 18.9333 32.1077 18.9883 32.1814C19.0433 32.1077 19.1087 32.0423 19.1823 31.9873C19.1086 31.932 19.0432 31.8673 18.9883 31.7933ZM30.2091 30.7705C30.4422 30.5376 30.7582 30.4068 31.0876 30.4068C31.4171 30.4068 31.7331 30.5376 31.9662 30.7705L33.5884 32.3926C33.8213 32.6256 33.9521 32.9416 33.9521 33.2711C33.9521 33.6005 33.8213 33.9165 33.5884 34.1495L31.7635 35.9753L28.3833 32.5953L30.2091 30.7705ZM22.6381 45.1002C22.5714 45.1665 22.4866 45.2118 22.3943 45.2302L19.0141 45.906C18.937 45.9213 18.8573 45.9174 18.7821 45.8946C18.7068 45.8718 18.6384 45.8308 18.5828 45.7752C18.5272 45.7196 18.4862 45.6512 18.4634 45.5759C18.4405 45.5007 18.4366 45.421 18.452 45.3439L19.1278 41.9649C19.1463 41.8721 19.1919 41.787 19.2588 41.7201L27.7074 33.2711L31.0876 36.6511L22.6381 45.1002Z" fill="#C2C4C7"/>
<defs>
<filter id="filter0_d_1149_4304" x="0" y="0" width="316" height="77" filterUnits="userSpaceOnUse" color-interpolation-filters="sRGB">
<feFlood flood-opacity="0" result="BackgroundImageFix"/>
<feColorMatrix in="SourceAlpha" type="matrix" values="0 0 0 0 0 0 0 0 0 0 0 0 0 0 0 0 0 0 127 0" result="hardAlpha"/>
<feOffset/>
<feGaussianBlur stdDeviation="2"/>
<feComposite in2="hardAlpha" operator="out"/>
<feColorMatrix type="matrix" values="0 0 0 0 0 0 0 0 0 0 0 0 0 0 0 0 0 0 0.15 0"/>
<feBlend mode="normal" in2="BackgroundImageFix" result="effect1_dropShadow_1149_4304"/>
<feBlend mode="normal" in="SourceGraphic" in2="effect1_dropShadow_1149_4304" result="shape"/>
</filter>
</defs>
</svg>
