<svg width="316" height="77" viewBox="0 0 316 77" fill="none" xmlns="http://www.w3.org/2000/svg">
<g filter="url(#filter0_d_1324_2544)">
<rect x="4" y="4" width="308" height="69" rx="10" fill="white"/>
</g>
<path d="M54.6094 22.9121V30.3359H53.3105V22.9121H54.6094ZM54.6094 30.9375V35.0117H46.5566V30.9375H54.6094ZM47.8418 31.9629V33.959H53.3379V31.9629H47.8418ZM52.1074 24.1562V25.209H44.6152V24.1562H47.7051V22.8164H49.0176V24.1562H52.1074ZM48.3613 25.7285C50.1934 25.7285 51.3965 26.5898 51.3965 27.916C51.3965 29.2559 50.1934 30.1035 48.3613 30.1172C46.543 30.1035 45.3262 29.2559 45.3398 27.916C45.3262 26.5898 46.543 25.7285 48.3613 25.7285ZM48.3613 26.6992C47.2676 26.6992 46.5703 27.1641 46.584 27.916C46.5703 28.6816 47.2676 29.1328 48.3613 29.1328C49.4551 29.1328 50.1523 28.6816 50.166 27.916C50.1523 27.1641 49.4551 26.6992 48.3613 26.6992ZM67.7344 29.0508V30.0898H56.5508V29.0508H67.7344ZM66.4766 26.7539V27.8203H57.9453V23.418H66.3535V24.457H59.2441V26.7539H66.4766ZM66.5586 33.8359V34.9023H57.959V31.293H59.2441V33.8359H66.5586ZM76.5664 26.0293C76.5527 28.2715 77.9062 30.5137 79.8066 31.3613L79.0273 32.3867C77.6191 31.7168 76.5049 30.3428 75.9375 28.668C75.3633 30.459 74.2354 31.9424 72.7656 32.6602L71.9727 31.5664C73.9004 30.7051 75.2539 28.3672 75.2539 26.0293V23.9375H76.5664V26.0293ZM82.2129 22.9121V35.1895H80.9141V22.9121H82.2129ZM94.3535 22.9121V35.1621H93.041V22.9121H94.3535ZM90.7031 24.2246C90.7031 27.8066 89.1719 30.9238 84.9746 32.9336L84.291 31.8809C87.5518 30.3291 89.1377 28.1211 89.3906 25.2637H84.8789V24.2246H90.7031ZM107.465 28.5312V29.5293H96.2539V28.5312H107.465ZM106.084 30.3906V33.084H98.8926V34.0957H106.467V35.0117H97.5938V32.2227H104.799V31.3203H97.5801V30.3906H106.084ZM106.057 23.2266V25.8789H98.9746V26.8086H106.262V27.7246H97.6895V25.0176H104.758V24.1426H97.6621V23.2266H106.057ZM116.297 26.5215C116.297 28.5723 117.637 30.6914 119.523 31.498L118.812 32.5098C117.37 31.874 116.222 30.5273 115.654 28.8867C115.087 30.6367 113.932 32.127 112.51 32.8242L111.758 31.7988C113.604 30.9375 114.971 28.627 114.984 26.5215V25.2227H112.182V24.1426H119.086V25.2227H116.297V26.5215ZM121.93 22.9121V35.1621H120.631V22.9121H121.93ZM135.328 27.7246V28.791H133.428V35.1484H132.129V22.9121H133.428V27.7246H135.328ZM125.635 24.1016V30.9922C127.344 30.9922 129.128 30.8486 131.076 30.4453L131.227 31.5391C129.135 31.9629 127.193 32.0723 125.361 32.0723H124.35V24.1016H125.635ZM145.896 24.0879V25.291C145.896 26.8086 145.896 28.5039 145.432 31.0059L144.119 30.8691C144.598 28.5039 144.598 26.7676 144.598 25.291V25.1406H137.16V24.0879H145.896ZM147.154 32.4277V33.5078H135.984V32.4277H140.236V28.1074H141.521V32.4277H147.154ZM155.754 31.0059C155.754 32.0586 156.273 33.1729 157.381 33.8359C158.509 33.1182 159.062 31.9424 159.062 31.0059V30.418H160.334V31.0059C160.334 32.2773 161.168 33.5078 162.768 34.0273L162.125 34.9844C160.915 34.5674 160.095 33.7539 159.664 32.7422C159.274 33.7334 158.543 34.6289 157.422 35.0938C156.246 34.6494 155.501 33.7812 155.125 32.7832C154.681 33.7471 153.874 34.5605 152.719 34.9844L152.062 34.0273C153.635 33.4668 154.482 32.1953 154.496 31.0059V30.418H155.754V31.0059ZM161.66 22.9258V29.8984H160.361V22.9258H161.66ZM155.016 23.5957C156.889 23.5957 158.27 24.7852 158.27 26.4941C158.27 28.1895 156.889 29.3652 155.016 29.3652C153.143 29.3652 151.748 28.1895 151.748 26.4941C151.748 24.7852 153.143 23.5957 155.016 23.5957ZM155.016 24.7031C153.854 24.6895 153.02 25.4141 153.02 26.4941C153.02 27.5605 153.854 28.2852 155.016 28.2852C156.164 28.2852 156.998 27.5605 156.998 26.4941C156.998 25.4141 156.164 24.6895 155.016 24.7031ZM173.514 26.4941V27.5332H165.078V23.3496H166.363V26.4941H173.514ZM174.799 29.0781V30.1172H163.588V29.0781H174.799ZM173.596 33.8086V34.875H164.982V31.2793H166.281V33.8086H173.596ZM188.758 22.9121V26.0156H190.521V27.082H188.758V30.1445H187.445V22.9121H188.758ZM184.793 30.377C187.295 30.377 188.854 31.252 188.854 32.7559C188.854 34.2598 187.295 35.1484 184.793 35.1348C182.264 35.1484 180.678 34.2598 180.678 32.7559C180.678 31.252 182.264 30.377 184.793 30.377ZM184.793 31.4297C183.016 31.416 181.949 31.9082 181.963 32.7559C181.949 33.6035 183.016 34.0957 184.793 34.0957C186.529 34.0957 187.596 33.6035 187.609 32.7559C187.596 31.9082 186.529 31.416 184.793 31.4297ZM185.107 23.8145V24.8672H180.924V28.2031C183.337 28.1963 184.697 28.1211 186.242 27.8066L186.365 28.8594C184.725 29.2012 183.262 29.2559 180.609 29.2559H179.639V23.8145H185.107ZM201.377 22.9258V31.8945H200.078V22.9258H201.377ZM201.746 33.8496V34.9023H193.365V31.0469H194.678V33.8496H201.746ZM195.676 24.8125C195.662 26.6035 196.811 28.2441 198.697 28.9004L198.027 29.9395C196.612 29.4131 195.566 28.374 195.02 27.041C194.479 28.4629 193.42 29.6045 191.984 30.1582L191.287 29.1328C193.215 28.4219 194.35 26.6582 194.35 24.8125V23.5957H195.676V24.8125ZM208.896 23.1172C211.658 23.1172 213.271 23.8555 213.271 25.2227C213.271 26.5898 211.658 27.3418 208.896 27.3418C206.135 27.3418 204.521 26.5898 204.521 25.2227C204.521 23.8555 206.135 23.1172 208.896 23.1172ZM208.896 24.0742C206.941 24.0742 205.861 24.498 205.875 25.2227C205.861 25.9746 206.941 26.3711 208.896 26.3711C210.852 26.3711 211.932 25.9746 211.932 25.2227C211.932 24.498 210.852 24.0742 208.896 24.0742ZM214.488 28.0938V29.1328H203.318V28.0938H214.488ZM213.08 30.0762V32.9473H205.943V34.041H213.422V35.0391H204.672V32.0039H211.795V31.0469H204.658V30.0762H213.08ZM225.193 23.6777C225.193 26.7949 223.047 29.0098 219.492 30.0078L218.973 28.9961C221.81 28.2031 223.546 26.6719 223.799 24.7441H219.602V23.6777H225.193ZM229.049 30.5957V35.1348H227.75V31.6484H220.75V30.5957H229.049ZM229.049 22.9258V30.0898H227.75V27.123H225.262V26.043H227.75V22.9258H229.049ZM241.148 22.9121V30.1992H239.85V27.0957H237.566V26.0293H239.85V22.9121H241.148ZM237.047 30.541C239.617 30.541 241.189 31.3887 241.189 32.8516C241.189 34.3145 239.617 35.1484 237.047 35.1621C234.477 35.1484 232.891 34.3145 232.904 32.8516C232.891 31.3887 234.477 30.541 237.047 30.541ZM237.047 31.5527C235.256 31.5527 234.189 32.0176 234.189 32.8516C234.189 33.6719 235.256 34.1504 237.047 34.1367C238.838 34.1504 239.904 33.6719 239.904 32.8516C239.904 32.0176 238.838 31.5527 237.047 31.5527ZM235.324 25.0723C235.324 26.6309 236.432 28.1348 238.277 28.7637L237.607 29.7891C236.233 29.3105 235.222 28.333 234.695 27.123C234.155 28.4971 233.082 29.5977 231.619 30.1309L230.936 29.0918C232.836 28.4355 233.998 26.7812 233.998 25.0859V24.8125H231.346V23.7598H237.949V24.8125H235.324V25.0723ZM252.578 22.9121V27.875H254.547V28.9551H252.578V35.1621H251.293V22.9121H252.578ZM250.227 24.8262V25.8926H242.967V24.8262H245.988V23.0762H247.287V24.8262H250.227ZM246.645 26.7949C248.395 26.7949 249.68 27.9707 249.693 29.6387C249.68 31.3203 248.395 32.4824 246.645 32.4961C244.881 32.4824 243.596 31.3203 243.596 29.6387C243.596 27.9707 244.881 26.7949 246.645 26.7949ZM246.645 27.8613C245.605 27.8613 244.826 28.5859 244.84 29.6387C244.826 30.7051 245.605 31.416 246.645 31.4023C247.684 31.416 248.449 30.7051 248.449 29.6387C248.449 28.5859 247.684 27.8613 246.645 27.8613ZM261.301 24.0879V25.7969H264.062V22.9121H265.348V35.1895H264.062V30.2129H261.301V32.0996H255.613V24.0879H261.301ZM256.898 25.0996V31.0605H260.029V25.0996H256.898ZM261.301 29.1602H264.062V26.8633H261.301V29.1602ZM269.436 33.0566L268.342 36.8301H267.18L267.904 33.0566H269.436ZM284.447 22.9258V31.9766H283.148V28.791H280.469V29.9395H274.822V23.7324H276.121V25.8105H279.184V23.7324H280.469V25.0996H283.148V22.9258H284.447ZM284.721 33.8496V34.9023H276.449V31.0879H277.762V33.8496H284.721ZM276.121 28.8867H279.184V26.8086H276.121V28.8867ZM280.469 27.7383H283.148V26.166H280.469V27.7383ZM54.0762 42.9121V46.084H55.8535V47.1914H54.0762V50.2949H52.7773V42.9121H54.0762ZM54.0762 50.9375V55.0117H46.2559V50.9375H54.0762ZM47.5273 51.9629V53.959H52.791V51.9629H47.5273ZM51.7656 44.1562V45.1953H44.4648V44.1562H47.4727V42.8164H48.7715V44.1562H51.7656ZM48.1152 45.7285C49.8789 45.7285 51.082 46.6035 51.082 47.916C51.082 49.2422 49.8789 50.1035 48.1152 50.1172C46.3242 50.1035 45.1348 49.2422 45.1348 47.916C45.1348 46.6035 46.3242 45.7285 48.1152 45.7285ZM48.1152 46.7266C47.0762 46.7129 46.3789 47.1777 46.3926 47.916C46.3789 48.6816 47.0762 49.1328 48.1152 49.1328C49.1543 49.1328 49.8516 48.6816 49.8652 47.916C49.8516 47.1777 49.1543 46.7129 48.1152 46.7266ZM59.1621 50.0898V51.5117H61.0762V50.0898H62.2793V55.0117H57.9453V50.0898H59.1621ZM59.1621 54H61.0762V52.4961H59.1621V54ZM65.834 51.0059C65.834 52.291 66.5449 53.5898 68.0625 54.123L67.3926 55.1074C66.2852 54.6836 65.5674 53.8838 65.1914 52.9062C64.7812 53.8633 64.0566 54.6699 63.0039 55.1074L62.3477 54.123C63.8242 53.5215 64.5488 52.2227 64.5488 51.0059V50.0078H65.834V51.0059ZM59.9414 43.4316C61.5547 43.4316 62.7988 44.3477 63.0723 45.7148H65.4648V42.9121H66.7637V49.4062H65.4648V46.7812H63.0859C62.8193 48.1895 61.5684 49.1055 59.9414 49.1055C58.0684 49.1055 56.7285 47.957 56.7285 46.2617C56.7285 44.5938 58.0684 43.4316 59.9414 43.4316ZM59.9414 44.5117C58.7793 44.5117 57.9727 45.2227 57.9727 46.2617C57.9727 47.3145 58.7793 48.0391 59.9414 48.0527C61.0762 48.0391 61.8828 47.3145 61.8828 46.2617C61.8828 45.2227 61.0762 44.5117 59.9414 44.5117ZM78.5625 46.4941V47.5332H70.127V43.3496H71.4121V46.4941H78.5625ZM79.8477 49.0781V50.1172H68.6367V49.0781H79.8477ZM78.6445 53.8086V54.875H70.0312V51.2793H71.3301V53.8086H78.6445ZM88.6797 46.5215C88.6797 48.5723 90.0195 50.6914 91.9062 51.498L91.1953 52.5098C89.7529 51.874 88.6045 50.5273 88.0371 48.8867C87.4697 50.6367 86.3145 52.127 84.8926 52.8242L84.1406 51.7988C85.9863 50.9375 87.3535 48.627 87.3672 46.5215V45.2227H84.5645V44.1426H91.4688V45.2227H88.6797V46.5215ZM94.3125 42.9121V55.1621H93.0137V42.9121H94.3125ZM100.779 46.5215C100.779 48.5723 102.119 50.6914 104.006 51.498L103.295 52.5098C101.853 51.874 100.704 50.5273 100.137 48.8867C99.5693 50.6367 98.4141 52.127 96.9922 52.8242L96.2402 51.7988C98.0859 50.9375 99.4531 48.627 99.4668 46.5215V45.2227H96.6641V44.1426H103.568V45.2227H100.779V46.5215ZM106.412 42.9121V55.1621H105.113V42.9121H106.412ZM119.564 48.5312V49.5293H108.354V48.5312H119.564ZM118.184 50.3906V53.084H110.992V54.0957H118.566V55.0117H109.693V52.2227H116.898V51.3203H109.68V50.3906H118.184ZM118.156 43.2266V45.8789H111.074V46.8086H118.361V47.7246H109.789V45.0176H116.857V44.1426H109.762V43.2266H118.156ZM135.096 52.5645V53.6445H123.885V52.5645H128.82V50.0488H125.17V43.7461H126.469V45.8516H132.484V43.7461H133.77V50.0488H130.105V52.5645H135.096ZM126.469 48.9961H132.484V46.9043H126.469V48.9961ZM146.471 42.9121V55.1621H145.227V48.8867H143.654V54.5332H142.438V43.1582H143.654V47.8203H145.227V42.9121H146.471ZM137.857 44.3613V50.8965C138.992 50.8896 140.229 50.8008 141.617 50.5273L141.754 51.6621C140.072 51.9629 138.664 52.0449 137.352 52.0449H136.559V44.3613H137.857ZM157.996 46.4941V47.5332H149.561V43.3496H150.846V46.4941H157.996ZM159.281 49.0781V50.1172H148.07V49.0781H159.281ZM158.078 53.8086V54.875H149.465V51.2793H150.764V53.8086H158.078ZM173.814 42.9121V52.0039H172.516V48.627H170.602V47.5332H172.516V46.248H170.602V45.1816H172.516V42.9121H173.814ZM170.465 43.8691V44.9219H169.289V49.0234C169.809 48.9824 170.308 48.9414 170.793 48.8867L170.848 49.8438C168.496 50.2129 165.748 50.2539 163.779 50.2676L163.615 49.1738C164.073 49.1738 164.579 49.1738 165.105 49.1602V44.9219H163.957V43.8691H170.465ZM174.129 53.8496V54.9023H165.83V51.2656H167.143V53.8496H174.129ZM166.363 49.1465C166.917 49.1328 167.478 49.1191 168.045 49.0918V44.9219H166.363V49.1465ZM180.213 46.5215C180.213 48.5723 181.553 50.6914 183.439 51.498L182.729 52.5098C181.286 51.874 180.138 50.5273 179.57 48.8867C179.003 50.6367 177.848 52.127 176.426 52.8242L175.674 51.7988C177.52 50.9375 178.887 48.627 178.9 46.5215V45.2227H176.098V44.1426H183.002V45.2227H180.213V46.5215ZM185.846 42.9121V55.1621H184.547V42.9121H185.846Z" fill="#555557"/>
<path d="M32.3715 42.741C32.5313 42.7412 32.6864 42.7946 32.8123 42.893C32.9382 42.9914 33.0277 43.129 33.0664 43.284L33.3446 44.3957L34.4573 44.6738C34.6124 44.7127 34.75 44.8022 34.8483 44.9282C34.9466 45.0542 35 45.2094 35 45.3692C35 45.529 34.9466 45.6843 34.8483 45.8103C34.75 45.9363 34.6124 46.0258 34.4573 46.0646L33.3446 46.3428L33.0674 47.4555C33.0289 47.6109 32.9394 47.749 32.8133 47.8477C32.6872 47.9464 32.5316 48 32.3715 48C32.2113 48 32.0558 47.9464 31.9296 47.8477C31.8035 47.749 31.7141 47.6109 31.6755 47.4555L31.3983 46.3428L30.2856 46.0656C30.1301 46.0271 29.9921 45.9376 29.8934 45.8115C29.7947 45.6854 29.741 45.5299 29.741 45.3697C29.741 45.2096 29.7947 45.054 29.8934 44.9279C29.9921 44.8018 30.1301 44.7123 30.2856 44.6738L31.3974 44.3966L31.6755 43.284C31.7144 43.1288 31.8039 42.9911 31.93 42.8927C32.0561 42.7943 32.2115 42.7409 32.3715 42.741ZM18.1318 29.6043C18.4166 28.7717 19.6469 28.7995 19.8697 29.6875L20.1526 30.8231L21.2883 31.107C22.206 31.3364 22.206 32.6392 21.2883 32.8677L20.1526 33.1516L19.8697 34.2872C19.6402 35.2048 18.3373 35.2048 18.1079 34.2872L17.8239 33.1516L16.6883 32.8677C15.7706 32.6383 15.7706 31.3364 16.6883 31.107L17.8239 30.8231L18.1079 29.6875L18.1318 29.6043ZM18.9883 31.7933C18.9333 31.867 18.8679 31.9323 18.7942 31.9873C18.8679 32.0423 18.9333 32.1077 18.9883 32.1814C19.0433 32.1077 19.1087 32.0423 19.1823 31.9873C19.1086 31.932 19.0432 31.8673 18.9883 31.7933ZM30.2091 30.7705C30.4422 30.5376 30.7582 30.4068 31.0876 30.4068C31.4171 30.4068 31.7331 30.5376 31.9662 30.7705L33.5884 32.3926C33.8213 32.6256 33.9521 32.9416 33.9521 33.2711C33.9521 33.6005 33.8213 33.9165 33.5884 34.1495L31.7635 35.9753L28.3833 32.5953L30.2091 30.7705ZM22.6381 45.1002C22.5714 45.1665 22.4866 45.2118 22.3943 45.2302L19.0141 45.906C18.937 45.9213 18.8573 45.9174 18.7821 45.8946C18.7068 45.8718 18.6384 45.8308 18.5828 45.7752C18.5272 45.7196 18.4862 45.6512 18.4634 45.5759C18.4405 45.5007 18.4366 45.421 18.452 45.3439L19.1278 41.9649C19.1463 41.8721 19.1919 41.787 19.2588 41.7201L27.7074 33.2711L31.0876 36.6511L22.6381 45.1002Z" fill="#C2C4C7"/>
<defs>
<filter id="filter0_d_1324_2544" x="0" y="0" width="316" height="77" filterUnits="userSpaceOnUse" color-interpolation-filters="sRGB">
<feFlood flood-opacity="0" result="BackgroundImageFix"/>
<feColorMatrix in="SourceAlpha" type="matrix" values="0 0 0 0 0 0 0 0 0 0 0 0 0 0 0 0 0 0 127 0" result="hardAlpha"/>
<feOffset/>
<feGaussianBlur stdDeviation="2"/>
<feComposite in2="hardAlpha" operator="out"/>
<feColorMatrix type="matrix" values="0 0 0 0 0 0 0 0 0 0 0 0 0 0 0 0 0 0 0.15 0"/>
<feBlend mode="normal" in2="BackgroundImageFix" result="effect1_dropShadow_1324_2544"/>
<feBlend mode="normal" in="SourceGraphic" in2="effect1_dropShadow_1324_2544" result="shape"/>
</filter>
</defs>
</svg>
