<svg width="316" height="77" viewBox="0 0 316 77" fill="none" xmlns="http://www.w3.org/2000/svg">
<g filter="url(#filter0_d_1153_4378)">
<rect x="4" y="4" width="308" height="69" rx="10" fill="white"/>
</g>
<path d="M54.0762 22.9121V26.084H55.8535V27.1914H54.0762V30.2949H52.7773V22.9121H54.0762ZM54.0762 30.9375V35.0117H46.2559V30.9375H54.0762ZM47.5273 31.9629V33.959H52.791V31.9629H47.5273ZM51.7656 24.1562V25.1953H44.4648V24.1562H47.4727V22.8164H48.7715V24.1562H51.7656ZM48.1152 25.7285C49.8789 25.7285 51.082 26.6035 51.082 27.916C51.082 29.2422 49.8789 30.1035 48.1152 30.1172C46.3242 30.1035 45.1348 29.2422 45.1348 27.916C45.1348 26.6035 46.3242 25.7285 48.1152 25.7285ZM48.1152 26.7266C47.0762 26.7129 46.3789 27.1777 46.3926 27.916C46.3789 28.6816 47.0762 29.1328 48.1152 29.1328C49.1543 29.1328 49.8516 28.6816 49.8652 27.916C49.8516 27.1777 49.1543 26.7129 48.1152 26.7266ZM59.5859 24.3613C59.5723 27.1094 59.2305 29.9395 57.5215 32.3457L56.5098 31.7715C57.9385 29.8574 58.3691 27.7383 58.4648 25.4277H56.7969V24.3613H59.5859ZM62.3066 24.3613C62.3066 25.3936 62.2861 26.5215 62.1562 27.6562H63.5918V23.2266H64.8223V34.5605H63.5918V28.709H62.0059C61.7256 30.2334 61.2129 31.7441 60.2695 33.084L59.2578 32.4961C60.8438 30.3701 61.1309 27.793 61.1855 25.4277H59.9551V24.3613H62.3066ZM67.1465 22.9121V35.1621H65.9023V22.9121H67.1465ZM78.2754 22.9258V26.8633H80.0527V27.9434H78.2754V32.0859H76.9766V22.9258H78.2754ZM75.9648 24.3477V25.4004H68.6641V24.3477H71.6719V22.9121H72.9707V24.3477H75.9648ZM72.3145 25.9883C74.0781 25.9883 75.2812 26.9043 75.2812 28.2988C75.2812 29.6934 74.0781 30.5957 72.3145 30.5957C70.5371 30.5957 69.334 29.6934 69.334 28.2988C69.334 26.9043 70.5371 25.9883 72.3145 25.9883ZM72.3145 26.9863C71.2754 26.9863 70.5781 27.4922 70.5918 28.2988C70.5781 29.0918 71.2754 29.584 72.3145 29.584C73.3535 29.584 74.0508 29.0918 74.0645 28.2988C74.0508 27.4922 73.3535 26.9863 72.3145 26.9863ZM78.7949 33.8496V34.9023H70.5098V31.3613H71.8086V33.8496H78.7949ZM95.3789 32.5508V33.6309H84.168V32.5508H89.1035V29.7207H85.4531V23.8965H94.0391V29.7207H90.3887V32.5508H95.3789ZM86.7109 24.9355V28.6953H92.7676V24.9355H86.7109ZM107.451 29.0508V30.0898H96.2676V29.0508H107.451ZM106.193 26.7539V27.8203H97.6621V23.418H106.07V24.457H98.9609V26.7539H106.193ZM106.275 33.8359V34.9023H97.6758V31.293H98.9609V33.8359H106.275ZM118.033 23.7598C118.033 25.291 120.002 26.7676 122.326 27.1094L121.82 28.1348C119.879 27.8135 118.163 26.8086 117.377 25.4277C116.598 26.8359 114.868 27.8408 112.92 28.1621L112.428 27.1367C114.752 26.7812 116.707 25.3457 116.707 23.7598V23.2266H118.033V23.7598ZM122.982 29.0781V30.1309H118.115V32.4961H116.83V30.1309H111.771V29.0781H122.982ZM121.738 33.8496V34.9023H113.166V31.3477H114.465V33.8496H121.738ZM133.51 22.9121V26.5352H135.287V27.6152H133.51V31.8125H132.197V22.9121H133.51ZM130.188 23.8418C130.188 27.0547 128 29.3926 124.418 30.4727L123.871 29.4336C126.735 28.5723 128.52 26.9453 128.779 24.9219H124.391V23.8418H130.188ZM134.016 33.8496V34.9023H125.73V30.8965H127.043V33.8496H134.016ZM141.562 23.1172C144.324 23.1172 145.938 23.8555 145.938 25.2227C145.938 26.5898 144.324 27.3418 141.562 27.3418C138.801 27.3418 137.188 26.5898 137.188 25.2227C137.188 23.8555 138.801 23.1172 141.562 23.1172ZM141.562 24.0742C139.607 24.0742 138.527 24.498 138.541 25.2227C138.527 25.9746 139.607 26.3711 141.562 26.3711C143.518 26.3711 144.598 25.9746 144.598 25.2227C144.598 24.498 143.518 24.0742 141.562 24.0742ZM147.154 28.0938V29.1328H135.984V28.0938H147.154ZM145.746 30.0762V32.9473H138.609V34.041H146.088V35.0391H137.338V32.0039H144.461V31.0469H137.324V30.0762H145.746ZM162.672 30.2949V31.3613H157.723V35.1758H156.438V31.3613H151.502V30.2949H162.672ZM161.605 24.3887V25.4414H157.736C157.812 26.7949 159.657 28.1143 161.988 28.4082L161.523 29.4473C159.555 29.1738 157.88 28.251 157.094 27C156.294 28.2646 154.605 29.1738 152.637 29.4473L152.158 28.4082C154.489 28.1143 156.349 26.8223 156.438 25.4414H152.555V24.3887H156.438V22.9121H157.723V24.3887H161.605ZM173.814 30.7871V35.1758H172.516V31.8262H165.516V30.7871H173.814ZM173.814 22.9121V30.1309H172.516V27.082H170.137C169.877 28.5449 168.619 29.5293 166.992 29.5156C165.146 29.5293 163.779 28.2988 163.779 26.5488C163.779 24.8262 165.146 23.582 166.992 23.5957C168.619 23.582 169.87 24.5732 170.137 26.0156H172.516V22.9121H173.814ZM166.992 24.6895C165.857 24.6895 165.023 25.4551 165.023 26.5488C165.023 27.6699 165.857 28.4219 166.992 28.4219C168.1 28.4219 168.934 27.6699 168.934 26.5488C168.934 25.4551 168.1 24.6895 166.992 24.6895ZM185.244 22.9121V27.875H187.213V28.9551H185.244V35.1621H183.959V22.9121H185.244ZM182.893 24.8262V25.8926H175.633V24.8262H178.654V23.0762H179.953V24.8262H182.893ZM179.311 26.7949C181.061 26.7949 182.346 27.9707 182.359 29.6387C182.346 31.3203 181.061 32.4824 179.311 32.4961C177.547 32.4824 176.262 31.3203 176.262 29.6387C176.262 27.9707 177.547 26.7949 179.311 26.7949ZM179.311 27.8613C178.271 27.8613 177.492 28.5859 177.506 29.6387C177.492 30.7051 178.271 31.416 179.311 31.4023C180.35 31.416 181.115 30.7051 181.115 29.6387C181.115 28.5859 180.35 27.8613 179.311 27.8613ZM193.967 24.0879V25.7969H196.729V22.9121H198.014V35.1895H196.729V30.2129H193.967V32.0996H188.279V24.0879H193.967ZM189.564 25.0996V31.0605H192.695V25.0996H189.564ZM193.967 29.1602H196.729V26.8633H193.967V29.1602ZM202.102 33.0566L201.008 36.8301H199.846L200.57 33.0566H202.102ZM216.525 22.9258V25.8242H218.303V26.877H216.525V29.8164H215.227V22.9258H216.525ZM216.812 30.4316V31.4707H215.186V33.918H216.977V34.9707H208.5V33.918H210.264V31.4707H208.596V30.4316H216.812ZM210.346 23.5957C212.219 23.5957 213.6 24.7852 213.613 26.4941C213.6 28.1895 212.219 29.3789 210.346 29.3789C208.473 29.3789 207.078 28.1895 207.092 26.4941C207.078 24.7852 208.473 23.5957 210.346 23.5957ZM210.346 24.6895C209.197 24.6758 208.35 25.4004 208.363 26.4941C208.35 27.5742 209.197 28.2852 210.346 28.2988C211.494 28.2852 212.342 27.5742 212.342 26.4941C212.342 25.4004 211.494 24.6758 210.346 24.6895ZM211.521 33.918H213.914V31.4707H211.521V33.918ZM224.578 23.6504C227.148 23.6504 229.104 25.0039 229.104 27.0684C229.104 29.1328 227.148 30.5 224.578 30.4863C222.008 30.5 220.066 29.1328 220.066 27.0684C220.066 25.0039 222.008 23.6504 224.578 23.6504ZM224.578 24.7031C222.705 24.6895 221.297 25.6465 221.311 27.0684C221.297 28.5039 222.705 29.4199 224.578 29.4199C226.451 29.4199 227.846 28.5039 227.846 27.0684C227.846 25.6465 226.451 24.6895 224.578 24.7031ZM230.211 32.4961V33.5762H219V32.4961H230.211ZM242.311 32.6055V33.6992H231.1V32.6055H236.035V30.459H232.467V26.5625H239.658V24.8398H232.439V23.7734H240.943V27.6016H233.752V29.3926H241.23V30.459H237.32V32.6055H242.311ZM253.125 28.5586V29.5977H249.42V32.5918H254.41V33.6582H243.199V32.5918H248.135V29.5977H244.594V23.8555H253.016V24.9082H245.893V28.5586H253.125ZM268.342 22.9121V25.6738H270.119V26.7266H268.342V29.4199H267.043V22.9121H268.342ZM265.033 23.7598C265.033 26.8906 262.914 28.873 259.277 29.6523L258.73 28.5996C261.82 27.9775 263.42 26.5352 263.598 24.7988H259.277V23.7598H265.033ZM268.396 29.9395V30.9238H261.779V31.9766H268.26V32.9199H261.779V34.0273H268.67V35.0117H260.48V29.9395H268.396ZM281.986 29.3105V30.3496H270.816V29.3105H281.986ZM280.729 33.8496V34.9023H272.225V31.3477H273.537V33.8496H280.729ZM276.395 23.3223C279.047 23.3086 280.77 24.2383 280.77 25.7695C280.77 27.3145 279.047 28.2441 276.395 28.2578C273.729 28.2441 272.02 27.3145 272.02 25.7695C272.02 24.2383 273.729 23.3086 276.395 23.3223ZM276.395 24.3613C274.521 24.3613 273.346 24.8945 273.359 25.7695C273.346 26.6719 274.521 27.1914 276.395 27.1914C278.268 27.1914 279.43 26.6719 279.43 25.7695C279.43 24.8945 278.268 24.3613 276.395 24.3613ZM54.2129 43.5V44.3887C54.2129 45.3184 54.2129 46.3848 53.9121 47.8066L52.627 47.6699C52.9141 46.3438 52.9277 45.3936 52.9277 44.5254H45.7637V43.5H54.2129ZM55.6074 48.5859V49.625H44.4648V48.5859H48.9355V46.1797H50.207V48.5859H55.6074ZM50.6445 51.0195C50.6309 52.5234 52.3672 53.7676 54.7734 54.0957L54.2812 55.1074C52.3398 54.8135 50.7402 53.959 49.9883 52.7012C49.2295 53.959 47.623 54.8135 45.6953 55.1074L45.2305 54.0957C47.5957 53.7676 49.3184 52.5234 49.332 51.0195V50.5273H50.6445V51.0195ZM62.1289 43.1172C64.8906 43.1172 66.5039 43.8555 66.5039 45.2227C66.5039 46.5898 64.8906 47.3418 62.1289 47.3418C59.3672 47.3418 57.7539 46.5898 57.7539 45.2227C57.7539 43.8555 59.3672 43.1172 62.1289 43.1172ZM62.1289 44.0742C60.1738 44.0742 59.0938 44.498 59.1074 45.2227C59.0938 45.9746 60.1738 46.3711 62.1289 46.3711C64.084 46.3711 65.1641 45.9746 65.1641 45.2227C65.1641 44.498 64.084 44.0742 62.1289 44.0742ZM67.7207 48.0938V49.1328H56.5508V48.0938H67.7207ZM66.3125 50.0762V52.9473H59.1758V54.041H66.6543V55.0391H57.9043V52.0039H65.0273V51.0469H57.8906V50.0762H66.3125ZM81.6113 42.9121V47.6562H83.5801V48.75H81.6113V55.1621H80.3125V42.9121H81.6113ZM73.8184 43.9375V47.082H77.0586V43.9375H78.3438V52.25H72.5332V43.9375H73.8184ZM73.8184 51.1836H77.0586V48.1074H73.8184V51.1836ZM93.7109 42.9121V47.6973H95.6797V48.791H93.7109V55.1895H92.4258V42.9121H93.7109ZM90.252 44.0195V48.5176H85.959V51.1699C88.0645 51.1631 89.623 51.0879 91.4141 50.7598L91.5371 51.8125C89.623 52.168 87.9688 52.25 85.6719 52.2637H84.6738V47.4648H88.9668V45.0723H84.6465V44.0195H90.252ZM107.479 52.5645V53.6445H96.2676V52.5645H101.203V50.0488H97.5527V43.7461H98.8516V45.8516H104.867V43.7461H106.152V50.0488H102.488V52.5645H107.479ZM98.8516 48.9961H104.867V46.9043H98.8516V48.9961ZM112.633 46.5215C112.633 48.4629 113.904 50.623 115.764 51.498L115.025 52.5098C113.651 51.8467 112.564 50.4658 112.018 48.8594C111.45 50.6162 110.302 52.127 108.9 52.8242L108.135 51.7988C109.994 50.9102 111.348 48.5996 111.348 46.5215V45.2227H108.586V44.1426H115.299V45.2227H112.633V46.5215ZM117.91 42.9121V47.7656H119.879V48.8594H117.91V55.1621H116.611V42.9121H117.91ZM130.379 46.4941V47.5332H121.943V43.3496H123.229V46.4941H130.379ZM131.664 49.0781V50.1172H120.453V49.0781H131.664ZM130.461 53.8086V54.875H121.848V51.2793H123.146V53.8086H130.461ZM147.346 44.7031V45.7695H145.609V47.3281H147.346V48.4219H145.609V50.1719H144.311V42.9121H145.609V44.7031H147.346ZM145.609 50.7188V55.1621H144.311V51.7715H137.516V50.7188H145.609ZM139.43 43.623C141.303 43.623 142.684 44.8262 142.697 46.5488C142.684 48.2715 141.303 49.4746 139.43 49.4746C137.557 49.4746 136.162 48.2715 136.176 46.5488C136.162 44.8262 137.557 43.623 139.43 43.623ZM139.43 44.7305C138.281 44.7305 137.434 45.4551 137.447 46.5488C137.434 47.6562 138.281 48.3809 139.43 48.3672C140.578 48.3809 141.426 47.6562 141.426 46.5488C141.426 45.4551 140.578 44.7305 139.43 44.7305ZM159.281 48.9961V50.0625H148.084V48.9961H153.02V47.2051H154.305V48.9961H159.281ZM154.318 43.623C154.318 45.1816 156.232 46.5488 158.598 46.8496L158.092 47.875C156.144 47.5674 154.428 46.6172 153.662 45.2637C152.876 46.6172 151.16 47.5674 149.205 47.875L148.727 46.8496C151.078 46.5488 152.992 45.168 153.006 43.623V43.1035H154.318V43.623ZM157.887 51.1426V55.1621H156.574V52.168H149.328V51.1426H157.887ZM164.176 43.7871C166.117 43.7734 167.498 44.9766 167.512 46.6992C167.498 48.4219 166.117 49.625 164.176 49.625C162.248 49.625 160.826 48.4219 160.84 46.6992C160.826 44.9766 162.248 43.7734 164.176 43.7871ZM164.176 44.9082C162.986 44.9082 162.111 45.6191 162.125 46.6992C162.111 47.7793 162.986 48.4902 164.176 48.4902C165.365 48.4902 166.24 47.7793 166.24 46.6992C166.24 45.6191 165.365 44.9082 164.176 44.9082ZM170.314 42.9121V55.1895H169.016V42.9121H170.314ZM160.252 51.4707C162.48 51.4707 165.57 51.4434 168.25 51.0605L168.346 52.0039C165.57 52.5371 162.604 52.5508 160.416 52.5508L160.252 51.4707ZM185.914 42.9121V52.0039H184.615V48.627H182.701V47.5332H184.615V46.248H182.701V45.1816H184.615V42.9121H185.914ZM182.564 43.8691V44.9219H181.389V49.0234C181.908 48.9824 182.407 48.9414 182.893 48.8867L182.947 49.8438C180.596 50.2129 177.848 50.2539 175.879 50.2676L175.715 49.1738C176.173 49.1738 176.679 49.1738 177.205 49.1602V44.9219H176.057V43.8691H182.564ZM186.229 53.8496V54.9023H177.93V51.2656H179.242V53.8496H186.229ZM178.463 49.1465C179.017 49.1328 179.577 49.1191 180.145 49.0918V44.9219H178.463V49.1465ZM192.312 46.5215C192.312 48.5723 193.652 50.6914 195.539 51.498L194.828 52.5098C193.386 51.874 192.237 50.5273 191.67 48.8867C191.103 50.6367 189.947 52.127 188.525 52.8242L187.773 51.7988C189.619 50.9375 190.986 48.627 191 46.5215V45.2227H188.197V44.1426H195.102V45.2227H192.312V46.5215ZM197.945 42.9121V55.1621H196.646V42.9121H197.945Z" fill="#555557"/>
<path d="M32.3715 42.741C32.5313 42.7412 32.6864 42.7946 32.8123 42.893C32.9382 42.9914 33.0277 43.129 33.0664 43.284L33.3446 44.3957L34.4573 44.6738C34.6124 44.7127 34.75 44.8022 34.8483 44.9282C34.9466 45.0542 35 45.2094 35 45.3692C35 45.529 34.9466 45.6843 34.8483 45.8103C34.75 45.9363 34.6124 46.0258 34.4573 46.0646L33.3446 46.3428L33.0674 47.4555C33.0289 47.6109 32.9394 47.749 32.8133 47.8477C32.6872 47.9464 32.5316 48 32.3715 48C32.2113 48 32.0558 47.9464 31.9296 47.8477C31.8035 47.749 31.7141 47.6109 31.6755 47.4555L31.3983 46.3428L30.2856 46.0656C30.1301 46.0271 29.9921 45.9376 29.8934 45.8115C29.7947 45.6854 29.741 45.5299 29.741 45.3697C29.741 45.2096 29.7947 45.054 29.8934 44.9279C29.9921 44.8018 30.1301 44.7123 30.2856 44.6738L31.3974 44.3966L31.6755 43.284C31.7144 43.1288 31.8039 42.9911 31.93 42.8927C32.0561 42.7943 32.2115 42.7409 32.3715 42.741ZM18.1318 29.6043C18.4166 28.7717 19.6469 28.7995 19.8697 29.6875L20.1526 30.8231L21.2883 31.107C22.206 31.3364 22.206 32.6392 21.2883 32.8677L20.1526 33.1516L19.8697 34.2872C19.6402 35.2048 18.3373 35.2048 18.1079 34.2872L17.8239 33.1516L16.6883 32.8677C15.7706 32.6383 15.7706 31.3364 16.6883 31.107L17.8239 30.8231L18.1079 29.6875L18.1318 29.6043ZM18.9883 31.7933C18.9333 31.867 18.8679 31.9323 18.7942 31.9873C18.8679 32.0423 18.9333 32.1077 18.9883 32.1814C19.0433 32.1077 19.1087 32.0423 19.1823 31.9873C19.1086 31.932 19.0432 31.8673 18.9883 31.7933ZM30.2091 30.7705C30.4422 30.5376 30.7582 30.4068 31.0876 30.4068C31.4171 30.4068 31.7331 30.5376 31.9662 30.7705L33.5884 32.3926C33.8213 32.6256 33.9521 32.9416 33.9521 33.2711C33.9521 33.6005 33.8213 33.9165 33.5884 34.1495L31.7635 35.9753L28.3833 32.5953L30.2091 30.7705ZM22.6381 45.1002C22.5714 45.1665 22.4866 45.2118 22.3943 45.2302L19.0141 45.906C18.937 45.9213 18.8573 45.9174 18.7821 45.8946C18.7068 45.8718 18.6384 45.8308 18.5828 45.7752C18.5272 45.7196 18.4862 45.6512 18.4634 45.5759C18.4405 45.5007 18.4366 45.421 18.452 45.3439L19.1278 41.9649C19.1463 41.8721 19.1919 41.787 19.2588 41.7201L27.7074 33.2711L31.0876 36.6511L22.6381 45.1002Z" fill="#C2C4C7"/>
<defs>
<filter id="filter0_d_1153_4378" x="0" y="0" width="316" height="77" filterUnits="userSpaceOnUse" color-interpolation-filters="sRGB">
<feFlood flood-opacity="0" result="BackgroundImageFix"/>
<feColorMatrix in="SourceAlpha" type="matrix" values="0 0 0 0 0 0 0 0 0 0 0 0 0 0 0 0 0 0 127 0" result="hardAlpha"/>
<feOffset/>
<feGaussianBlur stdDeviation="2"/>
<feComposite in2="hardAlpha" operator="out"/>
<feColorMatrix type="matrix" values="0 0 0 0 0 0 0 0 0 0 0 0 0 0 0 0 0 0 0.15 0"/>
<feBlend mode="normal" in2="BackgroundImageFix" result="effect1_dropShadow_1153_4378"/>
<feBlend mode="normal" in="SourceGraphic" in2="effect1_dropShadow_1153_4378" result="shape"/>
</filter>
</defs>
</svg>
