<svg width="107" height="48" viewBox="0 0 107 48" fill="none" xmlns="http://www.w3.org/2000/svg">
<g filter="url(#filter0_d_1319_3517)">
<rect x="6" y="3" width="95" height="36" rx="17" fill="#FF5F2F" shape-rendering="crispEdges"/>
<path d="M18 20.5H23.5M23.5 20.5H29M23.5 20.5V15M23.5 20.5V26" stroke="white" stroke-width="1.4" stroke-linecap="round" stroke-linejoin="round"/>
<path d="M45.7559 13.9121V23.0039H44.457V19.627H42.543V18.5332H44.457V17.248H42.543V16.1816H44.457V13.9121H45.7559ZM42.4062 14.8691V15.9219H41.2305V20.0234C41.75 19.9824 42.249 19.9414 42.7344 19.8867L42.7891 20.8438C40.4375 21.2129 37.6895 21.2539 35.7207 21.2676L35.5566 20.1738C36.0146 20.1738 36.5205 20.1738 37.0469 20.1602V15.9219H35.8984V14.8691H42.4062ZM46.0703 24.8496V25.9023H37.7715V22.2656H39.084V24.8496H46.0703ZM38.3047 20.1465C38.8584 20.1328 39.4189 20.1191 39.9863 20.0918V15.9219H38.3047V20.1465ZM52.1543 17.5215C52.1543 19.5723 53.4941 21.6914 55.3809 22.498L54.6699 23.5098C53.2275 22.874 52.0791 21.5273 51.5117 19.8867C50.9443 21.6367 49.7891 23.127 48.3672 23.8242L47.6152 22.7988C49.4609 21.9375 50.8281 19.627 50.8418 17.5215V16.2227H48.0391V15.1426H54.9434V16.2227H52.1543V17.5215ZM57.7871 13.9121V26.1621H56.4883V13.9121H57.7871ZM74.3301 21.2949V22.3613H69.3809V26.1758H68.0957V22.3613H63.1602V21.2949H74.3301ZM73.2637 15.3887V16.4414H69.3945C69.4697 17.7949 71.3154 19.1143 73.6465 19.4082L73.1816 20.4473C71.2129 20.1738 69.5381 19.251 68.752 18C67.9521 19.2646 66.2637 20.1738 64.2949 20.4473L63.8164 19.4082C66.1475 19.1143 68.0068 17.8223 68.0957 16.4414H64.2129V15.3887H68.0957V13.9121H69.3809V15.3887H73.2637ZM84.8027 13.9121V18.793H86.7031V19.873H84.8027V26.1484H83.5039V13.9121H84.8027ZM81.6035 15.1973C81.5898 18.7383 80.0312 21.8965 75.998 23.8926L75.2734 22.8809C78.3428 21.3496 80.0107 19.1348 80.2773 16.2773H75.8887V15.1973H81.6035Z" fill="white"/>
</g>
<defs>
<filter id="filter0_d_1319_3517" x="0" y="0" width="107" height="48" filterUnits="userSpaceOnUse" color-interpolation-filters="sRGB">
<feFlood flood-opacity="0" result="BackgroundImageFix"/>
<feColorMatrix in="SourceAlpha" type="matrix" values="0 0 0 0 0 0 0 0 0 0 0 0 0 0 0 0 0 0 127 0" result="hardAlpha"/>
<feOffset dy="3"/>
<feGaussianBlur stdDeviation="3"/>
<feComposite in2="hardAlpha" operator="out"/>
<feColorMatrix type="matrix" values="0 0 0 0 0 0 0 0 0 0 0 0 0 0 0 0 0 0 0.15 0"/>
<feBlend mode="normal" in2="BackgroundImageFix" result="effect1_dropShadow_1319_3517"/>
<feBlend mode="normal" in="SourceGraphic" in2="effect1_dropShadow_1319_3517" result="shape"/>
</filter>
</defs>
</svg>
