<svg width="316" height="77" viewBox="0 0 316 77" fill="none" xmlns="http://www.w3.org/2000/svg">
<g filter="url(#filter0_d_1153_4372)">
<rect x="4" y="4" width="308" height="69" rx="10" fill="white"/>
</g>
<path d="M54.6641 30.5137V35.0117H46.6387V30.5137H54.6641ZM47.9238 31.5527V33.959H53.3926V31.5527H47.9238ZM46.4609 23.623V28.1621C48.2314 28.1621 49.8379 28.0322 51.5879 27.6836L51.7383 28.7773C49.8242 29.1738 48.1016 29.2695 46.1328 29.2695H45.1758V23.623H46.4609ZM54.6641 22.9121V29.9531H53.3652V26.1934H50.002V25.1406H53.3652V22.9121H54.6641ZM66.6953 22.9121V35.1621H65.3965V22.9121H66.6953ZM61.1582 26.8496C61.1582 28.8047 62.457 30.8008 64.3574 31.6074L63.6465 32.6055C62.2383 31.9902 61.1104 30.7188 60.543 29.1738C59.9893 30.8076 58.8818 32.168 57.4531 32.8105L56.7285 31.8125C58.6289 30.9648 59.8867 28.9004 59.8867 26.8496V26.043H57.0977V25.0039H59.873V23.1582H61.1582V25.0039H63.9062V26.043H61.1582V26.8496ZM78.5625 26.4941V27.5332H70.127V23.3496H71.4121V26.4941H78.5625ZM79.8477 29.0781V30.1172H68.6367V29.0781H79.8477ZM78.6445 33.8086V34.875H70.0312V31.2793H71.3301V33.8086H78.6445ZM88.4199 26.0293C88.4062 28.2031 89.6641 30.418 91.4961 31.3066L90.6895 32.3457C89.3564 31.6553 88.3242 30.2812 87.791 28.6406C87.2373 30.3906 86.1641 31.8535 84.7695 32.5781L83.9629 31.5254C85.8496 30.623 87.1211 28.2715 87.1211 26.0293V23.9375H88.4199V26.0293ZM93.7109 22.9121V27.793H95.6797V28.9004H93.7109V35.1621H92.4121V22.9121H93.7109ZM105.893 22.9258V25.9199H107.684V27H105.893V30.2949H104.594V22.9258H105.893ZM102.338 23.6641V27.0957H98.0723V28.5859C100.198 28.5791 101.702 28.5039 103.486 28.2031L103.623 29.2559C101.723 29.5977 100.109 29.666 97.7578 29.6523H96.7734V26.0977H101.066V24.7168H96.7598V23.6641H102.338ZM101.928 30.623C104.443 30.623 106.002 31.4707 106.002 32.8926C106.002 34.3145 104.443 35.1348 101.928 35.1348C99.3711 35.1348 97.8125 34.3145 97.8125 32.8926C97.8125 31.4707 99.3711 30.623 101.928 30.623ZM101.928 31.6484C100.137 31.6484 99.084 32.0996 99.084 32.8926C99.084 33.6855 100.137 34.1504 101.928 34.1367C103.705 34.1504 104.73 33.6855 104.73 32.8926C104.73 32.0996 103.705 31.6484 101.928 31.6484ZM113.945 23.1172C116.707 23.1172 118.32 23.8555 118.32 25.2227C118.32 26.5898 116.707 27.3418 113.945 27.3418C111.184 27.3418 109.57 26.5898 109.57 25.2227C109.57 23.8555 111.184 23.1172 113.945 23.1172ZM113.945 24.0742C111.99 24.0742 110.91 24.498 110.924 25.2227C110.91 25.9746 111.99 26.3711 113.945 26.3711C115.9 26.3711 116.98 25.9746 116.98 25.2227C116.98 24.498 115.9 24.0742 113.945 24.0742ZM119.537 28.0938V29.1328H108.367V28.0938H119.537ZM118.129 30.0762V32.9473H110.992V34.041H118.471V35.0391H109.721V32.0039H116.844V31.0469H109.707V30.0762H118.129ZM130.16 23.9922C130.146 25.6191 132.143 27.1504 134.549 27.4648L134.043 28.5312C132.04 28.21 130.276 27.1709 129.49 25.7285C128.684 27.1777 126.927 28.21 124.938 28.5312L124.418 27.4648C126.824 27.1504 128.793 25.6328 128.807 23.9922V23.3223H130.16V23.9922ZM135.055 29.7344V30.8008H130.078V35.1621H128.807V30.8008H123.885V29.7344H135.055ZM146.156 23.3359V24.375H142.451C142.663 25.5234 144.386 26.4805 146.58 26.6855L146.115 27.7109C143.982 27.4854 142.232 26.6104 141.562 25.3184C140.893 26.6104 139.143 27.4854 137.023 27.7109L136.559 26.6855C138.739 26.4805 140.462 25.5234 140.688 24.375H137.01V23.3359H146.156ZM138.65 30.2949V31.6074H144.434V30.2949H145.719V35.0117H137.365V30.2949H138.65ZM138.65 33.9727H144.434V32.6191H138.65V33.9727ZM147.154 28.3809V29.4336H142.205V31.0195H140.92V29.4336H135.984V28.3809H147.154ZM158.611 22.9121V35.1621H157.381V22.9121H158.611ZM156.027 23.2266V34.5605H154.797V28.873H152.404C151.673 30.2949 150.511 31.5391 148.781 32.5508L148.043 31.6211C150.641 30.0762 151.892 28.0186 152.117 25.4961H148.617V24.4297H153.402C153.396 25.626 153.231 26.7676 152.855 27.834H154.797V23.2266H156.027ZM173.514 24.0879V25.291C173.514 26.8086 173.514 28.5039 173.049 31.0059L171.736 30.8691C172.215 28.5039 172.215 26.7676 172.215 25.291V25.1406H164.777V24.0879H173.514ZM174.771 32.4277V33.5078H163.602V32.4277H167.854V28.1074H169.139V32.4277H174.771ZM177.451 23.6914V25.5645H179.816V23.6914H181.02V29.4746H176.221V23.6914H177.451ZM177.451 28.4219H179.816V26.5762H177.451V28.4219ZM186.146 22.9258V30.2812H184.916V27.1094H183.48V30.1992H182.277V23.1445H183.48V26.043H184.916V22.9258H186.146ZM186.146 30.9648V35.1621H184.861V32.0176H177.82V30.9648H186.146ZM197.344 22.9121V27.875H199.312V28.9551H197.344V35.1621H196.059V22.9121H197.344ZM194.992 24.8262V25.8926H187.732V24.8262H190.754V23.0762H192.053V24.8262H194.992ZM191.41 26.7949C193.16 26.7949 194.445 27.9707 194.459 29.6387C194.445 31.3203 193.16 32.4824 191.41 32.4961C189.646 32.4824 188.361 31.3203 188.361 29.6387C188.361 27.9707 189.646 26.7949 191.41 26.7949ZM191.41 27.8613C190.371 27.8613 189.592 28.5859 189.605 29.6387C189.592 30.7051 190.371 31.416 191.41 31.4023C192.449 31.416 193.215 30.7051 193.215 29.6387C193.215 28.5859 192.449 27.8613 191.41 27.8613ZM206.066 24.0879V25.7969H208.828V22.9121H210.113V35.1895H208.828V30.2129H206.066V32.0996H200.379V24.0879H206.066ZM201.664 25.0996V31.0605H204.795V25.0996H201.664ZM206.066 29.1602H208.828V26.8633H206.066V29.1602ZM214.201 33.0566L213.107 36.8301H211.945L212.67 33.0566H214.201ZM222.391 23.623C223.409 23.6162 224.277 23.999 224.852 24.6348H227.914V22.9121H229.213V30.1445H227.914V28.4902H224.838C224.271 29.1191 223.402 29.4951 222.391 29.4883C220.545 29.502 219.178 28.2715 219.178 26.5625C219.178 24.8398 220.545 23.6094 222.391 23.623ZM222.391 24.7441C221.242 24.7305 220.422 25.4688 220.422 26.5625C220.422 27.6289 221.242 28.3945 222.391 28.3809C223.512 28.3945 224.332 27.6289 224.332 26.5625C224.332 25.4688 223.512 24.7305 222.391 24.7441ZM225.111 30.418C227.654 30.418 229.254 31.2793 229.254 32.7832C229.254 34.2734 227.654 35.1484 225.111 35.1348C222.555 35.1484 220.955 34.2734 220.969 32.7832C220.955 31.2793 222.555 30.418 225.111 30.418ZM225.111 31.416C223.32 31.416 222.227 31.9082 222.24 32.7832C222.227 33.6309 223.32 34.1094 225.111 34.1094C226.916 34.1094 227.982 33.6309 227.982 32.7832C227.982 31.9082 226.916 31.416 225.111 31.416ZM225.439 25.6738C225.528 25.9473 225.576 26.248 225.576 26.5625C225.576 26.8633 225.528 27.1572 225.453 27.4238H227.914V25.6738H225.439ZM241.285 22.9258V32.209H239.986V31.0332H237.525V30.1172H239.986V22.9258H241.285ZM241.586 33.8496V34.9023H232.74V31.3066H234.025V33.8496H241.586ZM231.045 28.5176C233.314 28.5039 236.363 28.4766 238.975 28.1484L239.057 29.0781C238.011 29.249 236.91 29.3652 235.83 29.4336V31.8262H234.531V29.502C233.342 29.5566 232.2 29.5635 231.209 29.5566L231.045 28.5176ZM235.051 23.3906C236.842 23.3906 238.086 24.252 238.086 25.5508C238.086 26.8496 236.842 27.6836 235.051 27.6836C233.232 27.6836 232.002 26.8496 232.002 25.5508C232.002 24.252 233.232 23.3906 235.051 23.3906ZM235.051 24.3613C233.957 24.3477 233.219 24.8125 233.232 25.5508C233.219 26.2754 233.957 26.7266 235.051 26.7266C236.104 26.7266 236.842 26.2754 236.855 25.5508C236.842 24.8125 236.104 24.3477 235.051 24.3613ZM253.344 22.9121V35.1621H252.045V22.9121H253.344ZM250.855 24.8535V25.9062H243.473V24.8535H246.494V23.0352H247.807V24.8535H250.855ZM247.178 26.7949C248.969 26.7949 250.268 27.9707 250.268 29.6387C250.268 31.3203 248.969 32.4824 247.178 32.4961C245.4 32.4824 244.102 31.3203 244.102 29.6387C244.102 27.9707 245.4 26.7949 247.178 26.7949ZM247.178 27.8613C246.111 27.8613 245.332 28.5859 245.332 29.6387C245.332 30.7051 246.111 31.416 247.178 31.4023C248.244 31.416 249.023 30.7051 249.023 29.6387C249.023 28.5859 248.244 27.8613 247.178 27.8613ZM268.355 22.9121V26.0156H270.119V27.082H268.355V30.1445H267.043V22.9121H268.355ZM264.391 30.377C266.893 30.377 268.451 31.252 268.451 32.7559C268.451 34.2598 266.893 35.1484 264.391 35.1348C261.861 35.1484 260.275 34.2598 260.275 32.7559C260.275 31.252 261.861 30.377 264.391 30.377ZM264.391 31.4297C262.613 31.416 261.547 31.9082 261.561 32.7559C261.547 33.6035 262.613 34.0957 264.391 34.0957C266.127 34.0957 267.193 33.6035 267.207 32.7559C267.193 31.9082 266.127 31.416 264.391 31.4297ZM264.705 23.8145V24.8672H260.521V28.2031C262.935 28.1963 264.295 28.1211 265.84 27.8066L265.963 28.8594C264.322 29.2012 262.859 29.2559 260.207 29.2559H259.236V23.8145H264.705ZM280.975 22.9258V31.8945H279.676V22.9258H280.975ZM281.344 33.8496V34.9023H272.963V31.0469H274.275V33.8496H281.344ZM275.273 24.8125C275.26 26.6035 276.408 28.2441 278.295 28.9004L277.625 29.9395C276.21 29.4131 275.164 28.374 274.617 27.041C274.077 28.4629 273.018 29.6045 271.582 30.1582L270.885 29.1328C272.812 28.4219 273.947 26.6582 273.947 24.8125V23.5957H275.273V24.8125ZM54.7051 49.9531V50.9238H48.0195V51.9629H54.5137V52.9199H48.0195V54.0273H54.9238V54.9844H46.707V49.9531H54.7051ZM54.6641 42.9121V49.4609H53.3652V48.1348H50.2617V47.1367H53.3652V45.7285H50.4531C49.6943 47.6973 47.8418 49.0439 45.0938 49.7344L44.6016 48.6953C47.5752 47.9844 49.2021 46.5215 49.4141 44.6484H45.2168V43.5957H50.8223C50.8223 43.9922 50.7881 44.3682 50.7266 44.7305H53.3652V42.9121H54.6641ZM67.0918 42.9121V55.1621H65.8477V42.9121H67.0918ZM64.6035 43.1445V54.5605H63.3594V48.6543H61.9785C61.8691 51.0469 60.8438 52.5371 59.3262 52.5234C57.7266 52.5371 56.6875 50.8555 56.6875 48.2031C56.6875 45.5508 57.7266 43.8828 59.3262 43.8965C60.8164 43.8828 61.8281 45.2979 61.9785 47.6016H63.3594V43.1445H64.6035ZM59.3262 45.1133C58.4375 45.1133 57.8906 46.248 57.8906 48.2031C57.8906 50.1582 58.4375 51.293 59.3262 51.293C60.2285 51.293 60.7891 50.1582 60.7891 48.2031C60.7891 46.248 60.2285 45.1133 59.3262 45.1133ZM78.2344 44.0879V47.3145H80.9961V42.9121H82.2812V55.1895H80.9961V48.3672H78.2344V52.0996H72.5469V44.0879H78.2344ZM73.832 45.0996V51.0605H76.9629V45.0996H73.832ZM95.3379 47.9844V49.0234H90.3887V50.0898H93.9297V52.9609H86.793V54.041H94.2715V55.0391H85.5215V52.0176H92.6445V51.0879H85.5078V50.0898H89.0898V49.0234H84.168V47.9844H95.3379ZM93.9023 43.3086V47.082H85.6035V43.3086H93.9023ZM86.875 44.334V46.0566H92.6035V44.334H86.875ZM106.18 44.0879V45.291C106.18 46.8086 106.18 48.5039 105.715 51.0059L104.402 50.8691C104.881 48.5039 104.881 46.7676 104.881 45.291V45.1406H97.4434V44.0879H106.18ZM107.438 52.4277V53.5078H96.2676V52.4277H100.52V48.1074H101.805V52.4277H107.438ZM118.484 43.5V44.5391H116.707V47.123H118.43V48.1621H109.447V47.123H111.184V44.5391H109.393V43.5H118.484ZM119.537 49.3789V50.4316H108.367V49.3789H119.537ZM118.279 53.8496V54.9023H109.775V51.457H111.088V53.8496H118.279ZM112.469 47.123H115.408V44.5391H112.469V47.123ZM134.098 42.9258V51.9492H132.799V48.7637H129.764C129.183 49.4541 128.294 49.8711 127.275 49.8711C125.43 49.8711 124.062 48.5859 124.062 46.7812C124.062 44.9629 125.43 43.6777 127.275 43.6641C128.287 43.6709 129.169 44.0879 129.75 44.7715H132.799V42.9258H134.098ZM134.426 53.8496V54.9023H126.141V51.0059H127.439V53.8496H134.426ZM127.275 44.8262C126.127 44.8262 125.307 45.6191 125.307 46.7812C125.307 47.9434 126.127 48.7227 127.275 48.7227C128.383 48.7227 129.217 47.9434 129.217 46.7812C129.217 45.6191 128.383 44.8262 127.275 44.8262ZM130.324 45.8242C130.406 46.1182 130.461 46.4395 130.461 46.7812C130.461 47.1094 130.413 47.4238 130.324 47.7109H132.799V45.8242H130.324ZM146.143 42.9258V51.8262H144.844V42.9258H146.143ZM146.512 53.8496V54.9023H138.131V50.9238H139.443V53.8496H146.512ZM139.498 43.7461C141.344 43.7461 142.752 45.0039 142.752 46.7812C142.752 48.5859 141.344 49.8301 139.498 49.8301C137.652 49.8301 136.23 48.5859 136.23 46.7812C136.23 45.0039 137.652 43.7461 139.498 43.7461ZM139.498 44.8809C138.35 44.8809 137.502 45.6602 137.502 46.7812C137.502 47.9297 138.35 48.6953 139.498 48.6953C140.619 48.6953 141.48 47.9297 141.48 46.7812C141.48 45.6602 140.619 44.8809 139.498 44.8809ZM152.076 43.7871C154.018 43.7734 155.398 44.9766 155.412 46.6992C155.398 48.4219 154.018 49.625 152.076 49.625C150.148 49.625 148.727 48.4219 148.74 46.6992C148.727 44.9766 150.148 43.7734 152.076 43.7871ZM152.076 44.9082C150.887 44.9082 150.012 45.6191 150.025 46.6992C150.012 47.7793 150.887 48.4902 152.076 48.4902C153.266 48.4902 154.141 47.7793 154.141 46.6992C154.141 45.6191 153.266 44.9082 152.076 44.9082ZM158.215 42.9121V55.1895H156.916V42.9121H158.215ZM148.152 51.4707C150.381 51.4707 153.471 51.4434 156.15 51.0605L156.246 52.0039C153.471 52.5371 150.504 52.5508 148.316 52.5508L148.152 51.4707ZM173.814 42.9121V52.0039H172.516V48.627H170.602V47.5332H172.516V46.248H170.602V45.1816H172.516V42.9121H173.814ZM170.465 43.8691V44.9219H169.289V49.0234C169.809 48.9824 170.308 48.9414 170.793 48.8867L170.848 49.8438C168.496 50.2129 165.748 50.2539 163.779 50.2676L163.615 49.1738C164.073 49.1738 164.579 49.1738 165.105 49.1602V44.9219H163.957V43.8691H170.465ZM174.129 53.8496V54.9023H165.83V51.2656H167.143V53.8496H174.129ZM166.363 49.1465C166.917 49.1328 167.478 49.1191 168.045 49.0918V44.9219H166.363V49.1465ZM180.213 46.5215C180.213 48.5723 181.553 50.6914 183.439 51.498L182.729 52.5098C181.286 51.874 180.138 50.5273 179.57 48.8867C179.003 50.6367 177.848 52.127 176.426 52.8242L175.674 51.7988C177.52 50.9375 178.887 48.627 178.9 46.5215V45.2227H176.098V44.1426H183.002V45.2227H180.213V46.5215ZM185.846 42.9121V55.1621H184.547V42.9121H185.846Z" fill="#555557"/>
<path d="M32.3715 42.741C32.5313 42.7412 32.6864 42.7946 32.8123 42.893C32.9382 42.9914 33.0277 43.129 33.0664 43.284L33.3446 44.3957L34.4573 44.6738C34.6124 44.7127 34.75 44.8022 34.8483 44.9282C34.9466 45.0542 35 45.2094 35 45.3692C35 45.529 34.9466 45.6843 34.8483 45.8103C34.75 45.9363 34.6124 46.0258 34.4573 46.0646L33.3446 46.3428L33.0674 47.4555C33.0289 47.6109 32.9394 47.749 32.8133 47.8477C32.6872 47.9464 32.5316 48 32.3715 48C32.2113 48 32.0558 47.9464 31.9296 47.8477C31.8035 47.749 31.7141 47.6109 31.6755 47.4555L31.3983 46.3428L30.2856 46.0656C30.1301 46.0271 29.9921 45.9376 29.8934 45.8115C29.7947 45.6854 29.741 45.5299 29.741 45.3697C29.741 45.2096 29.7947 45.054 29.8934 44.9279C29.9921 44.8018 30.1301 44.7123 30.2856 44.6738L31.3974 44.3966L31.6755 43.284C31.7144 43.1288 31.8039 42.9911 31.93 42.8927C32.0561 42.7943 32.2115 42.7409 32.3715 42.741ZM18.1318 29.6043C18.4166 28.7717 19.6469 28.7995 19.8697 29.6875L20.1526 30.8231L21.2883 31.107C22.206 31.3364 22.206 32.6392 21.2883 32.8677L20.1526 33.1516L19.8697 34.2872C19.6402 35.2048 18.3373 35.2048 18.1079 34.2872L17.8239 33.1516L16.6883 32.8677C15.7706 32.6383 15.7706 31.3364 16.6883 31.107L17.8239 30.8231L18.1079 29.6875L18.1318 29.6043ZM18.9883 31.7933C18.9333 31.867 18.8679 31.9323 18.7942 31.9873C18.8679 32.0423 18.9333 32.1077 18.9883 32.1814C19.0433 32.1077 19.1087 32.0423 19.1823 31.9873C19.1086 31.932 19.0432 31.8673 18.9883 31.7933ZM30.2091 30.7705C30.4422 30.5376 30.7582 30.4068 31.0876 30.4068C31.4171 30.4068 31.7331 30.5376 31.9662 30.7705L33.5884 32.3926C33.8213 32.6256 33.9521 32.9416 33.9521 33.2711C33.9521 33.6005 33.8213 33.9165 33.5884 34.1495L31.7635 35.9753L28.3833 32.5953L30.2091 30.7705ZM22.6381 45.1002C22.5714 45.1665 22.4866 45.2118 22.3943 45.2302L19.0141 45.906C18.937 45.9213 18.8573 45.9174 18.7821 45.8946C18.7068 45.8718 18.6384 45.8308 18.5828 45.7752C18.5272 45.7196 18.4862 45.6512 18.4634 45.5759C18.4405 45.5007 18.4366 45.421 18.452 45.3439L19.1278 41.9649C19.1463 41.8721 19.1919 41.787 19.2588 41.7201L27.7074 33.2711L31.0876 36.6511L22.6381 45.1002Z" fill="#C2C4C7"/>
<defs>
<filter id="filter0_d_1153_4372" x="0" y="0" width="316" height="77" filterUnits="userSpaceOnUse" color-interpolation-filters="sRGB">
<feFlood flood-opacity="0" result="BackgroundImageFix"/>
<feColorMatrix in="SourceAlpha" type="matrix" values="0 0 0 0 0 0 0 0 0 0 0 0 0 0 0 0 0 0 127 0" result="hardAlpha"/>
<feOffset/>
<feGaussianBlur stdDeviation="2"/>
<feComposite in2="hardAlpha" operator="out"/>
<feColorMatrix type="matrix" values="0 0 0 0 0 0 0 0 0 0 0 0 0 0 0 0 0 0 0.15 0"/>
<feBlend mode="normal" in2="BackgroundImageFix" result="effect1_dropShadow_1153_4372"/>
<feBlend mode="normal" in="SourceGraphic" in2="effect1_dropShadow_1153_4372" result="shape"/>
</filter>
</defs>
</svg>
