<svg width="72" height="72" viewBox="0 0 72 72" fill="none" xmlns="http://www.w3.org/2000/svg">
<g opacity="0.3" filter="url(#filter0_f_1319_3941)">
<circle cx="36" cy="36" r="16" fill="#FF5F2F"/>
</g>
<path d="M42.55 50H30.45C27.16 50 24.5 47.34 24.5 44.05V32.03C24.5 28.7 27.2 26 30.53 26H42.48C45.8 26 48.5 28.7 48.5 32.03V44.06C48.5 47.34 45.84 50 42.55 50Z" fill="url(#paint0_radial_1319_3941)"/>
<path d="M42.55 50H30.45C27.16 50 24.5 47.34 24.5 44.05V32.03C24.5 28.7 27.2 26 30.53 26H42.48C45.8 26 48.5 28.7 48.5 32.03V44.06C48.5 47.34 45.84 50 42.55 50Z" fill="url(#paint1_linear_1319_3941)"/>
<path d="M42.55 50H30.45C27.16 50 24.5 47.34 24.5 44.05V32.03C24.5 28.7 27.2 26 30.53 26H42.48C45.8 26 48.5 28.7 48.5 32.03V44.06C48.5 47.34 45.84 50 42.55 50Z" fill="url(#paint2_linear_1319_3941)"/>
<path d="M42.55 50H30.45C27.16 50 24.5 47.34 24.5 44.05V32.03C24.5 28.7 27.2 26 30.53 26H42.48C45.8 26 48.5 28.7 48.5 32.03V44.06C48.5 47.34 45.84 50 42.55 50Z" fill="url(#paint3_radial_1319_3941)"/>
<path fill-rule="evenodd" clip-rule="evenodd" d="M48.5 33.09V24H49.5V33.09H48.5Z" fill="url(#paint4_linear_1319_3941)"/>
<path d="M48.9992 25.1C49.8553 25.1 50.5492 24.406 50.5492 23.55C50.5492 22.694 49.8553 22 48.9992 22C48.1432 22 47.4492 22.694 47.4492 23.55C47.4492 24.406 48.1432 25.1 48.9992 25.1Z" fill="url(#paint5_radial_1319_3941)"/>
<path d="M48.5 42.9401V31.9301C49.6 31.9301 50.5 32.8301 50.5 33.9301V40.9401C50.5 42.0401 49.6 42.9401 48.5 42.9401Z" fill="url(#paint6_linear_1319_3941)"/>
<path d="M48.5 42.9401V31.9301C49.6 31.9301 50.5 32.8301 50.5 33.9301V40.9401C50.5 42.0401 49.6 42.9401 48.5 42.9401Z" fill="url(#paint7_radial_1319_3941)"/>
<path d="M48.5 42.9401V31.9301C49.6 31.9301 50.5 32.8301 50.5 33.9301V40.9401C50.5 42.0401 49.6 42.9401 48.5 42.9401Z" fill="url(#paint8_radial_1319_3941)"/>
<path opacity="0.3" fill-rule="evenodd" clip-rule="evenodd" d="M49 31L49 25L49.25 25L49.25 31L49 31Z" fill="url(#paint9_linear_1319_3941)"/>
<path fill-rule="evenodd" clip-rule="evenodd" d="M23.5 33.05V23.95H24.5V33.05H23.5Z" fill="url(#paint10_linear_1319_3941)"/>
<path d="M24.5 32V43C23.4 43 22.5 42.1008 22.5 41.0018V33.9982C22.5 32.8992 23.4 32 24.5 32Z" fill="url(#paint11_linear_1319_3941)"/>
<path d="M24 25C24.8284 25 25.5 24.3284 25.5 23.5C25.5 22.6716 24.8284 22 24 22C23.1716 22 22.5 22.6716 22.5 23.5C22.5 24.3284 23.1716 25 24 25Z" fill="url(#paint12_radial_1319_3941)"/>
<path opacity="0.3" fill-rule="evenodd" clip-rule="evenodd" d="M24 31L24 25L24.25 25L24.25 31L24 31Z" fill="url(#paint13_linear_1319_3941)"/>
<path d="M43.2526 38.5H29.7474C27.4078 38.5 25.5 36.591 25.5 34.25C25.5 31.909 27.4078 30 29.7474 30H43.2526C45.5922 30 47.5 31.909 47.5 34.25C47.5 36.581 45.5822 38.5 43.2526 38.5Z" fill="url(#paint14_linear_1319_3941)"/>
<path d="M39.0282 46H33.9718C33.1608 46 32.5 45.3265 32.5 44.5C32.5 43.6735 33.1608 43 33.9718 43H39.0282C39.8392 43 40.5 43.6735 40.5 44.5C40.5 45.3265 39.8392 46 39.0282 46Z" fill="url(#paint15_linear_1319_3941)"/>
<rect x="27.5" y="32" width="4.5" height="6" rx="2" fill="url(#paint16_radial_1319_3941)"/>
<rect x="39" y="32" width="4.5" height="6" rx="2" fill="url(#paint17_radial_1319_3941)"/>
<rect x="31.5" y="23" width="10" height="3" rx="1.5" fill="url(#paint18_linear_1319_3941)"/>
<rect x="31.5" y="23" width="10" height="3" rx="1.5" fill="url(#paint19_radial_1319_3941)"/>
<rect x="29.5" y="32" width="2.5" height="5" rx="1.25" fill="url(#paint20_linear_1319_3941)"/>
<rect x="29.5" y="32" width="2.5" height="5" rx="1.25" fill="url(#paint21_radial_1319_3941)"/>
<rect x="41" y="32" width="2.5" height="5" rx="1.25" fill="url(#paint22_linear_1319_3941)"/>
<rect x="41" y="32" width="2.5" height="5" rx="1.25" fill="url(#paint23_radial_1319_3941)"/>
<ellipse cx="49.5" cy="33.5" rx="1" ry="1.5" fill="url(#paint24_radial_1319_3941)"/>
<path d="M40.2754 23.0253C40.8826 23.1379 41.3605 23.6165 41.4736 24.2235C41.372 24.6681 40.9753 24.9999 40.5 24.9999C39.9477 24.9999 39.5 24.5522 39.5 23.9999C39.5001 23.5249 39.8313 23.1272 40.2754 23.0253Z" fill="url(#paint25_radial_1319_3941)"/>
<defs>
<filter id="filter0_f_1319_3941" x="0" y="0" width="72" height="72" filterUnits="userSpaceOnUse" color-interpolation-filters="sRGB">
<feFlood flood-opacity="0" result="BackgroundImageFix"/>
<feBlend mode="normal" in="SourceGraphic" in2="BackgroundImageFix" result="shape"/>
<feGaussianBlur stdDeviation="10" result="effect1_foregroundBlur_1319_3941"/>
</filter>
<radialGradient id="paint0_radial_1319_3941" cx="0" cy="0" r="1" gradientUnits="userSpaceOnUse" gradientTransform="translate(45.5 31.5) rotate(141.911) scale(23.5053)">
<stop stop-color="#EEEBF0"/>
<stop offset="0.493469" stop-color="#D1BEE3"/>
<stop offset="1" stop-color="#D0BCE2"/>
</radialGradient>
<linearGradient id="paint1_linear_1319_3941" x1="32.7211" y1="38" x2="24.5" y2="38" gradientUnits="userSpaceOnUse">
<stop stop-color="#D5B2C0" stop-opacity="0"/>
<stop offset="1" stop-color="#B4878D"/>
</linearGradient>
<linearGradient id="paint2_linear_1319_3941" x1="36.5" y1="46.8609" x2="36.5" y2="50" gradientUnits="userSpaceOnUse">
<stop stop-color="#B17EDB" stop-opacity="0"/>
<stop offset="1" stop-color="#A56BD6" stop-opacity="0.7"/>
</linearGradient>
<radialGradient id="paint3_radial_1319_3941" cx="0" cy="0" r="1" gradientTransform="matrix(10 -0.5625 3.49857 12.6977 40.8125 33.375)" gradientUnits="userSpaceOnUse">
<stop stop-color="#F0EAF6"/>
<stop offset="1" stop-color="#E7E0EF" stop-opacity="0"/>
</radialGradient>
<linearGradient id="paint4_linear_1319_3941" x1="49.5" y1="24" x2="49.5" y2="33.09" gradientUnits="userSpaceOnUse">
<stop stop-color="#EA248A"/>
<stop offset="1" stop-color="#DF2232"/>
</linearGradient>
<radialGradient id="paint5_radial_1319_3941" cx="0" cy="0" r="1" gradientUnits="userSpaceOnUse" gradientTransform="translate(49.5159 23.0333) rotate(104.036) scale(2.13027)">
<stop stop-color="#FF6C82"/>
<stop offset="0.441384" stop-color="#FF2455"/>
<stop offset="1" stop-color="#D9206C"/>
</radialGradient>
<linearGradient id="paint6_linear_1319_3941" x1="49.5" y1="31.9301" x2="49.5" y2="42.9401" gradientUnits="userSpaceOnUse">
<stop stop-color="#FF30AA"/>
<stop offset="1" stop-color="#FF2353"/>
</linearGradient>
<radialGradient id="paint7_radial_1319_3941" cx="0" cy="0" r="1" gradientUnits="userSpaceOnUse" gradientTransform="translate(49.5 37.4351) rotate(90) scale(5.505 0.55944)">
<stop stop-color="#FF4B9C"/>
<stop offset="1" stop-color="#FF73C1" stop-opacity="0"/>
</radialGradient>
<radialGradient id="paint8_radial_1319_3941" cx="0" cy="0" r="1" gradientUnits="userSpaceOnUse" gradientTransform="translate(50.3 32.3333) rotate(96.9112) scale(2.2161 1.6225)">
<stop stop-color="#FF72C1"/>
<stop offset="1" stop-color="#FF6EBF" stop-opacity="0"/>
</radialGradient>
<linearGradient id="paint9_linear_1319_3941" x1="49" y1="27" x2="49" y2="29" gradientUnits="userSpaceOnUse">
<stop stop-color="#FF96CB"/>
<stop offset="1" stop-color="#FF6DB7" stop-opacity="0"/>
</linearGradient>
<linearGradient id="paint10_linear_1319_3941" x1="24.5" y1="23.95" x2="24.5" y2="33.05" gradientUnits="userSpaceOnUse">
<stop stop-color="#EA248A"/>
<stop offset="1" stop-color="#DF2232"/>
</linearGradient>
<linearGradient id="paint11_linear_1319_3941" x1="23.5" y1="32" x2="23.5" y2="43" gradientUnits="userSpaceOnUse">
<stop stop-color="#E93273"/>
<stop offset="1" stop-color="#D21844"/>
</linearGradient>
<radialGradient id="paint12_radial_1319_3941" cx="0" cy="0" r="1" gradientUnits="userSpaceOnUse" gradientTransform="translate(24.5 23) rotate(104.036) scale(2.06155)">
<stop stop-color="#FF6C82"/>
<stop offset="0.441384" stop-color="#FF2455"/>
<stop offset="1" stop-color="#D9206C"/>
</radialGradient>
<linearGradient id="paint13_linear_1319_3941" x1="24" y1="27" x2="24" y2="29" gradientUnits="userSpaceOnUse">
<stop stop-color="#FF96CB"/>
<stop offset="1" stop-color="#FF6DB7" stop-opacity="0"/>
</linearGradient>
<linearGradient id="paint14_linear_1319_3941" x1="36.4982" y1="37.7006" x2="36.4982" y2="31.3908" gradientUnits="userSpaceOnUse">
<stop offset="0.00558659" stop-color="#443E75"/>
<stop offset="1" stop-color="#2F1A3B"/>
</linearGradient>
<linearGradient id="paint15_linear_1319_3941" x1="36.4982" y1="45.6859" x2="36.4982" y2="42.8893" gradientUnits="userSpaceOnUse">
<stop offset="0.00558659" stop-color="#39325E"/>
<stop offset="1" stop-color="#2B1831"/>
</linearGradient>
<radialGradient id="paint16_radial_1319_3941" cx="0" cy="0" r="1" gradientUnits="userSpaceOnUse" gradientTransform="translate(30 35) rotate(168.69) scale(2.54951 3.48912)">
<stop stop-color="#322649"/>
<stop offset="1" stop-color="#342950" stop-opacity="0"/>
</radialGradient>
<radialGradient id="paint17_radial_1319_3941" cx="0" cy="0" r="1" gradientUnits="userSpaceOnUse" gradientTransform="translate(41.5 35) rotate(168.69) scale(2.54951 3.48912)">
<stop stop-color="#322649"/>
<stop offset="1" stop-color="#342950" stop-opacity="0"/>
</radialGradient>
<linearGradient id="paint18_linear_1319_3941" x1="36.5" y1="23" x2="35" y2="26.5" gradientUnits="userSpaceOnUse">
<stop stop-color="#FFCE2B"/>
<stop offset="1" stop-color="#D9862D"/>
</linearGradient>
<radialGradient id="paint19_radial_1319_3941" cx="0" cy="0" r="1" gradientUnits="userSpaceOnUse" gradientTransform="translate(36.5 24) rotate(90) scale(3 10)">
<stop offset="0.430882" stop-color="#CA7E29" stop-opacity="0"/>
<stop offset="1" stop-color="#673F13"/>
</radialGradient>
<linearGradient id="paint20_linear_1319_3941" x1="32" y1="34" x2="29.5" y2="34" gradientUnits="userSpaceOnUse">
<stop stop-color="#29B6FE"/>
<stop offset="1" stop-color="#1769A8"/>
</linearGradient>
<radialGradient id="paint21_radial_1319_3941" cx="0" cy="0" r="1" gradientUnits="userSpaceOnUse" gradientTransform="translate(31.5 33.5) rotate(90) scale(2.5 1.14393)">
<stop stop-color="#54C8FF"/>
<stop offset="1" stop-color="#54C8FF" stop-opacity="0"/>
</radialGradient>
<linearGradient id="paint22_linear_1319_3941" x1="43.5" y1="34" x2="41" y2="34" gradientUnits="userSpaceOnUse">
<stop stop-color="#29B6FE"/>
<stop offset="1" stop-color="#1769A8"/>
</linearGradient>
<radialGradient id="paint23_radial_1319_3941" cx="0" cy="0" r="1" gradientUnits="userSpaceOnUse" gradientTransform="translate(43 33.5) rotate(90) scale(2.5 1.14393)">
<stop stop-color="#54C8FF"/>
<stop offset="1" stop-color="#54C8FF" stop-opacity="0"/>
</radialGradient>
<radialGradient id="paint24_radial_1319_3941" cx="0" cy="0" r="1" gradientUnits="userSpaceOnUse" gradientTransform="translate(49.5 33.5) rotate(90) scale(1.5 1)">
<stop stop-color="#FF72C1"/>
<stop offset="1" stop-color="#FF6EBF" stop-opacity="0"/>
</radialGradient>
<radialGradient id="paint25_radial_1319_3941" cx="0" cy="0" r="1" gradientUnits="userSpaceOnUse" gradientTransform="translate(40.4994 23.9999) rotate(90) scale(0.999939 0.999444)">
<stop stop-color="#FFEA60"/>
<stop offset="1" stop-color="#FFEF66" stop-opacity="0"/>
</radialGradient>
</defs>
</svg>
