<svg width="25" height="25" viewBox="0 0 25 25" fill="none" xmlns="http://www.w3.org/2000/svg">
<path d="M17.229 4.77622C11.9373 2.13601 5.66512 3.1551 2.80659 7.77415C-0.051937 12.3932 1.76844 18.5391 6.87449 21.5022C9.38337 22.9575 13.4332 24.4443 15.0788 22.4619C16.6919 20.5197 14.3124 19.2893 14.8675 18.2143C15.7615 16.485 19.7595 18.7538 22.3747 15.9583C25.3215 12.8068 22.3819 7.34837 17.229 4.77622ZM18.8126 14.9259C17.4356 14.9259 16.4456 13.9428 16.4456 12.6096C16.4456 11.2764 17.4356 10.2934 18.8126 10.2934C20.1896 10.2934 21.1797 11.2764 21.1797 12.6096C21.1797 13.9428 20.1896 14.9259 18.8126 14.9259Z" fill="url(#paint0_linear_433_270)"/>
<path d="M17.229 4.77622C11.9373 2.13601 5.66512 3.1551 2.80659 7.77415C-0.051937 12.3932 1.76844 18.5391 6.87449 21.5022C9.38337 22.9575 13.4332 24.4443 15.0788 22.4619C16.6919 20.5197 14.3124 19.2893 14.8675 18.2143C15.7615 16.485 19.7595 18.7538 22.3747 15.9583C25.3215 12.8068 22.3819 7.34837 17.229 4.77622ZM18.8126 14.9259C17.4356 14.9259 16.4456 13.9428 16.4456 12.6096C16.4456 11.2764 17.4356 10.2934 18.8126 10.2934C20.1896 10.2934 21.1797 11.2764 21.1797 12.6096C21.1797 13.9428 20.1896 14.9259 18.8126 14.9259Z" fill="url(#paint1_radial_433_270)"/>
<path d="M17.229 4.77622C11.9373 2.13601 5.66512 3.1551 2.80659 7.77415C-0.051937 12.3932 1.76844 18.5391 6.87449 21.5022C9.38337 22.9575 13.4332 24.4443 15.0788 22.4619C16.6919 20.5197 14.3124 19.2893 14.8675 18.2143C15.7615 16.485 19.7595 18.7538 22.3747 15.9583C25.3215 12.8068 22.3819 7.34837 17.229 4.77622ZM18.8126 14.9259C17.4356 14.9259 16.4456 13.9428 16.4456 12.6096C16.4456 11.2764 17.4356 10.2934 18.8126 10.2934C20.1896 10.2934 21.1797 11.2764 21.1797 12.6096C21.1797 13.9428 20.1896 14.9259 18.8126 14.9259Z" fill="url(#paint2_radial_433_270)"/>
<path d="M17.229 4.77622C11.9373 2.13601 5.66512 3.1551 2.80659 7.77415C-0.051937 12.3932 1.76844 18.5391 6.87449 21.5022C9.38337 22.9575 13.4332 24.4443 15.0788 22.4619C16.6919 20.5197 14.3124 19.2893 14.8675 18.2143C15.7615 16.485 19.7595 18.7538 22.3747 15.9583C25.3215 12.8068 22.3819 7.34837 17.229 4.77622ZM18.8126 14.9259C17.4356 14.9259 16.4456 13.9428 16.4456 12.6096C16.4456 11.2764 17.4356 10.2934 18.8126 10.2934C20.1896 10.2934 21.1797 11.2764 21.1797 12.6096C21.1797 13.9428 20.1896 14.9259 18.8126 14.9259Z" fill="url(#paint3_radial_433_270)"/>
<path d="M17.229 4.77622C11.9373 2.13601 5.66512 3.1551 2.80659 7.77415C-0.051937 12.3932 1.76844 18.5391 6.87449 21.5022C9.38337 22.9575 13.4332 24.4443 15.0788 22.4619C16.6919 20.5197 14.3124 19.2893 14.8675 18.2143C15.7615 16.485 19.7595 18.7538 22.3747 15.9583C25.3215 12.8068 22.3819 7.34837 17.229 4.77622ZM18.8126 14.9259C17.4356 14.9259 16.4456 13.9428 16.4456 12.6096C16.4456 11.2764 17.4356 10.2934 18.8126 10.2934C20.1896 10.2934 21.1797 11.2764 21.1797 12.6096C21.1797 13.9428 20.1896 14.9259 18.8126 14.9259Z" fill="url(#paint4_radial_433_270)"/>
<path d="M17.229 4.77622C11.9373 2.13601 5.66512 3.1551 2.80659 7.77415C-0.051937 12.3932 1.76844 18.5391 6.87449 21.5022C9.38337 22.9575 13.4332 24.4443 15.0788 22.4619C16.6919 20.5197 14.3124 19.2893 14.8675 18.2143C15.7615 16.485 19.7595 18.7538 22.3747 15.9583C25.3215 12.8068 22.3819 7.34837 17.229 4.77622ZM18.8126 14.9259C17.4356 14.9259 16.4456 13.9428 16.4456 12.6096C16.4456 11.2764 17.4356 10.2934 18.8126 10.2934C20.1896 10.2934 21.1797 11.2764 21.1797 12.6096C21.1797 13.9428 20.1896 14.9259 18.8126 14.9259Z" fill="url(#paint5_radial_433_270)"/>
<path d="M17.229 4.77622C11.9373 2.13601 5.66512 3.1551 2.80659 7.77415C-0.051937 12.3932 1.76844 18.5391 6.87449 21.5022C9.38337 22.9575 13.4332 24.4443 15.0788 22.4619C16.6919 20.5197 14.3124 19.2893 14.8675 18.2143C15.7615 16.485 19.7595 18.7538 22.3747 15.9583C25.3215 12.8068 22.3819 7.34837 17.229 4.77622ZM18.8126 14.9259C17.4356 14.9259 16.4456 13.9428 16.4456 12.6096C16.4456 11.2764 17.4356 10.2934 18.8126 10.2934C20.1896 10.2934 21.1797 11.2764 21.1797 12.6096C21.1797 13.9428 20.1896 14.9259 18.8126 14.9259Z" fill="url(#paint6_radial_433_270)"/>
<path d="M17.229 4.77622C11.9373 2.13601 5.66512 3.1551 2.80659 7.77415C-0.051937 12.3932 1.76844 18.5391 6.87449 21.5022C9.38337 22.9575 13.4332 24.4443 15.0788 22.4619C16.6919 20.5197 14.3124 19.2893 14.8675 18.2143C15.7615 16.485 19.7595 18.7538 22.3747 15.9583C25.3215 12.8068 22.3819 7.34837 17.229 4.77622ZM18.8126 14.9259C17.4356 14.9259 16.4456 13.9428 16.4456 12.6096C16.4456 11.2764 17.4356 10.2934 18.8126 10.2934C20.1896 10.2934 21.1797 11.2764 21.1797 12.6096C21.1797 13.9428 20.1896 14.9259 18.8126 14.9259Z" fill="url(#paint7_radial_433_270)"/>
<path d="M17.229 4.77622C11.9373 2.13601 5.66512 3.1551 2.80659 7.77415C-0.051937 12.3932 1.76844 18.5391 6.87449 21.5022C9.38337 22.9575 13.4332 24.4443 15.0788 22.4619C16.6919 20.5197 14.3124 19.2893 14.8675 18.2143C15.7615 16.485 19.7595 18.7538 22.3747 15.9583C25.3215 12.8068 22.3819 7.34837 17.229 4.77622ZM18.8126 14.9259C17.4356 14.9259 16.4456 13.9428 16.4456 12.6096C16.4456 11.2764 17.4356 10.2934 18.8126 10.2934C20.1896 10.2934 21.1797 11.2764 21.1797 12.6096C21.1797 13.9428 20.1896 14.9259 18.8126 14.9259Z" fill="url(#paint8_radial_433_270)"/>
<path d="M17.229 4.77622C11.9373 2.13601 5.66512 3.1551 2.80659 7.77415C-0.051937 12.3932 1.76844 18.5391 6.87449 21.5022C9.38337 22.9575 13.4332 24.4443 15.0788 22.4619C16.6919 20.5197 14.3124 19.2893 14.8675 18.2143C15.7615 16.485 19.7595 18.7538 22.3747 15.9583C25.3215 12.8068 22.3819 7.34837 17.229 4.77622ZM18.8126 14.9259C17.4356 14.9259 16.4456 13.9428 16.4456 12.6096C16.4456 11.2764 17.4356 10.2934 18.8126 10.2934C20.1896 10.2934 21.1797 11.2764 21.1797 12.6096C21.1797 13.9428 20.1896 14.9259 18.8126 14.9259Z" fill="url(#paint9_radial_433_270)"/>
<path d="M17.229 4.77622C11.9373 2.13601 5.66512 3.1551 2.80659 7.77415C-0.051937 12.3932 1.76844 18.5391 6.87449 21.5022C9.38337 22.9575 13.4332 24.4443 15.0788 22.4619C16.6919 20.5197 14.3124 19.2893 14.8675 18.2143C15.7615 16.485 19.7595 18.7538 22.3747 15.9583C25.3215 12.8068 22.3819 7.34837 17.229 4.77622ZM18.8126 14.9259C17.4356 14.9259 16.4456 13.9428 16.4456 12.6096C16.4456 11.2764 17.4356 10.2934 18.8126 10.2934C20.1896 10.2934 21.1797 11.2764 21.1797 12.6096C21.1797 13.9428 20.1896 14.9259 18.8126 14.9259Z" fill="url(#paint10_radial_433_270)"/>
<path d="M17.229 4.77622C11.9373 2.13601 5.66512 3.1551 2.80659 7.77415C-0.051937 12.3932 1.76844 18.5391 6.87449 21.5022C9.38337 22.9575 13.4332 24.4443 15.0788 22.4619C16.6919 20.5197 14.3124 19.2893 14.8675 18.2143C15.7615 16.485 19.7595 18.7538 22.3747 15.9583C25.3215 12.8068 22.3819 7.34837 17.229 4.77622ZM18.8126 14.9259C17.4356 14.9259 16.4456 13.9428 16.4456 12.6096C16.4456 11.2764 17.4356 10.2934 18.8126 10.2934C20.1896 10.2934 21.1797 11.2764 21.1797 12.6096C21.1797 13.9428 20.1896 14.9259 18.8126 14.9259Z" fill="url(#paint11_radial_433_270)"/>
<path d="M17.229 4.77622C11.9373 2.13601 5.66512 3.1551 2.80659 7.77415C-0.051937 12.3932 1.76844 18.5391 6.87449 21.5022C9.38337 22.9575 13.4332 24.4443 15.0788 22.4619C16.6919 20.5197 14.3124 19.2893 14.8675 18.2143C15.7615 16.485 19.7595 18.7538 22.3747 15.9583C25.3215 12.8068 22.3819 7.34837 17.229 4.77622ZM18.8126 14.9259C17.4356 14.9259 16.4456 13.9428 16.4456 12.6096C16.4456 11.2764 17.4356 10.2934 18.8126 10.2934C20.1896 10.2934 21.1797 11.2764 21.1797 12.6096C21.1797 13.9428 20.1896 14.9259 18.8126 14.9259Z" fill="url(#paint12_radial_433_270)"/>
<path d="M17.229 4.77622C11.9373 2.13601 5.66512 3.1551 2.80659 7.77415C-0.051937 12.3932 1.76844 18.5391 6.87449 21.5022C9.38337 22.9575 13.4332 24.4443 15.0788 22.4619C16.6919 20.5197 14.3124 19.2893 14.8675 18.2143C15.7615 16.485 19.7595 18.7538 22.3747 15.9583C25.3215 12.8068 22.3819 7.34837 17.229 4.77622ZM18.8126 14.9259C17.4356 14.9259 16.4456 13.9428 16.4456 12.6096C16.4456 11.2764 17.4356 10.2934 18.8126 10.2934C20.1896 10.2934 21.1797 11.2764 21.1797 12.6096C21.1797 13.9428 20.1896 14.9259 18.8126 14.9259Z" fill="url(#paint13_radial_433_270)"/>
<path d="M17.229 4.77622C11.9373 2.13601 5.66512 3.1551 2.80659 7.77415C-0.051937 12.3932 1.76844 18.5391 6.87449 21.5022C9.38337 22.9575 13.4332 24.4443 15.0788 22.4619C16.6919 20.5197 14.3124 19.2893 14.8675 18.2143C15.7615 16.485 19.7595 18.7538 22.3747 15.9583C25.3215 12.8068 22.3819 7.34837 17.229 4.77622ZM18.8126 14.9259C17.4356 14.9259 16.4456 13.9428 16.4456 12.6096C16.4456 11.2764 17.4356 10.2934 18.8126 10.2934C20.1896 10.2934 21.1797 11.2764 21.1797 12.6096C21.1797 13.9428 20.1896 14.9259 18.8126 14.9259Z" fill="url(#paint14_radial_433_270)"/>
<path d="M17.229 4.77622C11.9373 2.13601 5.66512 3.1551 2.80659 7.77415C-0.051937 12.3932 1.76844 18.5391 6.87449 21.5022C9.38337 22.9575 13.4332 24.4443 15.0788 22.4619C16.6919 20.5197 14.3124 19.2893 14.8675 18.2143C15.7615 16.485 19.7595 18.7538 22.3747 15.9583C25.3215 12.8068 22.3819 7.34837 17.229 4.77622ZM18.8126 14.9259C17.4356 14.9259 16.4456 13.9428 16.4456 12.6096C16.4456 11.2764 17.4356 10.2934 18.8126 10.2934C20.1896 10.2934 21.1797 11.2764 21.1797 12.6096C21.1797 13.9428 20.1896 14.9259 18.8126 14.9259Z" fill="url(#paint15_radial_433_270)"/>
<path d="M17.229 4.77622C11.9373 2.13601 5.66512 3.1551 2.80659 7.77415C-0.051937 12.3932 1.76844 18.5391 6.87449 21.5022C9.38337 22.9575 13.4332 24.4443 15.0788 22.4619C16.6919 20.5197 14.3124 19.2893 14.8675 18.2143C15.7615 16.485 19.7595 18.7538 22.3747 15.9583C25.3215 12.8068 22.3819 7.34837 17.229 4.77622ZM18.8126 14.9259C17.4356 14.9259 16.4456 13.9428 16.4456 12.6096C16.4456 11.2764 17.4356 10.2934 18.8126 10.2934C20.1896 10.2934 21.1797 11.2764 21.1797 12.6096C21.1797 13.9428 20.1896 14.9259 18.8126 14.9259Z" fill="url(#paint16_radial_433_270)"/>
<path d="M17.229 4.77622C11.9373 2.13601 5.66512 3.1551 2.80659 7.77415C-0.051937 12.3932 1.76844 18.5391 6.87449 21.5022C9.38337 22.9575 13.4332 24.4443 15.0788 22.4619C16.6919 20.5197 14.3124 19.2893 14.8675 18.2143C15.7615 16.485 19.7595 18.7538 22.3747 15.9583C25.3215 12.8068 22.3819 7.34837 17.229 4.77622ZM18.8126 14.9259C17.4356 14.9259 16.4456 13.9428 16.4456 12.6096C16.4456 11.2764 17.4356 10.2934 18.8126 10.2934C20.1896 10.2934 21.1797 11.2764 21.1797 12.6096C21.1797 13.9428 20.1896 14.9259 18.8126 14.9259Z" fill="url(#paint17_radial_433_270)"/>
<path d="M17.229 4.77622C11.9373 2.13601 5.66512 3.1551 2.80659 7.77415C-0.051937 12.3932 1.76844 18.5391 6.87449 21.5022C9.38337 22.9575 13.4332 24.4443 15.0788 22.4619C16.6919 20.5197 14.3124 19.2893 14.8675 18.2143C15.7615 16.485 19.7595 18.7538 22.3747 15.9583C25.3215 12.8068 22.3819 7.34837 17.229 4.77622ZM18.8126 14.9259C17.4356 14.9259 16.4456 13.9428 16.4456 12.6096C16.4456 11.2764 17.4356 10.2934 18.8126 10.2934C20.1896 10.2934 21.1797 11.2764 21.1797 12.6096C21.1797 13.9428 20.1896 14.9259 18.8126 14.9259Z" fill="url(#paint18_radial_433_270)"/>
<path d="M17.229 4.77622C11.9373 2.13601 5.66512 3.1551 2.80659 7.77415C-0.051937 12.3932 1.76844 18.5391 6.87449 21.5022C9.38337 22.9575 13.4332 24.4443 15.0788 22.4619C16.6919 20.5197 14.3124 19.2893 14.8675 18.2143C15.7615 16.485 19.7595 18.7538 22.3747 15.9583C25.3215 12.8068 22.3819 7.34837 17.229 4.77622ZM18.8126 14.9259C17.4356 14.9259 16.4456 13.9428 16.4456 12.6096C16.4456 11.2764 17.4356 10.2934 18.8126 10.2934C20.1896 10.2934 21.1797 11.2764 21.1797 12.6096C21.1797 13.9428 20.1896 14.9259 18.8126 14.9259Z" fill="url(#paint19_radial_433_270)"/>
<path d="M17.229 4.77622C11.9373 2.13601 5.66512 3.1551 2.80659 7.77415C-0.051937 12.3932 1.76844 18.5391 6.87449 21.5022C9.38337 22.9575 13.4332 24.4443 15.0788 22.4619C16.6919 20.5197 14.3124 19.2893 14.8675 18.2143C15.7615 16.485 19.7595 18.7538 22.3747 15.9583C25.3215 12.8068 22.3819 7.34837 17.229 4.77622ZM18.8126 14.9259C17.4356 14.9259 16.4456 13.9428 16.4456 12.6096C16.4456 11.2764 17.4356 10.2934 18.8126 10.2934C20.1896 10.2934 21.1797 11.2764 21.1797 12.6096C21.1797 13.9428 20.1896 14.9259 18.8126 14.9259Z" fill="url(#paint20_radial_433_270)"/>
<path d="M17.229 4.77622C11.9373 2.13601 5.66512 3.1551 2.80659 7.77415C-0.051937 12.3932 1.76844 18.5391 6.87449 21.5022C9.38337 22.9575 13.4332 24.4443 15.0788 22.4619C16.6919 20.5197 14.3124 19.2893 14.8675 18.2143C15.7615 16.485 19.7595 18.7538 22.3747 15.9583C25.3215 12.8068 22.3819 7.34837 17.229 4.77622ZM18.8126 14.9259C17.4356 14.9259 16.4456 13.9428 16.4456 12.6096C16.4456 11.2764 17.4356 10.2934 18.8126 10.2934C20.1896 10.2934 21.1797 11.2764 21.1797 12.6096C21.1797 13.9428 20.1896 14.9259 18.8126 14.9259Z" fill="url(#paint21_radial_433_270)"/>
<path d="M17.229 4.77622C11.9373 2.13601 5.66512 3.1551 2.80659 7.77415C-0.051937 12.3932 1.76844 18.5391 6.87449 21.5022C9.38337 22.9575 13.4332 24.4443 15.0788 22.4619C16.6919 20.5197 14.3124 19.2893 14.8675 18.2143C15.7615 16.485 19.7595 18.7538 22.3747 15.9583C25.3215 12.8068 22.3819 7.34837 17.229 4.77622ZM18.8126 14.9259C17.4356 14.9259 16.4456 13.9428 16.4456 12.6096C16.4456 11.2764 17.4356 10.2934 18.8126 10.2934C20.1896 10.2934 21.1797 11.2764 21.1797 12.6096C21.1797 13.9428 20.1896 14.9259 18.8126 14.9259Z" fill="url(#paint22_radial_433_270)"/>
<path d="M17.229 4.77622C11.9373 2.13601 5.66512 3.1551 2.80659 7.77415C-0.051937 12.3932 1.76844 18.5391 6.87449 21.5022C9.38337 22.9575 13.4332 24.4443 15.0788 22.4619C16.6919 20.5197 14.3124 19.2893 14.8675 18.2143C15.7615 16.485 19.7595 18.7538 22.3747 15.9583C25.3215 12.8068 22.3819 7.34837 17.229 4.77622ZM18.8126 14.9259C17.4356 14.9259 16.4456 13.9428 16.4456 12.6096C16.4456 11.2764 17.4356 10.2934 18.8126 10.2934C20.1896 10.2934 21.1797 11.2764 21.1797 12.6096C21.1797 13.9428 20.1896 14.9259 18.8126 14.9259Z" fill="url(#paint23_radial_433_270)"/>
<path d="M17.229 4.77622C11.9373 2.13601 5.66512 3.1551 2.80659 7.77415C-0.051937 12.3932 1.76844 18.5391 6.87449 21.5022C9.38337 22.9575 13.4332 24.4443 15.0788 22.4619C16.6919 20.5197 14.3124 19.2893 14.8675 18.2143C15.7615 16.485 19.7595 18.7538 22.3747 15.9583C25.3215 12.8068 22.3819 7.34837 17.229 4.77622ZM18.8126 14.9259C17.4356 14.9259 16.4456 13.9428 16.4456 12.6096C16.4456 11.2764 17.4356 10.2934 18.8126 10.2934C20.1896 10.2934 21.1797 11.2764 21.1797 12.6096C21.1797 13.9428 20.1896 14.9259 18.8126 14.9259Z" fill="url(#paint24_radial_433_270)"/>
<path d="M11.2412 8.81348C12.212 8.81348 12.999 8.02648 12.999 7.05566C12.999 6.08485 12.212 5.29785 11.2412 5.29785C10.2704 5.29785 9.4834 6.08485 9.4834 7.05566C9.4834 8.02648 10.2704 8.81348 11.2412 8.81348Z" fill="url(#paint25_linear_433_270)"/>
<path d="M11.2412 8.81348C12.212 8.81348 12.999 8.02648 12.999 7.05566C12.999 6.08485 12.212 5.29785 11.2412 5.29785C10.2704 5.29785 9.4834 6.08485 9.4834 7.05566C9.4834 8.02648 10.2704 8.81348 11.2412 8.81348Z" fill="url(#paint26_radial_433_270)"/>
<path d="M11.2412 8.81348C12.212 8.81348 12.999 8.02648 12.999 7.05566C12.999 6.08485 12.212 5.29785 11.2412 5.29785C10.2704 5.29785 9.4834 6.08485 9.4834 7.05566C9.4834 8.02648 10.2704 8.81348 11.2412 8.81348Z" fill="url(#paint27_radial_433_270)" fill-opacity="0.7"/>
<path d="M11.2412 8.81348C12.212 8.81348 12.999 8.02648 12.999 7.05566C12.999 6.08485 12.212 5.29785 11.2412 5.29785C10.2704 5.29785 9.4834 6.08485 9.4834 7.05566C9.4834 8.02648 10.2704 8.81348 11.2412 8.81348Z" fill="url(#paint28_radial_433_270)" fill-opacity="0.7"/>
<path d="M6.55371 11.9385C7.52452 11.9385 8.31152 11.1515 8.31152 10.1807C8.31152 9.20985 7.52452 8.42285 6.55371 8.42285C5.5829 8.42285 4.7959 9.20985 4.7959 10.1807C4.7959 11.1515 5.5829 11.9385 6.55371 11.9385Z" fill="url(#paint29_linear_433_270)"/>
<path d="M6.55371 11.9385C7.52452 11.9385 8.31152 11.1515 8.31152 10.1807C8.31152 9.20985 7.52452 8.42285 6.55371 8.42285C5.5829 8.42285 4.7959 9.20985 4.7959 10.1807C4.7959 11.1515 5.5829 11.9385 6.55371 11.9385Z" fill="url(#paint30_radial_433_270)"/>
<path d="M6.55371 11.9385C7.52452 11.9385 8.31152 11.1515 8.31152 10.1807C8.31152 9.20985 7.52452 8.42285 6.55371 8.42285C5.5829 8.42285 4.7959 9.20985 4.7959 10.1807C4.7959 11.1515 5.5829 11.9385 6.55371 11.9385Z" fill="url(#paint31_radial_433_270)" fill-opacity="0.9"/>
<path d="M6.55371 11.9385C7.52452 11.9385 8.31152 11.1515 8.31152 10.1807C8.31152 9.20985 7.52452 8.42285 6.55371 8.42285C5.5829 8.42285 4.7959 9.20985 4.7959 10.1807C4.7959 11.1515 5.5829 11.9385 6.55371 11.9385Z" fill="url(#paint32_radial_433_270)" fill-opacity="0.8"/>
<path d="M6.55371 17.4072C7.52452 17.4072 8.31152 16.6202 8.31152 15.6494C8.31152 14.6786 7.52452 13.8916 6.55371 13.8916C5.5829 13.8916 4.7959 14.6786 4.7959 15.6494C4.7959 16.6202 5.5829 17.4072 6.55371 17.4072Z" fill="url(#paint33_linear_433_270)"/>
<path d="M6.55371 17.4072C7.52452 17.4072 8.31152 16.6202 8.31152 15.6494C8.31152 14.6786 7.52452 13.8916 6.55371 13.8916C5.5829 13.8916 4.7959 14.6786 4.7959 15.6494C4.7959 16.6202 5.5829 17.4072 6.55371 17.4072Z" fill="url(#paint34_radial_433_270)" fill-opacity="0.8"/>
<path d="M6.55371 17.4072C7.52452 17.4072 8.31152 16.6202 8.31152 15.6494C8.31152 14.6786 7.52452 13.8916 6.55371 13.8916C5.5829 13.8916 4.7959 14.6786 4.7959 15.6494C4.7959 16.6202 5.5829 17.4072 6.55371 17.4072Z" fill="url(#paint35_radial_433_270)"/>
<path d="M6.55371 17.4072C7.52452 17.4072 8.31152 16.6202 8.31152 15.6494C8.31152 14.6786 7.52452 13.8916 6.55371 13.8916C5.5829 13.8916 4.7959 14.6786 4.7959 15.6494C4.7959 16.6202 5.5829 17.4072 6.55371 17.4072Z" fill="url(#paint36_radial_433_270)" fill-opacity="0.7"/>
<path d="M10.8506 20.9229C11.8214 20.9229 12.6084 20.1359 12.6084 19.165C12.6084 18.1942 11.8214 17.4072 10.8506 17.4072C9.87977 17.4072 9.09277 18.1942 9.09277 19.165C9.09277 20.1359 9.87977 20.9229 10.8506 20.9229Z" fill="url(#paint37_linear_433_270)"/>
<path d="M10.8506 20.9229C11.8214 20.9229 12.6084 20.1359 12.6084 19.165C12.6084 18.1942 11.8214 17.4072 10.8506 17.4072C9.87977 17.4072 9.09277 18.1942 9.09277 19.165C9.09277 20.1359 9.87977 20.9229 10.8506 20.9229Z" fill="url(#paint38_radial_433_270)" fill-opacity="0.9"/>
<path d="M10.8506 20.9229C11.8214 20.9229 12.6084 20.1359 12.6084 19.165C12.6084 18.1942 11.8214 17.4072 10.8506 17.4072C9.87977 17.4072 9.09277 18.1942 9.09277 19.165C9.09277 20.1359 9.87977 20.9229 10.8506 20.9229Z" fill="url(#paint39_radial_433_270)"/>
<path d="M10.8506 20.9229C11.8214 20.9229 12.6084 20.1359 12.6084 19.165C12.6084 18.1942 11.8214 17.4072 10.8506 17.4072C9.87977 17.4072 9.09277 18.1942 9.09277 19.165C9.09277 20.1359 9.87977 20.9229 10.8506 20.9229Z" fill="url(#paint40_radial_433_270)" fill-opacity="0.7"/>
<defs>
<linearGradient id="paint0_linear_433_270" x1="18.8126" y1="5.6127" x2="10.7234" y2="23.2161" gradientUnits="userSpaceOnUse">
<stop stop-color="#FFB9A1"/>
<stop offset="1" stop-color="#FFB4AD"/>
</linearGradient>
<radialGradient id="paint1_radial_433_270" cx="0" cy="0" r="1" gradientUnits="userSpaceOnUse" gradientTransform="translate(6.57106 10.217) rotate(-45) scale(2.14766 2.00938)">
<stop offset="0.731108" stop-color="#EDB88B"/>
<stop offset="0.907589" stop-color="#EDB88B" stop-opacity="0.62628"/>
<stop offset="1" stop-color="#EDB88B" stop-opacity="0"/>
</radialGradient>
<radialGradient id="paint2_radial_433_270" cx="0" cy="0" r="1" gradientUnits="userSpaceOnUse" gradientTransform="translate(10.8351 19.1348) rotate(-52.9175) scale(2.22993 2.10597)">
<stop offset="0.790354" stop-color="#EDB88B"/>
<stop offset="0.877087" stop-color="#EDB88B" stop-opacity="0.62628"/>
<stop offset="1" stop-color="#EDB88B" stop-opacity="0"/>
</radialGradient>
<radialGradient id="paint3_radial_433_270" cx="0" cy="0" r="1" gradientUnits="userSpaceOnUse" gradientTransform="translate(11.3135 6.91359) rotate(-36.1796) scale(2.10899)">
<stop offset="0.731108" stop-color="#EDB88B"/>
<stop offset="0.849303" stop-color="#EDB88B" stop-opacity="0.62628"/>
<stop offset="1" stop-color="#EDB88B" stop-opacity="0"/>
</radialGradient>
<radialGradient id="paint4_radial_433_270" cx="0" cy="0" r="1" gradientUnits="userSpaceOnUse" gradientTransform="translate(6.77615 15.3561) rotate(-51.0823) scale(1.9525 2.14885)">
<stop offset="0.731108" stop-color="#EDB88B"/>
<stop offset="0.849303" stop-color="#EDB88B" stop-opacity="0.62628"/>
<stop offset="1" stop-color="#EDB88B" stop-opacity="0"/>
</radialGradient>
<radialGradient id="paint5_radial_433_270" cx="0" cy="0" r="1" gradientUnits="userSpaceOnUse" gradientTransform="translate(11.0244 7.31115) rotate(134.605) scale(2.08323)">
<stop offset="0.697311" stop-color="#CB758C"/>
<stop offset="0.846864" stop-color="#CB758C" stop-opacity="0.328536"/>
<stop offset="0.933982" stop-color="#CB758C" stop-opacity="0.0820441"/>
<stop offset="1" stop-color="#CB758C" stop-opacity="0"/>
</radialGradient>
<radialGradient id="paint6_radial_433_270" cx="0" cy="0" r="1" gradientUnits="userSpaceOnUse" gradientTransform="translate(6.27322 10.4302) rotate(130.533) scale(2.08283)">
<stop offset="0.671126" stop-color="#CB758C"/>
<stop offset="0.846864" stop-color="#CB758C" stop-opacity="0.328536"/>
<stop offset="0.933982" stop-color="#CB758C" stop-opacity="0.0820441"/>
<stop offset="1" stop-color="#CB758C" stop-opacity="0"/>
</radialGradient>
<radialGradient id="paint7_radial_433_270" cx="0" cy="0" r="1" gradientUnits="userSpaceOnUse" gradientTransform="translate(6.26246 15.9374) rotate(120.104) scale(2.08994)">
<stop offset="0.674132" stop-color="#CB758C"/>
<stop offset="0.769365" stop-color="#CB758C" stop-opacity="0.657704"/>
<stop offset="0.846864" stop-color="#CB758C" stop-opacity="0.328536"/>
<stop offset="0.933982" stop-color="#CB758C" stop-opacity="0.0820441"/>
<stop offset="1" stop-color="#CB758C" stop-opacity="0"/>
</radialGradient>
<radialGradient id="paint8_radial_433_270" cx="0" cy="0" r="1" gradientUnits="userSpaceOnUse" gradientTransform="translate(10.5663 19.426) rotate(122.115) scale(2.10418)">
<stop offset="0.657242" stop-color="#CB758C"/>
<stop offset="0.846864" stop-color="#CB758C" stop-opacity="0.328536"/>
<stop offset="0.933982" stop-color="#CB758C" stop-opacity="0.0820441"/>
<stop offset="1" stop-color="#CB758C" stop-opacity="0"/>
</radialGradient>
<radialGradient id="paint9_radial_433_270" cx="0" cy="0" r="1" gradientUnits="userSpaceOnUse" gradientTransform="translate(19.0771 13.0721) rotate(91.3236) scale(2.56534 2.82332)">
<stop offset="0.750875" stop-color="#FFA575"/>
<stop offset="0.935982" stop-color="#FFA575" stop-opacity="0.113453"/>
<stop offset="1" stop-color="#FFA575" stop-opacity="0"/>
</radialGradient>
<radialGradient id="paint10_radial_433_270" cx="0" cy="0" r="1" gradientUnits="userSpaceOnUse" gradientTransform="translate(18.9256 12.4033) rotate(-89.4534) scale(2.84538 2.96045)">
<stop offset="0.699974" stop-color="#EF8096"/>
<stop offset="0.797633" stop-color="#EF8096" stop-opacity="0.816692"/>
<stop offset="0.920191" stop-color="#EF8096" stop-opacity="0.219224"/>
<stop offset="1" stop-color="#EF8096" stop-opacity="0"/>
</radialGradient>
<radialGradient id="paint11_radial_433_270" cx="0" cy="0" r="1" gradientUnits="userSpaceOnUse" gradientTransform="translate(16.3111 18.8062) rotate(-122.126) scale(1.82712)">
<stop stop-color="#EF8096"/>
<stop offset="0.682529" stop-color="#EF8096" stop-opacity="0.816692"/>
<stop offset="0.85691" stop-color="#EF8096" stop-opacity="0.219224"/>
<stop offset="1" stop-color="#EF8096" stop-opacity="0"/>
</radialGradient>
<radialGradient id="paint12_radial_433_270" cx="0" cy="0" r="1" gradientUnits="userSpaceOnUse" gradientTransform="translate(18.1231 18.4311) rotate(-88.3317) scale(1.67847 4.06975)">
<stop stop-color="#EF8096"/>
<stop offset="0.604536" stop-color="#EF8096" stop-opacity="0.816692"/>
<stop offset="0.848377" stop-color="#EF8096" stop-opacity="0.219224"/>
<stop offset="0.925103" stop-color="#EF8096" stop-opacity="0.094621"/>
<stop offset="1" stop-color="#EF8096" stop-opacity="0"/>
</radialGradient>
<radialGradient id="paint13_radial_433_270" cx="0" cy="0" r="1" gradientUnits="userSpaceOnUse" gradientTransform="translate(20.2244 18.4148) rotate(-104.769) scale(1.85301 5.86925)">
<stop stop-color="#EF8096"/>
<stop offset="0.638576" stop-color="#EF8096" stop-opacity="0.816692"/>
<stop offset="0.869861" stop-color="#EF8096" stop-opacity="0.219224"/>
<stop offset="0.931335" stop-color="#EF8096" stop-opacity="0.0949471"/>
<stop offset="1" stop-color="#EF8096" stop-opacity="0"/>
</radialGradient>
<radialGradient id="paint14_radial_433_270" cx="0" cy="0" r="1" gradientUnits="userSpaceOnUse" gradientTransform="translate(22.2029 17.5007) rotate(-126.853) scale(1.785 5.29469)">
<stop stop-color="#EF8096"/>
<stop offset="0.535628" stop-color="#EF8096" stop-opacity="0.816692"/>
<stop offset="0.84473" stop-color="#EF8096" stop-opacity="0.219224"/>
<stop offset="0.923387" stop-color="#EF8096" stop-opacity="0.0949471"/>
<stop offset="1" stop-color="#EF8096" stop-opacity="0"/>
</radialGradient>
<radialGradient id="paint15_radial_433_270" cx="0" cy="0" r="1" gradientUnits="userSpaceOnUse" gradientTransform="translate(23.588 15.8835) rotate(-143.939) scale(1.54069 6.6841)">
<stop stop-color="#EF8096"/>
<stop offset="0.55334" stop-color="#EF8096" stop-opacity="0.816692"/>
<stop offset="0.795708" stop-color="#EF8096" stop-opacity="0.219224"/>
<stop offset="0.893431" stop-color="#EF8096" stop-opacity="0.0949471"/>
<stop offset="1" stop-color="#EF8096" stop-opacity="0"/>
</radialGradient>
<radialGradient id="paint16_radial_433_270" cx="0" cy="0" r="1" gradientUnits="userSpaceOnUse" gradientTransform="translate(18.5349 12.7535) rotate(-180) scale(2.90649 2.89982)">
<stop offset="0.730765" stop-color="#FFD59D"/>
<stop offset="0.80256" stop-color="#FFD59D" stop-opacity="0.745717"/>
<stop offset="0.862097" stop-color="#FFD59D" stop-opacity="0.439082"/>
<stop offset="0.939145" stop-color="#FFD59D" stop-opacity="0.0985126"/>
<stop offset="1" stop-color="#FFD59D" stop-opacity="0"/>
</radialGradient>
<radialGradient id="paint17_radial_433_270" cx="0" cy="0" r="1" gradientUnits="userSpaceOnUse" gradientTransform="translate(15.5689 20.1264) rotate(150.357) scale(0.827204 2.81909)">
<stop offset="0.189899" stop-color="#FFD59D"/>
<stop offset="0.506834" stop-color="#FFD59D" stop-opacity="0.51"/>
<stop offset="0.81188" stop-color="#FFD59D" stop-opacity="0.0985126"/>
<stop offset="1" stop-color="#FFD59D" stop-opacity="0"/>
</radialGradient>
<radialGradient id="paint18_radial_433_270" cx="0" cy="0" r="1" gradientUnits="userSpaceOnUse" gradientTransform="translate(15.6809 21.6286) rotate(-177.72) scale(0.800486 2.78624)">
<stop offset="0.117169" stop-color="#FFD59D"/>
<stop offset="0.514392" stop-color="#FFD59D" stop-opacity="0.439082"/>
<stop offset="0.764228" stop-color="#FFD59D" stop-opacity="0.0985126"/>
<stop offset="1" stop-color="#FFD59D" stop-opacity="0"/>
</radialGradient>
<radialGradient id="paint19_radial_433_270" cx="0" cy="0" r="1" gradientUnits="userSpaceOnUse" gradientTransform="translate(14.8524 22.7242) rotate(-142.028) scale(0.668069 2.32534)">
<stop offset="0.0897534" stop-color="#FFD59D"/>
<stop offset="0.447473" stop-color="#FFD59D" stop-opacity="0.439082"/>
<stop offset="0.742179" stop-color="#FFD59D" stop-opacity="0.0985126"/>
<stop offset="1" stop-color="#FFD59D" stop-opacity="0"/>
</radialGradient>
<radialGradient id="paint20_radial_433_270" cx="0" cy="0" r="1" gradientUnits="userSpaceOnUse" gradientTransform="translate(15.0532 18.4459) rotate(-139.602) scale(0.815679)">
<stop offset="0.0897534" stop-color="#FFD59D"/>
<stop offset="0.457496" stop-color="#FFD59D" stop-opacity="0.439082"/>
<stop offset="0.838323" stop-color="#FFD59D" stop-opacity="0.0985126"/>
<stop offset="1" stop-color="#FFD59D" stop-opacity="0"/>
</radialGradient>
<radialGradient id="paint21_radial_433_270" cx="0" cy="0" r="1" gradientUnits="userSpaceOnUse" gradientTransform="translate(15.1331 23.2566) rotate(-126.961) scale(1.26112 5.47119)">
<stop stop-color="#EF8096"/>
<stop offset="0.462333" stop-color="#EF8096" stop-opacity="0.816692"/>
<stop offset="0.778047" stop-color="#EF8096" stop-opacity="0.219224"/>
<stop offset="0.888779" stop-color="#EF8096" stop-opacity="0.0949471"/>
<stop offset="1" stop-color="#EF8096" stop-opacity="0"/>
</radialGradient>
<radialGradient id="paint22_radial_433_270" cx="0" cy="0" r="1" gradientUnits="userSpaceOnUse" gradientTransform="translate(13.8835 12.1293) rotate(173.8) scale(12.5222 11.2756)">
<stop offset="0.923762" stop-color="#EF8096" stop-opacity="0"/>
<stop offset="0.946269" stop-color="#EF8096" stop-opacity="0.219224"/>
<stop offset="0.980819" stop-color="#EF8096" stop-opacity="0.816692"/>
<stop offset="1" stop-color="#EF8096"/>
</radialGradient>
<radialGradient id="paint23_radial_433_270" cx="0" cy="0" r="1" gradientUnits="userSpaceOnUse" gradientTransform="translate(11.2394 16.5979) rotate(-59.837) scale(13.1893 12.9098)">
<stop offset="0.944585" stop-color="#FFD59D" stop-opacity="0"/>
<stop offset="0.958508" stop-color="#FFD59D" stop-opacity="0.12"/>
<stop offset="0.968355" stop-color="#FFD59D" stop-opacity="0.24"/>
<stop offset="1" stop-color="#FFD59D"/>
</radialGradient>
<radialGradient id="paint24_radial_433_270" cx="0" cy="0" r="1" gradientUnits="userSpaceOnUse" gradientTransform="translate(13.7567 14.971) rotate(-144.716) scale(13.1556 10.9538)">
<stop offset="0.924582" stop-color="#FFA575" stop-opacity="0"/>
<stop offset="0.939759" stop-color="#FFA575" stop-opacity="0.12"/>
<stop offset="0.956056" stop-color="#FFA575" stop-opacity="0.32"/>
<stop offset="1" stop-color="#FFA575"/>
</radialGradient>
<linearGradient id="paint25_linear_433_270" x1="10.2117" y1="5.29785" x2="11.8271" y2="9.21358" gradientUnits="userSpaceOnUse">
<stop stop-color="#CC67F1"/>
<stop offset="1" stop-color="#C950FC"/>
</linearGradient>
<radialGradient id="paint26_radial_433_270" cx="0" cy="0" r="1" gradientUnits="userSpaceOnUse" gradientTransform="translate(10.81 7.48724) rotate(-35.1177) scale(2.34922 1.87051)">
<stop stop-color="#DF7DFB" stop-opacity="0"/>
<stop offset="0.515625" stop-color="#DF7DFB" stop-opacity="0"/>
<stop offset="0.661458" stop-color="#DF7DFB" stop-opacity="0.21"/>
<stop offset="0.901132" stop-color="#DF7DFB"/>
<stop offset="1" stop-color="#DF7DFB"/>
</radialGradient>
<radialGradient id="paint27_radial_433_270" cx="0" cy="0" r="1" gradientUnits="userSpaceOnUse" gradientTransform="translate(11.4864 6.84711) rotate(137.695) scale(2.10312 1.92994)">
<stop stop-color="#A242A3" stop-opacity="0"/>
<stop offset="0.5" stop-color="#A242A3" stop-opacity="0.0423604"/>
<stop offset="0.614583" stop-color="#A242A3" stop-opacity="0.12"/>
<stop offset="0.735907" stop-color="#A242A3" stop-opacity="0.35"/>
<stop offset="0.867278" stop-color="#A242A3" stop-opacity="0.73"/>
<stop offset="1" stop-color="#A242A3" stop-opacity="0.88"/>
</radialGradient>
<radialGradient id="paint28_radial_433_270" cx="0" cy="0" r="1" gradientUnits="userSpaceOnUse" gradientTransform="translate(11.2515 7.04789) rotate(-32.7145) scale(1.74177)">
<stop stop-color="#A242A3" stop-opacity="0"/>
<stop offset="0.814788" stop-color="#A242A3" stop-opacity="0"/>
<stop offset="0.894071" stop-color="#A242A3" stop-opacity="0"/>
<stop offset="0.92581" stop-color="#A242A3" stop-opacity="0.06"/>
<stop offset="0.959925" stop-color="#A242A3" stop-opacity="0.31"/>
<stop offset="1" stop-color="#A242A3" stop-opacity="0.73"/>
</radialGradient>
<linearGradient id="paint29_linear_433_270" x1="5.52421" y1="8.42285" x2="7.13961" y2="12.3386" gradientUnits="userSpaceOnUse">
<stop stop-color="#F9399F"/>
<stop offset="1" stop-color="#FD328C"/>
</linearGradient>
<radialGradient id="paint30_radial_433_270" cx="0" cy="0" r="1" gradientUnits="userSpaceOnUse" gradientTransform="translate(6.12249 10.6122) rotate(-35.1177) scale(2.34922 1.87051)">
<stop stop-color="#FF599E" stop-opacity="0"/>
<stop offset="0.472263" stop-color="#FF599E" stop-opacity="0"/>
<stop offset="0.608143" stop-color="#FF599E" stop-opacity="0.21"/>
<stop offset="0.793138" stop-color="#FF599E" stop-opacity="0.82"/>
<stop offset="0.901132" stop-color="#FF599E"/>
<stop offset="1" stop-color="#FF599E"/>
</radialGradient>
<radialGradient id="paint31_radial_433_270" cx="0" cy="0" r="1" gradientUnits="userSpaceOnUse" gradientTransform="translate(6.92493 10.0127) rotate(140.725) scale(2.17203 1.903)">
<stop stop-color="#CE2C6A" stop-opacity="0"/>
<stop offset="0.66548" stop-color="#CE2C6A" stop-opacity="0"/>
<stop offset="0.704647" stop-color="#CE2C6A" stop-opacity="0.08"/>
<stop offset="0.790943" stop-color="#CE2C6A" stop-opacity="0.32"/>
<stop offset="0.906935" stop-color="#CE2C6A" stop-opacity="0.77"/>
<stop offset="1" stop-color="#CE2C6A"/>
</radialGradient>
<radialGradient id="paint32_radial_433_270" cx="0" cy="0" r="1" gradientUnits="userSpaceOnUse" gradientTransform="translate(6.55731 10.1895) scale(1.79189)">
<stop stop-color="#CE2C6A" stop-opacity="0"/>
<stop offset="0.814788" stop-color="#CE2C6A" stop-opacity="0"/>
<stop offset="0.875709" stop-color="#CE2C6A" stop-opacity="0.05"/>
<stop offset="0.94411" stop-color="#CE2C6A" stop-opacity="0.4"/>
<stop offset="1" stop-color="#CE2C6A"/>
</radialGradient>
<linearGradient id="paint33_linear_433_270" x1="5.52421" y1="13.8916" x2="7.13961" y2="17.8073" gradientUnits="userSpaceOnUse">
<stop stop-color="#47CFA8"/>
<stop offset="1" stop-color="#48ABEB"/>
</linearGradient>
<radialGradient id="paint34_radial_433_270" cx="0" cy="0" r="1" gradientUnits="userSpaceOnUse" gradientTransform="translate(6.20379 16.1886) rotate(-38.4074) scale(2.34846 1.86991)">
<stop stop-color="#5DE4BC" stop-opacity="0"/>
<stop offset="0.496795" stop-color="#5DE4BC" stop-opacity="0"/>
<stop offset="0.662646" stop-color="#5DE4BC" stop-opacity="0.21"/>
<stop offset="0.86595" stop-color="#5DE4BC" stop-opacity="0.82"/>
<stop offset="1" stop-color="#5DE4BC"/>
</radialGradient>
<radialGradient id="paint35_radial_433_270" cx="0" cy="0" r="1" gradientUnits="userSpaceOnUse" gradientTransform="translate(6.79894 15.4409) rotate(137.695) scale(2.10312 1.92994)">
<stop stop-color="#3F88B1" stop-opacity="0"/>
<stop offset="0.572917" stop-color="#3F88B1" stop-opacity="0"/>
<stop offset="0.663509" stop-color="#3F88B1" stop-opacity="0.08"/>
<stop offset="0.801762" stop-color="#3F88B1" stop-opacity="0.36"/>
<stop offset="0.8839" stop-color="#3F88B1" stop-opacity="0.59"/>
<stop offset="1" stop-color="#3F88B1" stop-opacity="0.95"/>
</radialGradient>
<radialGradient id="paint36_radial_433_270" cx="0" cy="0" r="1" gradientUnits="userSpaceOnUse" gradientTransform="translate(6.55731 15.6582) scale(1.79189)">
<stop stop-color="#3F88B1" stop-opacity="0"/>
<stop offset="0.858643" stop-color="#3F88B1" stop-opacity="0"/>
<stop offset="0.902923" stop-color="#3F88B1" stop-opacity="0.106122"/>
<stop offset="0.942095" stop-color="#3F88B1" stop-opacity="0.26"/>
<stop offset="1" stop-color="#3F88B1" stop-opacity="0.77"/>
</radialGradient>
<linearGradient id="paint37_linear_433_270" x1="9.82108" y1="17.4072" x2="11.4365" y2="21.323" gradientUnits="userSpaceOnUse">
<stop stop-color="#49B1F1"/>
<stop offset="1" stop-color="#4982FE"/>
</linearGradient>
<radialGradient id="paint38_radial_433_270" cx="0" cy="0" r="1" gradientUnits="userSpaceOnUse" gradientTransform="translate(10.5007 19.7042) rotate(-38.4074) scale(2.34846 1.86991)">
<stop stop-color="#5DC0F1" stop-opacity="0"/>
<stop offset="0.496795" stop-color="#5DC0F1" stop-opacity="0"/>
<stop offset="0.662646" stop-color="#5DC0F1" stop-opacity="0.21"/>
<stop offset="0.86595" stop-color="#5DC0F1" stop-opacity="0.82"/>
<stop offset="1" stop-color="#5DC0F1"/>
</radialGradient>
<radialGradient id="paint39_radial_433_270" cx="0" cy="0" r="1" gradientUnits="userSpaceOnUse" gradientTransform="translate(11.0958 18.9565) rotate(137.695) scale(2.10312 1.92994)">
<stop stop-color="#4466EA" stop-opacity="0"/>
<stop offset="0.541733" stop-color="#4466EA" stop-opacity="0"/>
<stop offset="0.664584" stop-color="#4466EA" stop-opacity="0.13"/>
<stop offset="0.801762" stop-color="#4466EA" stop-opacity="0.42"/>
<stop offset="0.8839" stop-color="#4466EA" stop-opacity="0.64"/>
<stop offset="1" stop-color="#4466EA" stop-opacity="0.92"/>
</radialGradient>
<radialGradient id="paint40_radial_433_270" cx="0" cy="0" r="1" gradientUnits="userSpaceOnUse" gradientTransform="translate(10.8542 19.1739) scale(1.79189)">
<stop stop-color="#4466EA" stop-opacity="0"/>
<stop offset="0.858643" stop-color="#4466EA" stop-opacity="0"/>
<stop offset="0.902923" stop-color="#4466EA" stop-opacity="0.106122"/>
<stop offset="0.942095" stop-color="#4466EA" stop-opacity="0.26"/>
<stop offset="1" stop-color="#4466EA" stop-opacity="0.77"/>
</radialGradient>
</defs>
</svg>
