<svg width="74" height="74" viewBox="0 0 74 74" fill="none" xmlns="http://www.w3.org/2000/svg">
<circle cx="37" cy="37" r="37" fill="#F4F5F6"/>
<path d="M36.5566 37.1642C37.7281 37.1642 38.8733 36.8123 39.8473 36.153C40.8214 35.4937 41.5805 34.5566 42.0289 33.4603C42.4772 32.3639 42.5945 31.1575 42.3659 29.9936C42.1374 28.8298 41.5732 27.7607 40.7449 26.9215C39.9165 26.0824 38.8611 25.511 37.7122 25.2795C36.5632 25.048 35.3723 25.1668 34.29 25.6209C33.2077 26.075 32.2826 26.8441 31.6318 27.8308C30.9809 28.8175 30.6336 29.9775 30.6336 31.1642C30.6336 32.7555 31.2576 34.2816 32.3684 35.4068C33.4792 36.532 34.9857 37.1642 36.5566 37.1642ZM36.5566 38.8785C32.8854 38.8785 25.5566 41.1756 25.5566 45.7356V49.1642H47.5566V45.7356C47.5566 41.1756 40.2279 38.8785 36.5566 38.8785Z" fill="#E6E7E9"/>
</svg>
