<svg width="16" height="16" viewBox="0 0 16 16" fill="none" xmlns="http://www.w3.org/2000/svg">
<path d="M12.3571 2.86146L14.312 4.81496C14.4126 4.91483 14.4901 5.03536 14.5393 5.16819C14.5886 5.30102 14.6082 5.44296 14.597 5.58416C14.5858 5.72535 14.544 5.86242 14.4745 5.98585C14.4049 6.10927 14.3094 6.21609 14.1944 6.29889L12.7878 6.48448C12.5052 6.52324 12.242 6.64972 12.0353 6.84607C11.4589 7.40284 10.872 7.98841 9.89456 8.95557C9.72645 9.12516 9.60796 9.33795 9.55273 9.57074L8.8002 12.5882C8.73681 12.7337 8.63886 12.8616 8.51484 12.9607C8.39082 13.0599 8.24447 13.1273 8.08849 13.1572C7.9325 13.187 7.77157 13.1784 7.61966 13.1321C7.46775 13.0858 7.32943 13.0032 7.2167 12.8914L4.78301 10.4499L2.33971 8.01801C2.22783 7.90536 2.14513 7.76715 2.09878 7.61535C2.05243 7.46355 2.04382 7.30275 2.07371 7.14687C2.1036 6.991 2.17108 6.84476 2.2703 6.72084C2.36952 6.59691 2.49749 6.49903 2.64312 6.43569L5.64281 5.66452C5.87444 5.6004 6.08635 5.4794 6.25923 5.31254C7.3632 4.22859 7.76428 3.82861 8.38872 3.15424C8.57525 2.95425 8.69533 2.70226 8.73135 2.43188L8.91708 1.00554C9 0.890546 9.10699 0.794975 9.23061 0.725476C9.35423 0.655977 9.49151 0.614219 9.63292 0.603103C9.77432 0.591988 9.91645 0.611783 10.0494 0.661112C10.1824 0.710441 10.303 0.78812 10.4029 0.888748L12.3571 2.86146ZM4.74378 10.4595L0.600098 14.6001Z" fill="#CACBD1"/>
<path d="M4.74378 10.4595L0.600098 14.6001M12.3571 2.86146L14.312 4.81496C14.4126 4.91483 14.4901 5.03536 14.5393 5.16819C14.5886 5.30102 14.6082 5.44296 14.597 5.58416C14.5858 5.72535 14.544 5.86242 14.4745 5.98585C14.4049 6.10927 14.3094 6.21609 14.1944 6.29889L12.7878 6.48448C12.5052 6.52324 12.242 6.64972 12.0353 6.84607C11.4589 7.40284 10.872 7.98841 9.89456 8.95557C9.72645 9.12516 9.60796 9.33795 9.55273 9.57074L8.8002 12.5882C8.73681 12.7337 8.63886 12.8616 8.51484 12.9607C8.39082 13.0599 8.24447 13.1273 8.08849 13.1572C7.9325 13.187 7.77157 13.1784 7.61966 13.1321C7.46775 13.0858 7.32943 13.0032 7.2167 12.8914L4.78301 10.4499L2.33971 8.01801C2.22783 7.90536 2.14513 7.76715 2.09878 7.61535C2.05243 7.46355 2.04382 7.30275 2.07371 7.14687C2.1036 6.991 2.17108 6.84476 2.2703 6.72084C2.36952 6.59691 2.49749 6.49903 2.64312 6.43569L5.64281 5.66452C5.87444 5.6004 6.08635 5.4794 6.25923 5.31254C7.3632 4.22859 7.76428 3.82861 8.38872 3.15424C8.57525 2.95425 8.69533 2.70226 8.73135 2.43188L8.91708 1.00554C9 0.890546 9.10699 0.794975 9.23061 0.725476C9.35423 0.655977 9.49151 0.614219 9.63292 0.603103C9.77432 0.591988 9.91645 0.611783 10.0494 0.661112C10.1824 0.710441 10.303 0.78812 10.4029 0.888748L12.3571 2.86146Z" stroke="#CACBD1" stroke-width="1.2" stroke-linecap="round" stroke-linejoin="round"/>
</svg>
