<svg width="16" height="16" viewBox="0 0 16 16" fill="none" xmlns="http://www.w3.org/2000/svg">
<path d="M4.74329 10.4594L0.599609 14.6M12.3566 2.86133L14.3115 4.81484C14.4121 4.91471 14.4896 5.03524 14.5388 5.16807C14.5881 5.30089 14.6078 5.44284 14.5966 5.58403C14.5854 5.72523 14.5435 5.8623 14.474 5.98573C14.4045 6.10915 14.3089 6.21597 14.1939 6.29877L12.7873 6.48436C12.5047 6.52312 12.2415 6.6496 12.0348 6.84594C11.4584 7.40272 10.8716 7.98829 9.89408 8.95544C9.72596 9.12504 9.60748 9.33783 9.55224 9.57061L8.79971 12.5881C8.73632 12.7336 8.63837 12.8615 8.51435 12.9606C8.39033 13.0598 8.24399 13.1272 8.088 13.1571C7.93201 13.1869 7.77109 13.1783 7.61917 13.132C7.46726 13.0857 7.32894 13.0031 7.21621 12.8913L4.78252 10.4498L2.33922 8.01789C2.22734 7.90524 2.14464 7.76703 2.09829 7.61523C2.05194 7.46343 2.04333 7.30262 2.07322 7.14675C2.10311 6.99088 2.17059 6.84464 2.26981 6.72071C2.36903 6.59679 2.497 6.49891 2.64263 6.43556L5.64232 5.6644C5.87396 5.60028 6.08586 5.47928 6.25875 5.31242C7.36271 4.22847 7.76379 3.82849 8.38823 3.15412C8.57476 2.95413 8.69484 2.70214 8.73087 2.43175L8.9166 1.00542C8.99951 0.890423 9.1065 0.794853 9.23012 0.725354C9.35374 0.655855 9.49102 0.614097 9.63243 0.602981C9.77383 0.591866 9.91596 0.611661 10.0489 0.66099C10.1819 0.710319 10.3025 0.787998 10.4024 0.888626L12.3566 2.86133Z" stroke="#CACBD1" stroke-width="1.2" stroke-linecap="round" stroke-linejoin="round"/>
</svg>
