<svg width="13" height="13" viewBox="0 0 13 13" fill="none" xmlns="http://www.w3.org/2000/svg">
<path d="M12.3797 4.61446C12.3692 4.80374 12.3131 4.98768 12.2161 5.15063C12.1247 5.3124 11.9998 5.45283 11.8497 5.56257C11.7844 5.61001 11.7076 5.63934 11.6273 5.64757L10.4758 5.79796C10.348 5.8197 10.2296 5.87887 10.1355 5.96796C9.78878 6.30143 9.43547 6.62183 8.95131 7.13184L8.39517 7.68109C8.32287 7.7561 8.27105 7.84841 8.24469 7.94917L7.62967 10.4208C7.6323 10.4469 7.6323 10.4732 7.62967 10.4992C7.54447 10.6909 7.41439 10.8593 7.25042 10.9901C7.08645 11.121 6.89338 11.2105 6.68752 11.2512H6.45198C6.32377 11.25 6.19625 11.2324 6.0725 11.1989C5.87209 11.1375 5.69001 11.0274 5.54254 10.8785L3.88069 9.22421L0.82523 12.2778C0.732208 12.3644 0.609175 12.4115 0.482048 12.4093C0.354922 12.4071 0.23363 12.3556 0.143724 12.2657C0.0538186 12.1759 0.00231944 12.0547 7.64499e-05 11.9276C-0.00216654 11.8006 0.0450217 11.6776 0.1317 11.5847L3.18716 8.53111L1.55147 6.89645C1.40521 6.74553 1.29749 6.56162 1.23742 6.36028C1.17097 6.1599 1.15968 5.94535 1.20471 5.73911C1.24314 5.53583 1.33074 5.34502 1.45987 5.18333C1.59066 5.01943 1.75896 4.88936 1.95058 4.80408H2.02909L4.47607 4.15022C4.58447 4.1213 4.68361 4.06501 4.76396 3.98675C5.6734 3.09096 5.98745 2.7771 6.48469 2.24093C6.56934 2.15137 6.62221 2.03651 6.63518 1.914L6.7922 0.75666C6.7993 0.674087 6.8287 0.594989 6.87726 0.527807C7.04463 0.302685 7.27998 0.1373 7.54859 0.0560621C7.81719 -0.0251753 8.10481 -0.0179609 8.369 0.0766405C8.54587 0.141818 8.70657 0.244418 8.84008 0.377418L12.0329 3.58136C12.1637 3.71401 12.2646 3.87305 12.329 4.04784C12.3933 4.22262 12.4195 4.40912 12.4059 4.59485L12.3797 4.61446Z" fill="#6C6C6C"/>
</svg>
