<svg width="24" height="24" viewBox="0 0 24 24" fill="none" xmlns="http://www.w3.org/2000/svg">
<g clip-path="url(#clip0_433_205)">
<rect x="1.5" y="1.5" width="21" height="21" rx="3.6" fill="url(#paint0_linear_433_205)"/>
<rect x="1.5" y="1.5" width="21" height="21" rx="3.6" fill="url(#paint1_radial_433_205)"/>
<rect x="1.5" y="1.5" width="21" height="21" rx="3.6" fill="url(#paint2_radial_433_205)"/>
<rect x="1.5" y="1.5" width="21" height="21" rx="3.6" fill="url(#paint3_linear_433_205)"/>
<rect x="1.5" y="1.5" width="21" height="21" rx="3.6" fill="url(#paint4_linear_433_205)"/>
<rect x="1.5" y="1.5" width="21" height="21" rx="3.6" fill="url(#paint5_linear_433_205)"/>
<rect x="1.5" y="1.5" width="21" height="21" rx="3.6" fill="url(#paint6_linear_433_205)"/>
<path d="M5.87726 10.4875C5.87874 10.7747 6.11122 11.0072 6.39845 11.0087L11.0028 11.0324C11.4708 11.0348 11.7069 10.469 11.376 10.1381L9.97126 8.73339C9.8881 8.65022 9.90106 8.51166 10.0021 8.4515C10.5627 8.11776 11.2178 7.92606 11.9176 7.92606C13.625 7.92606 15.066 9.06721 15.5193 10.6284C15.569 10.7997 15.7207 10.9261 15.8991 10.9261H17.4465C17.672 10.9261 17.8474 10.7278 17.8037 10.5066C17.2596 7.75271 14.8311 5.67606 11.9176 5.67606C10.5745 5.67606 9.33444 6.11738 8.33457 6.86291C8.25835 6.91975 8.15162 6.91375 8.08439 6.84651L6.74786 5.50999C6.4169 5.17903 5.85111 5.4151 5.85352 5.88314L5.87726 10.4875Z" fill="#FCF2FF"/>
<path d="M16.9366 17.9267L15.6144 16.6045C15.5486 16.5386 15.4446 16.5313 15.3685 16.585C14.3924 17.2724 13.2022 17.6761 11.9176 17.6761C9.00406 17.6761 6.57556 15.5994 6.03149 12.8455C5.98778 12.6243 6.16316 12.4261 6.38867 12.4261H7.93607C8.11442 12.4261 8.26615 12.5524 8.31588 12.7237C8.76921 14.2849 10.2101 15.4261 11.9176 15.4261C12.5528 15.4261 13.1512 15.2681 13.6755 14.9893C13.7824 14.9325 13.7992 14.7892 13.7135 14.7036L12.3085 13.2986C11.9776 12.9676 12.2136 12.4018 12.6817 12.4042L17.286 12.428C17.5733 12.4294 17.8057 12.6619 17.8072 12.9492L17.831 17.5535C17.8334 18.0216 17.2676 18.2576 16.9366 17.9267Z" fill="#FCF2FF"/>
</g>
<defs>
<linearGradient id="paint0_linear_433_205" x1="12" y1="1.5" x2="12" y2="22.5" gradientUnits="userSpaceOnUse">
<stop stop-color="#5BB3FD"/>
<stop offset="1" stop-color="#5194EC"/>
</linearGradient>
<radialGradient id="paint1_radial_433_205" cx="0" cy="0" r="1" gradientUnits="userSpaceOnUse" gradientTransform="translate(21.375 2.625) rotate(135) scale(2.65165 3.09706)">
<stop stop-color="#7AD3FE" stop-opacity="0.7"/>
<stop offset="1" stop-color="#7AD3FE" stop-opacity="0"/>
</radialGradient>
<radialGradient id="paint2_radial_433_205" cx="0" cy="0" r="1" gradientUnits="userSpaceOnUse" gradientTransform="translate(2.25 21.75) rotate(-40.6013) scale(3.45733 4.03808)">
<stop stop-color="#3F70D6" stop-opacity="0.7"/>
<stop offset="1" stop-color="#3F70D6" stop-opacity="0"/>
</radialGradient>
<linearGradient id="paint3_linear_433_205" x1="22.5" y1="12" x2="19.125" y2="12" gradientUnits="userSpaceOnUse">
<stop stop-color="#7AD3FE" stop-opacity="0"/>
<stop offset="0.479167" stop-color="#7AD3FE" stop-opacity="0.1"/>
<stop offset="1" stop-color="#7AD3FE" stop-opacity="0"/>
</linearGradient>
<linearGradient id="paint4_linear_433_205" x1="12" y1="1.5" x2="12" y2="4.5" gradientUnits="userSpaceOnUse">
<stop stop-color="#7AD3FE" stop-opacity="0"/>
<stop offset="0.479167" stop-color="#7AD3FE" stop-opacity="0.13"/>
<stop offset="1" stop-color="#7AD3FE" stop-opacity="0"/>
</linearGradient>
<linearGradient id="paint5_linear_433_205" x1="12" y1="1.5" x2="12" y2="22.5" gradientUnits="userSpaceOnUse">
<stop stop-color="#3F70D6" stop-opacity="0.35"/>
<stop offset="0.058296" stop-color="#3F70D6" stop-opacity="0"/>
<stop offset="0.872197" stop-color="#3F70D6" stop-opacity="0"/>
<stop offset="0.939462" stop-color="#3F70D6" stop-opacity="0.438597"/>
<stop offset="1" stop-color="#3F70D6"/>
</linearGradient>
<linearGradient id="paint6_linear_433_205" x1="22.4259" y1="11.8117" x2="1.70843" y2="11.8117" gradientUnits="userSpaceOnUse">
<stop stop-color="#3F70D6" stop-opacity="0.35"/>
<stop offset="0.058296" stop-color="#3F70D6" stop-opacity="0"/>
<stop offset="0.872197" stop-color="#3F70D6" stop-opacity="0"/>
<stop offset="0.939462" stop-color="#3F70D6" stop-opacity="0.438597"/>
<stop offset="1" stop-color="#3F70D6"/>
</linearGradient>
<clipPath id="clip0_433_205">
<rect width="24" height="24" fill="white"/>
</clipPath>
</defs>
</svg>
