<svg width="28" height="28" viewBox="0 0 28 28" fill="none" xmlns="http://www.w3.org/2000/svg">
<g opacity="0.8">
<circle opacity="0.5" cx="14" cy="14" r="14" fill="#E7E8EB"/>
<path d="M8.5 21C8.0875 21 7.7345 20.8534 7.441 20.5603C7.1475 20.2672 7.0005 19.9144 7 19.5019V9.01498C7 8.603 7.147 8.25044 7.441 7.9573C7.735 7.66417 8.088 7.51735 8.5 7.51685H13.3937C13.6437 7.51685 13.8312 7.59501 13.9562 7.75131C14.0812 7.90762 14.1437 8.07915 14.1437 8.26592C14.1437 8.45268 14.0782 8.62447 13.9472 8.78127C13.8162 8.93808 13.6255 9.01598 13.375 9.01498H8.5V19.5019H19V14.6142C19 14.3645 19.0782 14.1773 19.2347 14.0524C19.3912 13.9276 19.563 13.8652 19.75 13.8652C19.937 13.8652 20.109 13.9276 20.266 14.0524C20.423 14.1773 20.501 14.3645 20.5 14.6142V19.5019C20.5 19.9139 20.3532 20.2667 20.0597 20.5603C19.7662 20.8539 19.413 21.0005 19 21H8.5ZM11.5 15.7566V13.9401C11.5 13.7403 11.5375 13.5498 11.6125 13.3685C11.6875 13.1873 11.7937 13.0282 11.9312 12.8914L18.3812 6.44944C18.5312 6.29963 18.7 6.18727 18.8875 6.11236C19.075 6.03745 19.2625 6 19.45 6C19.65 6 19.8408 6.03745 20.0223 6.11236C20.2038 6.18727 20.3692 6.29963 20.5187 6.44944L21.5687 7.51685C21.7062 7.66667 21.8125 7.83221 21.8875 8.01348C21.9625 8.19476 22 8.37878 22 8.56554C22 8.75231 21.9658 8.93658 21.8973 9.11835C21.8288 9.30012 21.7192 9.46542 21.5687 9.61423L15.1187 16.0562C14.9812 16.1935 14.822 16.3029 14.641 16.3843C14.46 16.4657 14.2693 16.5061 14.0688 16.5056H12.25C12.0375 16.5056 11.8595 16.4337 11.716 16.2899C11.5725 16.1461 11.5005 15.9683 11.5 15.7566ZM13 15.0075H14.05L18.4 10.6629L17.875 10.1386L17.3312 9.61423L13 13.9401V15.0075Z" fill="#A1A4AA"/>
</g>
</svg>
