<svg width="19" height="19" viewBox="0 0 19 19" fill="none" xmlns="http://www.w3.org/2000/svg">
<path d="M11.4301 0C11.5775 4.52718e-06 11.7211 0.0456052 11.8403 0.130235C11.9594 0.214864 12.0479 0.334156 12.093 0.470929L12.8589 2.79029C13.1806 2.94364 13.4883 3.116 13.7822 3.31007L16.2275 2.79707C16.3717 2.76707 16.5219 2.78245 16.6566 2.84098C16.7912 2.89951 16.9033 2.99819 16.9767 3.12279L18.9069 6.37857C18.9806 6.5031 19.0118 6.64722 18.996 6.79015C18.9802 6.93308 18.9183 7.06744 18.8191 7.17386L17.1411 8.97886C17.1655 9.32497 17.1655 9.67231 17.1411 10.0184L18.8191 11.8261C18.9183 11.9326 18.9802 12.0669 18.996 12.2098C19.0118 12.3528 18.9806 12.4969 18.9069 12.6214L16.9767 15.8786C16.9031 16.0029 16.7909 16.1013 16.6563 16.1596C16.5217 16.2179 16.3716 16.2331 16.2275 16.2029L13.7822 15.6899C13.4897 15.8826 13.1806 16.0564 12.8603 16.2097L12.093 18.5291C12.0479 18.6658 11.9594 18.7851 11.8403 18.8698C11.7211 18.9544 11.5775 19 11.4301 19H7.56989C7.42247 19 7.27886 18.9544 7.15974 18.8698C7.04062 18.7851 6.95213 18.6658 6.90702 18.5291L6.1425 16.2111C5.82169 16.0582 5.51224 15.8836 5.21643 15.6886L2.77246 16.2029C2.62828 16.2329 2.47805 16.2176 2.34341 16.159C2.20877 16.1005 2.09667 16.0018 2.02325 15.8772L0.0931434 12.6214C0.0194406 12.4969 -0.0117777 12.3528 0.00399007 12.2098C0.0197578 12.0669 0.0816967 11.9326 0.180876 11.8261L1.85893 10.0184C1.83462 9.67321 1.83462 9.32678 1.85893 8.98157L0.180876 7.17386C0.0816967 7.06744 0.0197578 6.93308 0.00399007 6.79015C-0.0117777 6.64722 0.0194406 6.5031 0.0931434 6.37857L2.02325 3.12143C2.09687 2.99708 2.20906 2.89869 2.34368 2.8404C2.47831 2.78212 2.62843 2.76695 2.77246 2.79707L5.21643 3.31143C5.51166 3.11736 5.82081 2.94229 6.1425 2.78893L6.90841 0.470929C6.95338 0.334596 7.04144 0.215621 7.16001 0.131032C7.27857 0.0464433 7.42156 0.000577691 7.5685 0H11.4287H11.4301ZM10.9204 1.35714H8.07957L7.28859 3.75521L6.75523 4.009C6.49303 4.13404 6.23992 4.27642 5.99767 4.43514L5.5047 4.76086L2.97578 4.22886L1.55535 6.62829L3.28911 8.49843L3.24733 9.07386C3.22731 9.35762 3.22731 9.64238 3.24733 9.92614L3.28911 10.5016L1.55256 12.3717L2.97438 14.7711L5.5033 14.2405L5.99628 14.5649C6.23852 14.7236 6.49164 14.866 6.75384 14.991L7.28719 15.2448L8.07957 17.6429H10.9232L11.717 15.2434L12.2489 14.991C12.5109 14.8663 12.7635 14.7239 13.0051 14.5649L13.4967 14.2405L16.027 14.7711L17.4474 12.3717L15.7123 10.5016L15.7541 9.92614C15.7741 9.64193 15.7741 9.35671 15.7541 9.0725L15.7123 8.49707L17.4488 6.62829L16.027 4.22886L13.4967 4.75814L13.0051 4.43514C12.7635 4.27613 12.5109 4.13373 12.2489 4.009L11.717 3.75657L10.9218 1.35714H10.9204ZM9.5 5.42857C10.608 5.42857 11.6706 5.85752 12.4541 6.62107C13.2376 7.38461 13.6777 8.42019 13.6777 9.5C13.6777 10.5798 13.2376 11.6154 12.4541 12.3789C11.6706 13.1425 10.608 13.5714 9.5 13.5714C8.392 13.5714 7.32937 13.1425 6.5459 12.3789C5.76242 11.6154 5.32227 10.5798 5.32227 9.5C5.32227 8.42019 5.76242 7.38461 6.5459 6.62107C7.32937 5.85752 8.392 5.42857 9.5 5.42857ZM9.5 6.78571C8.76133 6.78571 8.05292 7.07168 7.5306 7.58071C7.00828 8.08974 6.71485 8.78013 6.71485 9.5C6.71485 10.2199 7.00828 10.9103 7.5306 11.4193C8.05292 11.9283 8.76133 12.2143 9.5 12.2143C10.2387 12.2143 10.9471 11.9283 11.4694 11.4193C11.9917 10.9103 12.2852 10.2199 12.2852 9.5C12.2852 8.78013 11.9917 8.08974 11.4694 7.58071C10.9471 7.07168 10.2387 6.78571 9.5 6.78571Z" fill="#9D9D9F"/>
</svg>
