<svg width="32" height="32" viewBox="0 0 32 32" fill="none" xmlns="http://www.w3.org/2000/svg">
<circle opacity="0.5" cx="16" cy="16" r="16" fill="#E7E8EB"/>
<path d="M9.88883 23.7777C9.4305 23.7777 9.03828 23.6149 8.71217 23.2892C8.38606 22.9635 8.22272 22.5715 8.22217 22.1132V10.4611C8.22217 10.0033 8.3855 9.61157 8.71217 9.28587C9.03883 8.96016 9.43106 8.79703 9.88883 8.79648H15.3263C15.6041 8.79648 15.8124 8.88331 15.9513 9.05698C16.0902 9.23066 16.1597 9.42125 16.1597 9.62877C16.1597 9.83629 16.0869 10.0272 15.9413 10.2014C15.7958 10.3756 15.5838 10.4622 15.3055 10.4611H9.88883V22.1132H21.5555V16.6825C21.5555 16.405 21.6424 16.1969 21.8163 16.0582C21.9902 15.9195 22.1811 15.8502 22.3888 15.8502C22.5966 15.8502 22.7877 15.9195 22.9622 16.0582C23.1366 16.1969 23.2233 16.405 23.2222 16.6825V22.1132C23.2222 22.5709 23.0591 22.9629 22.733 23.2892C22.4069 23.6154 22.0144 23.7783 21.5555 23.7777H9.88883ZM13.2222 17.9517V15.9334C13.2222 15.7114 13.2638 15.4998 13.3472 15.2983C13.4305 15.0969 13.5486 14.9202 13.7013 14.7682L20.868 7.61046C21.0347 7.444 21.2222 7.31916 21.4305 7.23593C21.6388 7.1527 21.8472 7.11108 22.0555 7.11108C22.2777 7.11108 22.4897 7.1527 22.6913 7.23593C22.893 7.31916 23.0769 7.444 23.243 7.61046L24.4097 8.79648C24.5624 8.96294 24.6805 9.14687 24.7638 9.34829C24.8472 9.5497 24.8888 9.75417 24.8888 9.96169C24.8888 10.1692 24.8508 10.3739 24.7747 10.5759C24.6986 10.7779 24.5769 10.9615 24.4097 11.1269L17.243 18.2846C17.0902 18.4372 16.9133 18.5587 16.7122 18.6492C16.5111 18.7396 16.2991 18.7845 16.0763 18.784H14.0555C13.8194 18.784 13.6216 18.7041 13.4622 18.5443C13.3027 18.3845 13.2227 18.187 13.2222 17.9517ZM14.8888 17.1194H16.0555L20.8888 12.2921L20.3055 11.7095L19.7013 11.1269L14.8888 15.9334V17.1194Z" fill="#A1A4AA"/>
</svg>
