<svg width="16" height="18" viewBox="0 0 16 18" fill="none" xmlns="http://www.w3.org/2000/svg">
<path fill-rule="evenodd" clip-rule="evenodd" d="M8 0C8.45 0 8.85019 0.133724 9.2002 0.400391L15.2002 4.90039C15.4501 5.0837 15.6461 5.31733 15.7881 5.60059C15.9299 5.88378 16.0007 6.18351 16 6.5V15.5C16 16.05 15.8041 16.5211 15.4121 16.9131C15.0201 17.3051 14.5493 17.5007 14 17.5H10C9.71672 17.5 9.4794 17.4039 9.28809 17.2119C9.09682 17.0199 9.00067 16.7826 9 16.5V11.5H7V16.5C7 16.7833 6.90392 17.0209 6.71191 17.2129C6.51991 17.4049 6.28267 17.5007 6 17.5H2C1.45004 17.5 0.979202 17.3044 0.587891 16.9131C0.19664 16.5218 0.000671387 16.0506 0 15.5V6.5C1.52588e-05 6.18355 0.0710602 5.88375 0.212891 5.60059C0.354828 5.31738 0.550629 5.08369 0.799805 4.90039L6.7998 0.400391C7.14978 0.133746 7.55005 2.15671e-05 8 0Z" fill="#141517"/>
</svg>
