<svg width="16" height="18" viewBox="0 0 16 18" fill="none" xmlns="http://www.w3.org/2000/svg">
<path d="M8 0C8.45 0 8.85019 0.133724 9.2002 0.400391L15.2002 4.90039C15.4501 5.0837 15.6461 5.31733 15.7881 5.60059C15.9299 5.88378 16.0007 6.18351 16 6.5V15.5C16 16.05 15.8041 16.5211 15.4121 16.9131C15.0201 17.3051 14.5493 17.5007 14 17.5H10C9.71671 17.5 9.47939 17.4039 9.28809 17.2119C9.09682 17.0199 9.00067 16.7826 9 16.5V11.5H7V16.5C7 16.7833 6.90391 17.0209 6.71191 17.2129C6.51991 17.4049 6.28267 17.5007 6 17.5H2C1.45005 17.5 0.979198 17.3044 0.587891 16.9131C0.196634 16.5218 0.000666601 16.0506 0 15.5V6.5C1.46009e-05 6.18355 0.0710647 5.88375 0.212891 5.60059C0.354827 5.31738 0.550632 5.08369 0.799805 4.90039L6.7998 0.400391C7.14978 0.133746 7.55004 2.15671e-05 8 0ZM2 6.5V15.5H5V10.5C5.00002 10.2167 5.09611 9.9794 5.28809 9.78809C5.48006 9.59678 5.71738 9.50069 6 9.5H10C10.2833 9.5 10.5209 9.59616 10.7129 9.78809C10.9049 9.98006 11.0006 10.2174 11 10.5V15.5H14V6.5L8 2L2 6.5Z" fill="#C2C4C7"/>
</svg>
