<svg width="20" height="16" viewBox="0 0 20 16" fill="none" xmlns="http://www.w3.org/2000/svg">
<path d="M8 5.00003C6.9 5.00003 6 5.92003 6 7.05003C6 7.62003 6.22 8.12003 6.59 8.50003L10 12L13.42 8.50003C13.78 8.13003 14 7.61003 14 7.05003C14 5.92003 13.1 5.00003 12 5.00003C11.46 5.00003 10.95 5.23003 10.59 5.60003L10 6.20003L9.42 5.61003C9.23561 5.41924 9.01509 5.26706 8.7713 5.16233C8.52751 5.0576 8.26532 5.00243 8 5.00003ZM18 3.05176e-05C19.1 3.05176e-05 20 0.90003 20 2.00003V14C20 15.1 19.1 16 18 16H2C0.9 16 0 15.1 0 14V2.00003C0 0.90003 0.9 3.05176e-05 2 3.05176e-05H18ZM14.7 4.06003L18 2.00003H2L5.3 4.06003C4.89 4.45003 4.55 4.92003 4.33 5.45003L2 4.00003V14H18V4.00003L15.67 5.45003C15.45 4.92003 15.11 4.45003 14.7 4.06003Z" fill="#141517"/>
<path d="M1.5 15V2.00003V1.50003H18.5V15H1.5Z" fill="#141517" stroke="#141517"/>
<path d="M8 5C6.9 5 6 5.92 6 7.05C6 7.62 6.22 8.12 6.59 8.5L10 12L13.42 8.5C13.78 8.13 14 7.61 14 7.05C14 5.92 13.1 5 12 5C11.46 5 10.95 5.23 10.59 5.6L10 6.2L9.42 5.61C9.23561 5.41921 9.01509 5.26703 8.7713 5.1623C8.52751 5.05757 8.26532 5.0024 8 5ZM18 2.00012C18 0.900123 18 1.00034 18 2.00012V13.9999C18 14.8235 18 15.0999 18 13.9999L2 14C2 8.00011 2 5.1 2 4L2.00001 2L18 2.00012ZM14.7 4.06L18 2.00012L2.00001 2L5.3 4.06C4.89 4.45 4.55 4.92 4.33 5.45L2 4V14L18 13.9999V4L15.67 5.45C15.45 4.92 15.11 4.45 14.7 4.06Z" fill="white"/>
</svg>
