<svg width="18" height="18" viewBox="0 0 18 18" fill="none" xmlns="http://www.w3.org/2000/svg">
<path d="M1 14.5714C1 13.543 1.42143 12.5567 2.17157 11.8296C2.92172 11.1024 3.93913 10.6938 5 10.6938H13C14.0609 10.6938 15.0783 11.1024 15.8284 11.8296C16.5786 12.5567 17 13.543 17 14.5714C17 15.0856 16.7893 15.5787 16.4142 15.9423C16.0391 16.3059 15.5304 16.5102 15 16.5102H3C2.46957 16.5102 1.96086 16.3059 1.58579 15.9423C1.21071 15.5787 1 15.0856 1 14.5714Z" fill="#141517" stroke="#141517" stroke-width="2" stroke-linejoin="round"/>
<path d="M9 6.81633C10.6569 6.81633 12 5.5143 12 3.90816C12 2.30203 10.6569 1 9 1C7.34315 1 6 2.30203 6 3.90816C6 5.5143 7.34315 6.81633 9 6.81633Z" fill="#141517" stroke="#141517" stroke-width="2"/>
</svg>
