<svg width="19" height="19" viewBox="0 0 19 19" fill="none" xmlns="http://www.w3.org/2000/svg">
<path d="M16.3715 13.741C16.5313 13.7412 16.6864 13.7946 16.8123 13.893C16.9382 13.9914 17.0277 14.129 17.0664 14.284L17.3446 15.3957L18.4573 15.6738C18.6124 15.7127 18.75 15.8022 18.8483 15.9282C18.9466 16.0542 19 16.2094 19 16.3692C19 16.529 18.9466 16.6843 18.8483 16.8103C18.75 16.9363 18.6124 17.0258 18.4573 17.0646L17.3446 17.3428L17.0674 18.4555C17.0289 18.6109 16.9394 18.749 16.8133 18.8477C16.6872 18.9464 16.5316 19 16.3715 19C16.2113 19 16.0558 18.9464 15.9296 18.8477C15.8035 18.749 15.7141 18.6109 15.6755 18.4555L15.3983 17.3428L14.2856 17.0656C14.1301 17.0271 13.9921 16.9376 13.8934 16.8115C13.7947 16.6854 13.741 16.5299 13.741 16.3697C13.741 16.2096 13.7947 16.054 13.8934 15.9279C13.9921 15.8018 14.1301 15.7123 14.2856 15.6738L15.3974 15.3966L15.6755 14.284C15.7144 14.1288 15.8039 13.9911 15.93 13.8927C16.0561 13.7943 16.2115 13.7409 16.3715 13.741ZM2.13175 0.604311C2.41662 -0.228265 3.64692 -0.200544 3.86966 0.687473L4.15261 1.82306L5.28827 2.10696C6.20598 2.33637 6.20598 3.63924 5.28827 3.8677L4.15261 4.1516L3.86966 5.28719C3.64023 6.20484 2.33728 6.20484 2.10785 5.28719L1.82394 4.1516L0.688279 3.8677C-0.229426 3.63829 -0.229426 2.33637 0.688279 2.10696L1.82394 1.82306L2.10785 0.687473L2.13175 0.604311ZM2.98828 2.79329C2.93326 2.86696 2.8679 2.93232 2.79422 2.98733C2.8679 3.04234 2.93326 3.1077 2.98828 3.18138C3.04329 3.1077 3.10865 3.04234 3.18233 2.98733C3.10858 2.93203 3.04322 2.8673 2.98828 2.79329ZM14.2091 1.77049C14.4422 1.53759 14.7582 1.40675 15.0876 1.40675C15.4171 1.40675 15.7331 1.53759 15.9662 1.77049L17.5884 3.39263C17.8213 3.62565 17.9521 3.94162 17.9521 4.27108C17.9521 4.60054 17.8213 4.91652 17.5884 5.14954L15.7635 6.97528L12.3833 3.59527L14.2091 1.77049ZM6.63807 16.1002C6.57138 16.1665 6.48658 16.2118 6.3943 16.2302L3.01409 16.906C2.93698 16.9213 2.85729 16.9174 2.78205 16.8946C2.70682 16.8718 2.63838 16.8308 2.58279 16.7752C2.5272 16.7196 2.48618 16.6512 2.46336 16.5759C2.44055 16.5007 2.43664 16.421 2.45199 16.3439L3.12784 12.9649C3.14633 12.8721 3.19191 12.787 3.25881 12.7201L11.7074 4.27108L15.0876 7.65109L6.63807 16.1002Z" fill="#C2C4C7"/>
</svg>
