<svg width="26" height="20" viewBox="0 0 26 20" fill="none" xmlns="http://www.w3.org/2000/svg">
<path d="M12.6875 14.5C14.6895 14.5 16.3125 12.877 16.3125 10.875C16.3125 8.87297 14.6895 7.25 12.6875 7.25C10.6855 7.25 9.0625 8.87297 9.0625 10.875C9.0625 12.877 10.6855 14.5 12.6875 14.5Z" fill="#E6E7E9"/>
<path d="M24.0156 3.625H19.3145C19.1445 3.625 18.9338 3.51512 18.7696 3.3418L17.2244 0.917578C16.5957 -1.78814e-07 16.3125 0 15.293 0H10.082C9.0625 0 8.72266 0 8.15228 0.918144L6.60543 3.3418C6.47969 3.47887 6.30297 3.625 6.11719 3.625V2.71875C6.11719 2.59857 6.06945 2.48332 5.98447 2.39834C5.89949 2.31336 5.78424 2.26562 5.66406 2.26562H3.39844C3.27826 2.26562 3.16301 2.31336 3.07803 2.39834C2.99305 2.48332 2.94531 2.59857 2.94531 2.71875V3.625H1.35938C0.998846 3.625 0.653084 3.76822 0.398152 4.02315C0.14322 4.27808 0 4.62385 0 4.98438V18.5781C0 18.9387 0.14322 19.2844 0.398152 19.5393C0.653084 19.7943 0.998846 19.9375 1.35938 19.9375H24.0156C24.3762 19.9375 24.7219 19.7943 24.9768 19.5393C25.2318 19.2844 25.375 18.9387 25.375 18.5781V4.98438C25.375 4.62385 25.2318 4.27808 24.9768 4.02315C24.7219 3.76822 24.3762 3.625 24.0156 3.625ZM12.9429 16.3068C11.847 16.3583 10.7611 16.077 9.8279 15.5C8.89474 14.9229 8.15799 14.077 7.71444 13.0735C7.2709 12.0699 7.14132 10.9557 7.34272 9.87717C7.54413 8.79863 8.06711 7.80626 8.84293 7.03043C9.61876 6.25461 10.6111 5.73163 11.6897 5.53022C12.7682 5.32882 13.8824 5.4584 14.886 5.90194C15.8895 6.34549 16.7354 7.08224 17.3125 8.0154C17.8895 8.94857 18.1708 10.0345 18.1193 11.1304C18.0544 12.4824 17.4882 13.7616 16.5312 14.7187C15.5741 15.6757 14.2949 16.2419 12.9429 16.3068Z" fill="#E6E7E9"/>
</svg>
