<svg width="72" height="65" viewBox="0 0 72 65" fill="none" xmlns="http://www.w3.org/2000/svg">
<path d="M52.3291 41.9902C58.7552 46.0418 63.9325 50.9944 69.25 56.0488C50.1309 59.7588 30.9518 63.2642 8.78125 63.7588C11.1534 58.9487 15.8947 52.0266 21.0254 46.5723C32.8604 47.0079 43.8263 44.1556 52.3291 41.9902ZM1.01758 31.1143C5.8733 35.841 10.7061 40.7511 17.2227 45.0703C12.6763 50.0826 8.58386 55.8626 6.04492 60.6719L1.01758 31.1143ZM66.3037 20.0557C68.3966 30.7721 70.1187 41.4928 70.8438 52.3047C66.0433 47.7398 61.0978 43.1195 55.0264 39.1895C59.6974 32.8646 62.8597 26.3396 66.3037 20.0557ZM43.6533 10.792C44.6245 10.8508 45.4489 11.2432 46.2705 11.8984C47.5792 12.9421 48.7051 14.7308 49.4688 16.6152C50.2313 18.4973 50.6148 20.431 50.6572 21.4697C50.9745 29.249 48.3962 34.6698 45.21 39.5176C39.2208 41.3862 33.1762 42.4181 27.0449 42.4834C24.172 41.2034 21.7631 39.5725 19.7178 37.2041C17.6458 34.8048 15.9255 31.6257 14.4863 27.2383C14.0896 26.0285 13.9262 24.1025 14.1484 22.1172C14.371 20.1295 14.9704 18.171 16.0215 16.8525C17.0637 15.5452 18.4347 14.7122 20.7139 14.7129C23.0193 14.7136 26.337 15.6877 30.7832 18.4736L31.8457 19.1396L32.2227 19.376L32.501 19.0283L33.2842 18.0498C36.7338 13.7416 39.5653 11.7494 41.624 11.0898C42.3023 10.8726 42.8962 10.7802 43.4277 10.7842C43.5041 10.7848 43.5794 10.7875 43.6533 10.792ZM10.2256 25.3066C10.3386 26.4382 10.559 27.4991 10.8633 28.4268C12.7177 34.0806 15.2199 38.1948 18.3584 41.2246C11.688 36.6112 6.80711 31.2817 1.17969 25.9766C4.19667 25.7764 7.21209 25.5539 10.2256 25.3066ZM21.3291 15.752C19.1327 15.7509 17.2567 16.5375 16.5039 17.876C14.7535 20.9881 15.1926 25.3945 16.5557 29.2734C17.2429 31.2289 18.1765 33.0868 19.2256 34.6318C20.2703 36.1703 21.4505 37.4306 22.6436 38.1533L24.1367 39.0576L23.3486 37.5C21.2458 33.3432 19.3355 27.6964 19.5781 23.6572C19.699 21.6461 20.3439 20.1491 21.6318 19.3613C22.9363 18.5637 25.0584 18.3923 28.373 19.4268L28.8291 18.5537C26.2541 16.5565 23.5634 15.7531 21.3291 15.752ZM63.1504 17.874C59.2433 24.9436 55.9483 31.877 50.7891 38.4443C50.6105 38.4897 50.4294 38.5351 50.2471 38.5811C52.8156 33.966 54.757 28.4296 54.4668 21.3145C54.4458 20.7973 54.3818 20.2278 54.2803 19.6221C57.2445 19.0779 60.2012 18.4942 63.1504 17.874ZM29.4697 0.5C30.3378 0.504325 32.3705 0.840621 34.8682 1.61328C37.7203 2.49547 41.2664 3.84933 45.0898 5.49023C50.7852 7.93455 57.0316 11.0077 62.627 14.1025C59.5273 14.7573 56.4145 15.3692 53.291 15.9404C53.2703 15.8834 53.2508 15.8257 53.2295 15.7686L53.0029 15.1836L52.8252 14.7588C51.9123 12.6312 50.5862 10.4629 48.6475 8.91699C47.0803 7.66751 45.049 6.89784 42.7832 7.02344H42.7822C42.0287 7.06541 41.2518 7.20574 40.4609 7.45898C37.6238 8.36796 34.6476 10.5839 31.377 14.3975C27.2159 11.997 23.712 10.9013 20.7158 10.9004C17.3567 10.8992 14.7215 12.3679 13.041 14.4756C11.4062 16.5263 10.5612 19.0379 10.2656 21.4893C8.16339 21.6627 6.06009 21.8226 3.95605 21.9727C7.2506 18.2428 11.3573 14.0674 15.3945 10.3887C18.3615 7.68537 21.2808 5.25536 23.7744 3.47461C25.0162 2.58796 26.1779 1.87484 27.1387 1.36719C28.1171 0.850216 28.8392 0.572802 29.2178 0.513672H29.2188C29.2432 0.509828 29.2759 0.506324 29.3174 0.503906L29.4697 0.5ZM42.8623 11.7275C41.1425 11.7709 39.6176 12.6009 38.3018 13.7305C36.9852 14.8606 35.8369 16.3253 34.8633 17.7139L35.5586 18.4111C36.9848 17.4202 38.8588 16.1419 40.9404 15.5088C42.9982 14.883 45.2291 14.8958 47.4268 16.457L48.9053 17.5078L48.1738 15.8477C47.2285 13.7031 45.4573 11.807 43.1973 11.7285C43.0859 11.7247 42.9737 11.7246 42.8623 11.7275Z" fill="#FF5F2F" stroke="none"/>
</svg>
