<svg width="21" height="20" viewBox="0 0 21 20" fill="none" xmlns="http://www.w3.org/2000/svg">
<path d="M8 8C6.9 8 5.95833 7.60833 5.175 6.825C4.39167 6.04167 4 5.1 4 4C4 2.9 4.39167 1.95833 5.175 1.175C5.95833 0.391667 6.9 0 8 0C9.1 0 10.0417 0.391667 10.825 1.175C11.6083 1.95833 12 2.9 12 4C12 5.1 11.6083 6.04167 10.825 6.825C10.0417 7.60833 9.1 8 8 8ZM18.4 18.8L15.9 16.3C15.55 16.5 15.175 16.6667 14.775 16.8C14.375 16.9333 13.95 17 13.5 17C12.25 17 11.1877 16.5627 10.313 15.688C9.43833 14.8133 9.00067 13.7507 9 12.5C8.99933 11.2493 9.437 10.187 10.313 9.313C11.189 8.439 12.2513 8.00133 13.5 8C14.7487 7.99867 15.8113 8.43633 16.688 9.313C17.5647 10.1897 18.002 11.252 18 12.5C18 12.95 17.9333 13.375 17.8 13.775C17.6667 14.175 17.5 14.55 17.3 14.9L19.8 17.4C19.9833 17.5833 20.075 17.8167 20.075 18.1C20.075 18.3833 19.9833 18.6167 19.8 18.8C19.6167 18.9833 19.3833 19.075 19.1 19.075C18.8167 19.075 18.5833 18.9833 18.4 18.8ZM13.5 15C14.2 15 14.7917 14.7583 15.275 14.275C15.7583 13.7917 16 13.2 16 12.5C16 11.8 15.7583 11.2083 15.275 10.725C14.7917 10.2417 14.2 10 13.5 10C12.8 10 12.2083 10.2417 11.725 10.725C11.2417 11.2083 11 11.8 11 12.5C11 13.2 11.2417 13.7917 11.725 14.275C12.2083 14.7583 12.8 15 13.5 15ZM2 16C1.45 16 0.979333 15.8043 0.588 15.413C0.196667 15.0217 0.000666667 14.5507 0 14V13.225C0 12.6583 0.141667 12.1333 0.425 11.65C0.708333 11.1667 1.1 10.8 1.6 10.55C2.35 10.1667 3.17933 9.83767 4.088 9.563C4.99667 9.28833 5.99233 9.109 7.075 9.025C7.275 9.00833 7.425 9.09167 7.525 9.275C7.625 9.45833 7.63333 9.65 7.55 9.85C7.36667 10.2667 7.229 10.696 7.137 11.138C7.045 11.58 6.99933 12.0257 7 12.475C7 12.9083 7.03767 13.346 7.113 13.788C7.18833 14.23 7.31733 14.6507 7.5 15.05C7.6 15.2833 7.59167 15.5 7.475 15.7C7.35833 15.9 7.18333 16 6.95 16H2Z" fill="#C2C4C7"/>
</svg>
