<svg width="66" height="17" viewBox="0 0 66 17" fill="none" xmlns="http://www.w3.org/2000/svg">
<g clip-path="url(#clip0_59_2294)">
<path d="M12.7334 10.346C12.7334 14.0172 9.87937 17 6.36669 17C2.85404 17 0 14.0172 0 10.346C0 6.67485 2.85404 3.69203 6.36669 3.69203C8.00327 3.69203 9.48016 4.33865 10.6178 5.3816V0H12.7334V10.346ZM6.36669 14.789C8.72174 14.789 10.6178 12.8074 10.6178 10.346C10.6178 7.90552 8.72174 5.92393 6.36669 5.92393C4.03157 5.92393 2.13554 7.90552 2.13554 10.346C2.13554 12.8074 4.03157 14.789 6.36669 14.789Z" fill="black"/>
<path d="M20.438 3.69214C23.9507 3.69214 26.8047 6.67496 26.8047 10.3461C26.8047 10.7216 26.7647 11.097 26.7049 11.4517C23.2521 11.4517 19.7993 11.4517 16.3266 11.4517C16.8056 13.3707 18.4621 14.7682 20.438 14.7682C21.6554 14.7682 22.7532 14.2467 23.5315 13.3707H26.1061C25.0483 15.5192 22.8928 17.0001 20.438 17.0001C16.9253 17.0001 14.0713 14.0173 14.0713 10.3461C14.0713 6.67496 16.9253 3.69214 20.438 3.69214ZM16.3266 9.24063H24.5494C24.0903 7.32159 22.4139 5.90318 20.438 5.90318C18.4621 5.90318 16.7856 7.32159 16.3266 9.24063Z" fill="black"/>
<path d="M40.6826 10.3459V16.9999H38.567V15.2894C37.4493 16.3533 35.9525 16.9999 34.3159 16.9999C30.8032 16.9999 27.9492 14.017 27.9492 10.3459C27.9492 6.67471 30.8032 3.69189 34.3159 3.69189C37.8285 3.69189 40.6826 6.67471 40.6826 10.3459ZM34.3159 5.90294C31.9807 5.90294 30.0847 7.88453 30.0847 10.3459C30.0847 12.7863 31.9807 14.7679 34.3159 14.7679C36.671 14.7679 38.567 12.7863 38.567 10.3459C38.567 7.88453 36.671 5.90294 34.3159 5.90294Z" fill="black"/>
<path d="M42.3721 10.3459C42.3721 6.67471 45.2062 3.69189 48.7188 3.69189V5.90294C46.3837 5.90294 44.4877 7.88453 44.4877 10.3459V16.9999H42.3721V10.3459Z" fill="black"/>
<path d="M50.4913 17C49.8128 17 49.2539 16.416 49.2539 15.7068C49.2539 14.9976 49.8128 14.4136 50.4913 14.4136C51.1699 14.4136 51.7287 14.9976 51.7287 15.7068C51.7287 16.416 51.1699 17 50.4913 17Z" fill="#FF5F2F"/>
<path d="M59.6333 3.69214C63.146 3.69214 66 6.67496 66 10.3461C66 10.7216 65.9601 11.097 65.9002 11.4517C62.4474 11.4517 58.9947 11.4517 55.5219 11.4517C56.0009 13.3707 57.6574 14.7682 59.6333 14.7682C60.8507 14.7682 61.9485 14.2467 62.7268 13.3707H65.3015C64.2436 15.5192 62.0882 17.0001 59.6333 17.0001C56.1206 17.0001 53.2666 14.0173 53.2666 10.3461C53.2666 6.67496 56.1206 3.69214 59.6333 3.69214ZM55.5219 9.24063H63.7447C63.2856 7.32159 61.6092 5.90318 59.6333 5.90318C57.6574 5.90318 55.9809 7.32159 55.5219 9.24063Z" fill="black"/>
</g>
<defs>
<clipPath id="clip0_59_2294">
<rect width="66" height="17" fill="white"/>
</clipPath>
</defs>
</svg>
