<svg width="72" height="14" viewBox="0 0 72 14" fill="none" xmlns="http://www.w3.org/2000/svg">
<g clip-path="url(#clip0_663_2621)">
<path d="M29.0595 5.81538L27.433 6.78461L26.6761 7.45417L25.3489 8.77663C24.0173 10.1056 22.7183 11.316 20.8228 11.4991C19.9402 11.5809 19.0987 11.3914 18.3787 11.0059L25.594 2.34094C24.0477 0.742781 22.3713 -0.0692182 19.7255 0.180628C15.9498 0.540321 13.1913 3.86156 13.5534 7.6114C13.9156 11.3612 17.2597 14.1031 21.0354 13.7434C23.2062 13.5366 24.8544 12.2766 26.9082 10.3489C27.0231 10.2391 27.1402 10.1292 27.2617 10.0151L27.2899 9.98925C27.5978 9.69848 27.9166 9.38833 28.2484 9.0674L28.7711 8.56556C28.7776 8.55048 28.7862 8.5354 28.7884 8.52033C29.3284 7.29263 29.927 6.67691 29.0595 5.81538ZM15.9997 7.3831C15.7568 4.8674 17.5286 2.65971 19.9467 2.42925C20.7599 2.35171 21.5038 2.50894 22.174 2.80617L16.6763 9.42494C16.3207 8.82402 16.0691 8.12186 15.9997 7.3831Z" fill="#141517"/>
<path d="M43.7001 8.75803L43.6957 8.76234L43.5331 6.70111L43.0256 0.263273L43.0104 0H40.5533L40.6748 1.66758C39.4213 0.771579 37.836 0.304196 36.1574 0.433427C34.4615 0.564812 32.9673 1.29281 31.8483 2.39988L28.4825 5.6888L27.3613 6.78296L26.6673 7.46142C26.6673 7.46142 26.6586 7.4765 26.6565 7.48511C26.0839 8.71496 26.1642 9.6928 26.8907 10.3799L26.8972 10.3863L27.2442 10.046L27.2724 10.0202L28.8425 8.50784L29.8401 7.5088C30.135 11.263 33.4314 14.0608 37.2136 13.7679C38.8878 13.6386 40.3994 13.182 41.4989 12.1008L41.6377 13.9014H44.1316L43.7001 8.76019V8.75803ZM37.0531 11.5232C34.6285 11.7106 32.501 9.83892 32.3037 7.32107C32.1063 4.80323 33.9228 2.98969 36.3452 2.80015C38.7698 2.61277 40.8973 4.48231 41.0946 7.00015C41.292 9.518 39.4755 11.3337 37.0531 11.5232Z" fill="#141517"/>
<path d="M0 0.0797119H5.63207C9.06291 0.0797119 11.3855 1.99664 11.3855 4.38525V9.47263C11.3855 11.8591 9.06291 13.7782 5.63207 13.7782H0V0.0797119ZM5.63207 11.7622C7.37568 11.7622 8.78099 10.7456 8.78099 9.47263V4.38525C8.78099 3.11232 7.37568 2.09571 5.63207 2.09571H2.45496V11.7622H5.63207Z" fill="#141517"/>
<path d="M53.457 12.3492C53.457 11.605 54.0807 10.9708 54.8547 10.9708C55.629 10.9708 56.2763 11.605 56.2763 12.3492C56.2763 13.1581 55.6526 13.7708 54.8547 13.7708C54.0569 13.7708 53.457 13.1581 53.457 12.3492Z" fill="#FF5F2F"/>
<path d="M54.6413 0.654847L54.65 2.68593C53.7587 2.7247 52.5833 2.91855 51.2712 3.50439C49.4799 4.30347 48.3262 6.20532 48.3348 8.29239L48.3587 13.8773L46.1163 13.8859L46.0586 0.00861558L48.301 0L48.3131 3.0607C49.5406 2.10008 51.6356 0.906845 54.6413 0.656998V0.654847Z" fill="#141517"/>
<path d="M65.331 0.678558C66.7601 0.723796 68.0743 1.21713 69.1348 2.02051C69.3582 2.20142 69.5686 2.40157 69.7746 2.62122C70.011 2.87107 70.2387 3.14689 70.4555 3.44197L62.5659 10.8986C63.1992 11.3552 63.9753 11.6415 64.8211 11.6674C65.9553 11.6997 66.9184 11.3229 67.8249 10.7629C68.5688 10.3042 69.1975 9.66443 69.5532 8.8697C69.5924 8.73614 69.6301 8.57682 69.664 8.40001H71.8168C71.5865 9.36593 71.0886 10.4702 70.0953 11.5662C70.0216 11.633 69.9479 11.704 69.8785 11.7751C69.8459 11.8095 69.8112 11.8441 69.7787 11.8765C69.5143 12.1392 69.2086 12.3611 68.8898 12.5571C67.9919 13.1042 67.1396 13.5003 66.2527 13.7028C65.769 13.8127 65.2722 13.8643 64.756 13.8471C63.6262 13.8126 62.5679 13.496 61.6551 12.9597C61.0717 12.6 60.5447 12.1543 60.1001 11.6352C59.0548 10.4248 58.4433 8.83737 58.4975 7.11001V7.07764C58.5083 6.74166 58.5473 6.40784 58.6059 6.08693C58.6102 6.05678 58.6167 6.0308 58.6233 6.0028C58.8661 4.78595 59.4406 3.69397 60.2474 2.82168C61.3924 1.57677 63.0038 0.775507 64.7929 0.687182C64.9144 0.678567 65.036 0.678558 65.1596 0.678558H65.331ZM65.0881 2.84524C62.7654 2.77632 60.8199 4.68472 60.7462 7.13148C60.7223 7.85302 60.8785 8.55522 61.1409 9.17553L67.1548 3.47645C66.5584 3.10599 65.8688 2.86894 65.0881 2.84524Z" fill="#141517"/>
</g>
<defs>
<clipPath id="clip0_663_2621">
<rect width="72" height="14" fill="white"/>
</clipPath>
</defs>
</svg>
