<svg width="3" height="17" viewBox="0 0 3 17" fill="none" xmlns="http://www.w3.org/2000/svg">
<path fill-rule="evenodd" clip-rule="evenodd" d="M0 1.5C0 1.10218 0.158035 0.720644 0.43934 0.43934C0.720644 0.158035 1.10218 0 1.5 0H1.51C1.90782 0 2.28936 0.158035 2.57066 0.43934C2.85197 0.720644 3.01 1.10218 3.01 1.5V1.51C3.01 1.90782 2.85197 2.28936 2.57066 2.57066C2.28936 2.85196 1.90782 3.01 1.51 3.01H1.5C1.10218 3.01 0.720644 2.85196 0.43934 2.57066C0.158035 2.28936 0 1.90782 0 1.51V1.5ZM0 8.5C0 8.10218 0.158035 7.72064 0.43934 7.43934C0.720644 7.15804 1.10218 7 1.5 7H1.51C1.90782 7 2.28936 7.15804 2.57066 7.43934C2.85197 7.72064 3.01 8.10218 3.01 8.5V8.51C3.01 8.90782 2.85197 9.28936 2.57066 9.57066C2.28936 9.85196 1.90782 10.01 1.51 10.01H1.5C1.10218 10.01 0.720644 9.85196 0.43934 9.57066C0.158035 9.28936 0 8.90782 0 8.51V8.5ZM1.5 14C1.10218 14 0.720644 14.158 0.43934 14.4393C0.158035 14.7206 0 15.1022 0 15.5V15.51C0 15.9078 0.158035 16.2894 0.43934 16.5707C0.720644 16.852 1.10218 17.01 1.5 17.01H1.51C1.90782 17.01 2.28936 16.852 2.57066 16.5707C2.85197 16.2894 3.01 15.9078 3.01 15.51V15.5C3.01 15.1022 2.85197 14.7206 2.57066 14.4393C2.28936 14.158 1.90782 14 1.51 14H1.5Z" fill="#141517"/>
</svg>
