<svg width="381" height="70" viewBox="0 0 381 70" fill="none" xmlns="http://www.w3.org/2000/svg">
<g filter="url(#filter0_d_779_2004)">
<path d="M10 16C10 10.4772 14.4772 6 20 6H361C366.523 6 371 10.4772 371 16V46C371 51.5228 366.523 56 361 56H20C14.4772 56 10 51.5228 10 46V16Z" fill="url(#paint0_linear_779_2004)" shape-rendering="crispEdges"/>
<path d="M138.148 25.1875V36.5H135.789V27.4219H135.727L133.133 29.0469V26.9688L135.93 25.1875H138.148ZM142.695 35.3438L141.352 39.7969H139.695L140.477 35.3438H142.695ZM148.68 25.0312C151.023 25.0469 153.242 26.4375 153.242 30.5469C153.258 34.3906 151.43 36.6562 148.586 36.6562C146.305 36.6562 144.758 35.2344 144.523 33.3125H146.836C147.023 34.1406 147.68 34.6406 148.586 34.6406C150.133 34.6406 150.945 33.2656 150.945 31H150.852C150.32 32 149.211 32.5938 147.945 32.5938C145.914 32.5938 144.414 31.0625 144.398 28.9531C144.398 26.6719 146.117 25.0156 148.68 25.0312ZM148.695 26.875C147.539 26.875 146.68 27.7656 146.695 28.8906C146.695 30 147.523 30.875 148.68 30.875C149.82 30.875 150.711 29.9688 150.711 28.875C150.695 27.7969 149.852 26.875 148.695 26.875ZM158.961 25.0312C161.305 25.0469 163.523 26.4375 163.523 30.5469C163.539 34.3906 161.711 36.6562 158.867 36.6562C156.586 36.6562 155.039 35.2344 154.805 33.3125H157.117C157.305 34.1406 157.961 34.6406 158.867 34.6406C160.414 34.6406 161.227 33.2656 161.227 31H161.133C160.602 32 159.492 32.5938 158.227 32.5938C156.195 32.5938 154.695 31.0625 154.68 28.9531C154.68 26.6719 156.398 25.0156 158.961 25.0312ZM158.977 26.875C157.82 26.875 156.961 27.7656 156.977 28.8906C156.977 30 157.805 30.875 158.961 30.875C160.102 30.875 160.992 29.9688 160.992 28.875C160.977 27.7969 160.133 26.875 158.977 26.875ZM169.508 36.6562C166.68 36.6562 164.961 34.5469 164.961 30.8438C164.961 27.1406 166.68 25.0312 169.508 25.0312C172.336 25.0312 174.055 27.1562 174.055 30.8438C174.055 34.5625 172.336 36.6562 169.508 36.6562ZM169.508 34.7188C170.82 34.7188 171.664 33.4531 171.648 30.8438C171.648 28.2656 170.82 26.9531 169.508 26.9531C168.195 26.9531 167.367 28.2656 167.367 30.8438C167.352 33.4531 168.195 34.7188 169.508 34.7188ZM187.258 23.7344V34.4688H185.258V33.3438H182.539V31.9844H185.258V23.7344H187.258ZM187.57 36.0938V37.6875H176.977V33.4375H178.961V31.5469C177.688 31.6016 176.477 31.6094 175.398 31.6094L175.164 30.0312C177.773 30.0156 181.289 29.9844 184.289 29.6094L184.398 31.0312C183.273 31.2188 182.109 31.3516 180.961 31.4375V34.1406H178.961V36.0938H187.57ZM179.789 24.2188C181.852 24.2031 183.336 25.25 183.336 26.7656C183.336 28.2812 181.852 29.2656 179.789 29.2656C177.68 29.2656 176.211 28.2812 176.211 26.7656C176.211 25.25 177.664 24.2031 179.789 24.2188ZM179.789 25.6719C178.773 25.6719 178.086 26.0625 178.102 26.7656C178.086 27.4531 178.773 27.8281 179.789 27.8281C180.742 27.8281 181.43 27.4531 181.445 26.7656C181.43 26.0625 180.742 25.6719 179.789 25.6719ZM204.711 23.7188V30.875H202.727V29.7812H199.477V28.2656H202.727V27.0156H199.633C198.75 29.1562 196.719 30.5234 193.57 31.2031L192.898 29.5781C196.156 28.9297 197.664 27.5859 197.93 25.875H193.695V24.2656H200.133C200.133 24.6953 200.102 25.1094 200.039 25.5H202.727V23.7188H204.711ZM204.711 31.3906V35.2812H197.273V36.2188H205.023V37.7969H195.273V33.8125H202.711V32.9531H195.258V31.3906H204.711ZM218.852 23.7188V37.9375H216.961V23.7188H218.852ZM215.945 23.9531V37.2812H214.07V30.2031H212.195V28.5938H214.07V23.9531H215.945ZM211.055 27.5312C211.055 29.8906 211.789 32.2812 213.867 33.4688L212.695 34.9375C211.43 34.1875 210.594 32.9141 210.117 31.3906C209.625 33.0469 208.766 34.4531 207.461 35.25L206.258 33.7812C208.352 32.5 209.133 29.9375 209.133 27.5312V26.7656H206.805V25.1719H213.211V26.7656H211.055V27.5312ZM231.602 23.7188V29.2812H233.695V30.9219H231.602V37.9375H229.633V23.7188H231.602ZM228.664 25.8438V27.4375H220.305V25.8438H223.523V23.9375H225.523V25.8438H228.664ZM224.523 28.2344C226.602 28.2344 228.148 29.6406 228.148 31.625C228.148 33.6094 226.602 35.0156 224.523 35.0156C222.43 35.0156 220.883 33.6094 220.883 31.625C220.883 29.6406 222.43 28.2344 224.523 28.2344ZM224.523 29.8438C223.523 29.8594 222.789 30.5312 222.789 31.625C222.789 32.7344 223.523 33.3906 224.523 33.375C225.523 33.3906 226.242 32.7344 226.242 31.625C226.242 30.5312 225.523 29.8594 224.523 29.8438ZM246.164 23.7188V37.9375H244.148V23.7188H246.164ZM241.898 25.2031C241.898 29.5156 240.383 33.0938 235.305 35.5L234.258 33.9062C237.93 32.1719 239.547 29.9219 239.867 26.7656H235.023V25.2031H241.898Z" fill="white"/>
</g>
<defs>
<filter id="filter0_d_779_2004" x="0" y="0" width="381" height="70" filterUnits="userSpaceOnUse" color-interpolation-filters="sRGB">
<feFlood flood-opacity="0" result="BackgroundImageFix"/>
<feColorMatrix in="SourceAlpha" type="matrix" values="0 0 0 0 0 0 0 0 0 0 0 0 0 0 0 0 0 0 127 0" result="hardAlpha"/>
<feOffset dy="4"/>
<feGaussianBlur stdDeviation="5"/>
<feComposite in2="hardAlpha" operator="out"/>
<feColorMatrix type="matrix" values="0 0 0 0 0.784314 0 0 0 0 0.298039 0 0 0 0 0.741176 0 0 0 0.2 0"/>
<feBlend mode="normal" in2="BackgroundImageFix" result="effect1_dropShadow_779_2004"/>
<feBlend mode="normal" in="SourceGraphic" in2="effect1_dropShadow_779_2004" result="shape"/>
</filter>
<linearGradient id="paint0_linear_779_2004" x1="388.468" y1="69.75" x2="3.3747" y2="-100.208" gradientUnits="userSpaceOnUse">
<stop offset="0.0913462" stop-color="#FB49A6"/>
<stop offset="1" stop-color="#5B53F1"/>
</linearGradient>
</defs>
</svg>
