<svg width="22" height="22" viewBox="0 0 22 22" fill="none" xmlns="http://www.w3.org/2000/svg">
<rect x="2.40625" y="2.40625" width="17.1875" height="17.1875" fill="url(#paint0_linear_779_2019)"/>
<circle cx="5.15527" cy="8.47559" r="1.04199" fill="url(#paint1_radial_779_2019)"/>
<path d="M3.4375 11.0004L2.64258 8.93819L3.4375 6.87598C4.20514 6.9875 4.8389 7.51216 5.10597 8.21713C5.13061 8.28216 5.21122 8.30849 5.27055 8.27221C5.49381 8.13571 5.75626 8.05705 6.03711 8.05705C6.84989 8.05705 7.50879 8.71595 7.50879 9.52873C7.50879 10.3415 6.84989 11.0004 6.03711 11.0004H3.4375Z" fill="#DFDEFF"/>
<path d="M3.4375 11.0004L2.64258 8.93819L3.4375 6.87598C4.20514 6.9875 4.8389 7.51216 5.10597 8.21713C5.13061 8.28216 5.21122 8.30849 5.27055 8.27221C5.49381 8.13571 5.75626 8.05705 6.03711 8.05705C6.84989 8.05705 7.50879 8.71595 7.50879 9.52873C7.50879 10.3415 6.84989 11.0004 6.03711 11.0004H3.4375Z" fill="url(#paint2_linear_779_2019)"/>
<path d="M3.4375 11.0004L2.64258 8.93819L3.4375 6.87598C4.20514 6.9875 4.8389 7.51216 5.10597 8.21713C5.13061 8.28216 5.21122 8.30849 5.27055 8.27221C5.49381 8.13571 5.75626 8.05705 6.03711 8.05705C6.84989 8.05705 7.50879 8.71595 7.50879 9.52873C7.50879 10.3415 6.84989 11.0004 6.03711 11.0004H3.4375Z" fill="url(#paint3_radial_779_2019)"/>
<path d="M3.4375 11.0004L2.64258 8.93819L3.4375 6.87598C4.20514 6.9875 4.8389 7.51216 5.10597 8.21713C5.13061 8.28216 5.21122 8.30849 5.27055 8.27221C5.49381 8.13571 5.75626 8.05705 6.03711 8.05705C6.84989 8.05705 7.50879 8.71595 7.50879 9.52873C7.50879 10.3415 6.84989 11.0004 6.03711 11.0004H3.4375Z" fill="url(#paint4_radial_779_2019)"/>
<circle cx="16.6286" cy="8.3366" r="1.42156" fill="url(#paint5_radial_779_2019)"/>
<circle cx="16.6286" cy="8.3366" r="1.42156" fill="url(#paint6_radial_779_2019)"/>
<path d="M15.9961 8.92856C16.7266 7.2462 17.9999 6.41287 18.5625 6.29297L19.7012 10.1115H16.9715L15.9961 8.92856Z" fill="url(#paint7_radial_779_2019)"/>
<path d="M15.9961 8.92856C16.7266 7.2462 17.9999 6.41287 18.5625 6.29297L19.7012 10.1115H16.9715L15.9961 8.92856Z" fill="url(#paint8_radial_779_2019)"/>
<circle cx="15.336" cy="10.129" r="2.23054" fill="url(#paint9_radial_779_2019)"/>
<path d="M5.16363 12.2426L3.4375 13.2331L2.79297 19.1636H19.4434C19.4434 19.1636 18.5625 8.79677 18.5625 8.41406C17.5312 8.41406 16.8438 8.75233 15.8125 9.76713L12.7188 12.8115C12.0312 13.4881 11.3935 13.7494 10.706 13.4111C10.4769 13.2984 9.64875 12.7731 8.61372 12.1869C7.54696 11.5828 5.93155 11.764 5.16363 12.2426Z" fill="url(#paint10_radial_779_2019)"/>
<path d="M5.16363 12.2426L3.4375 13.2331L2.79297 19.1636H19.4434C19.4434 19.1636 18.5625 8.79677 18.5625 8.41406C17.5312 8.41406 16.8438 8.75233 15.8125 9.76713L12.7188 12.8115C12.0312 13.4881 11.3935 13.7494 10.706 13.4111C10.4769 13.2984 9.64875 12.7731 8.61372 12.1869C7.54696 11.5828 5.93155 11.764 5.16363 12.2426Z" fill="url(#paint11_radial_779_2019)"/>
<path d="M5.16363 12.2426L3.4375 13.2331L2.79297 19.1636H19.4434C19.4434 19.1636 18.5625 8.79677 18.5625 8.41406C17.5312 8.41406 16.8438 8.75233 15.8125 9.76713L12.7188 12.8115C12.0312 13.4881 11.3935 13.7494 10.706 13.4111C10.4769 13.2984 9.64875 12.7731 8.61372 12.1869C7.54696 11.5828 5.93155 11.764 5.16363 12.2426Z" fill="url(#paint12_radial_779_2019)"/>
<path d="M5.16363 12.2426L3.4375 13.2331L2.79297 19.1636H19.4434C19.4434 19.1636 18.5625 8.79677 18.5625 8.41406C17.5312 8.41406 16.8438 8.75233 15.8125 9.76713L12.7188 12.8115C12.0312 13.4881 11.3935 13.7494 10.706 13.4111C10.4769 13.2984 9.64875 12.7731 8.61372 12.1869C7.54696 11.5828 5.93155 11.764 5.16363 12.2426Z" fill="url(#paint13_radial_779_2019)"/>
<path d="M5.16363 12.2426L3.4375 13.2331L2.79297 19.1636H19.4434C19.4434 19.1636 18.5625 8.79677 18.5625 8.41406C17.5312 8.41406 16.8438 8.75233 15.8125 9.76713L12.7188 12.8115C12.0312 13.4881 11.3935 13.7494 10.706 13.4111C10.4769 13.2984 9.64875 12.7731 8.61372 12.1869C7.54696 11.5828 5.93155 11.764 5.16363 12.2426Z" fill="url(#paint14_radial_779_2019)"/>
<path d="M18.5625 18.4329V18.5625H3.4375V18.4329C5.20002 16.6595 7.93241 15.4688 11 15.4688C14.0676 15.4688 16.8 16.6595 18.5625 18.4329Z" fill="url(#paint15_radial_779_2019)"/>
<path d="M18.5625 18.4329V18.5625H3.4375V18.4329C5.20002 16.6595 7.93241 15.4688 11 15.4688C14.0676 15.4688 16.8 16.6595 18.5625 18.4329Z" fill="url(#paint16_radial_779_2019)"/>
<path d="M18.5625 18.4329V18.5625H3.4375V18.4329C5.20002 16.6595 7.93241 15.4688 11 15.4688C14.0676 15.4688 16.8 16.6595 18.5625 18.4329Z" fill="url(#paint17_radial_779_2019)"/>
<path d="M11.1715 4.76644C11.3858 4.52522 11.6772 4.56361 11.8636 4.76644L11.9773 4.89807C12.0167 4.9409 12.0736 4.96311 12.1316 4.95823L12.3337 4.89807C12.6093 4.83901 12.8596 5.04456 12.8596 5.36381V5.48408C12.8655 5.54974 12.9228 5.59424 12.9821 5.62317L13.1647 5.69947C13.4289 5.82849 13.4949 6.13463 13.3024 6.39156L13.2478 6.46372C13.1987 6.53001 13.2088 6.61702 13.2576 6.68348L13.3123 6.76002C13.5113 7.00493 13.3991 7.34093 13.118 7.45833L12.9608 7.52399C12.9016 7.54872 12.8784 7.59117 12.8673 7.65438L12.8564 7.85993C12.8181 8.14201 12.5676 8.26942 12.3665 8.24096L12.1271 8.177C12.0696 8.16885 11.9981 8.18793 11.9598 8.24806L11.8734 8.36614C11.6591 8.60777 11.3699 8.5676 11.224 8.42628L11.0647 8.2333C11.0229 8.1929 10.9703 8.15841 10.9074 8.18217L10.6664 8.24806C10.4674 8.27624 10.2331 8.12328 10.1956 7.92587L10.1678 7.64016C10.1565 7.5807 10.1173 7.5303 10.0624 7.50473L9.89339 7.44664C9.63917 7.32817 9.55402 7.04137 9.69999 6.80188L9.79527 6.67011C9.83354 6.60731 9.83173 6.52798 9.79061 6.467L9.71955 6.36641C9.51837 6.07996 9.65746 5.75978 9.95557 5.66379L10.0213 5.64262C10.0939 5.61925 10.164 5.55899 10.17 5.48299L10.1847 5.2985C10.2084 4.99905 10.4817 4.82722 10.7691 4.91459L10.8621 4.94287C10.9517 4.97786 11.022 4.94806 11.0709 4.89476L11.1715 4.76644Z" fill="url(#paint18_linear_779_2019)"/>
<path d="M11.1715 4.76644C11.3858 4.52522 11.6772 4.56361 11.8636 4.76644L11.9773 4.89807C12.0167 4.9409 12.0736 4.96311 12.1316 4.95823L12.3337 4.89807C12.6093 4.83901 12.8596 5.04456 12.8596 5.36381V5.48408C12.8655 5.54974 12.9228 5.59424 12.9821 5.62317L13.1647 5.69947C13.4289 5.82849 13.4949 6.13463 13.3024 6.39156L13.2478 6.46372C13.1987 6.53001 13.2088 6.61702 13.2576 6.68348L13.3123 6.76002C13.5113 7.00493 13.3991 7.34093 13.118 7.45833L12.9608 7.52399C12.9016 7.54872 12.8784 7.59117 12.8673 7.65438L12.8564 7.85993C12.8181 8.14201 12.5676 8.26942 12.3665 8.24096L12.1271 8.177C12.0696 8.16885 11.9981 8.18793 11.9598 8.24806L11.8734 8.36614C11.6591 8.60777 11.3699 8.5676 11.224 8.42628L11.0647 8.2333C11.0229 8.1929 10.9703 8.15841 10.9074 8.18217L10.6664 8.24806C10.4674 8.27624 10.2331 8.12328 10.1956 7.92587L10.1678 7.64016C10.1565 7.5807 10.1173 7.5303 10.0624 7.50473L9.89339 7.44664C9.63917 7.32817 9.55402 7.04137 9.69999 6.80188L9.79527 6.67011C9.83354 6.60731 9.83173 6.52798 9.79061 6.467L9.71955 6.36641C9.51837 6.07996 9.65746 5.75978 9.95557 5.66379L10.0213 5.64262C10.0939 5.61925 10.164 5.55899 10.17 5.48299L10.1847 5.2985C10.2084 4.99905 10.4817 4.82722 10.7691 4.91459L10.8621 4.94287C10.9517 4.97786 11.022 4.94806 11.0709 4.89476L11.1715 4.76644Z" fill="url(#paint19_radial_779_2019)"/>
<path d="M11.1715 4.76644C11.3858 4.52522 11.6772 4.56361 11.8636 4.76644L11.9773 4.89807C12.0167 4.9409 12.0736 4.96311 12.1316 4.95823L12.3337 4.89807C12.6093 4.83901 12.8596 5.04456 12.8596 5.36381V5.48408C12.8655 5.54974 12.9228 5.59424 12.9821 5.62317L13.1647 5.69947C13.4289 5.82849 13.4949 6.13463 13.3024 6.39156L13.2478 6.46372C13.1987 6.53001 13.2088 6.61702 13.2576 6.68348L13.3123 6.76002C13.5113 7.00493 13.3991 7.34093 13.118 7.45833L12.9608 7.52399C12.9016 7.54872 12.8784 7.59117 12.8673 7.65438L12.8564 7.85993C12.8181 8.14201 12.5676 8.26942 12.3665 8.24096L12.1271 8.177C12.0696 8.16885 11.9981 8.18793 11.9598 8.24806L11.8734 8.36614C11.6591 8.60777 11.3699 8.5676 11.224 8.42628L11.0647 8.2333C11.0229 8.1929 10.9703 8.15841 10.9074 8.18217L10.6664 8.24806C10.4674 8.27624 10.2331 8.12328 10.1956 7.92587L10.1678 7.64016C10.1565 7.5807 10.1173 7.5303 10.0624 7.50473L9.89339 7.44664C9.63917 7.32817 9.55402 7.04137 9.69999 6.80188L9.79527 6.67011C9.83354 6.60731 9.83173 6.52798 9.79061 6.467L9.71955 6.36641C9.51837 6.07996 9.65746 5.75978 9.95557 5.66379L10.0213 5.64262C10.0939 5.61925 10.164 5.55899 10.17 5.48299L10.1847 5.2985C10.2084 4.99905 10.4817 4.82722 10.7691 4.91459L10.8621 4.94287C10.9517 4.97786 11.022 4.94806 11.0709 4.89476L11.1715 4.76644Z" fill="url(#paint20_radial_779_2019)"/>
<path d="M11.1715 4.76644C11.3858 4.52522 11.6772 4.56361 11.8636 4.76644L11.9773 4.89807C12.0167 4.9409 12.0736 4.96311 12.1316 4.95823L12.3337 4.89807C12.6093 4.83901 12.8596 5.04456 12.8596 5.36381V5.48408C12.8655 5.54974 12.9228 5.59424 12.9821 5.62317L13.1647 5.69947C13.4289 5.82849 13.4949 6.13463 13.3024 6.39156L13.2478 6.46372C13.1987 6.53001 13.2088 6.61702 13.2576 6.68348L13.3123 6.76002C13.5113 7.00493 13.3991 7.34093 13.118 7.45833L12.9608 7.52399C12.9016 7.54872 12.8784 7.59117 12.8673 7.65438L12.8564 7.85993C12.8181 8.14201 12.5676 8.26942 12.3665 8.24096L12.1271 8.177C12.0696 8.16885 11.9981 8.18793 11.9598 8.24806L11.8734 8.36614C11.6591 8.60777 11.3699 8.5676 11.224 8.42628L11.0647 8.2333C11.0229 8.1929 10.9703 8.15841 10.9074 8.18217L10.6664 8.24806C10.4674 8.27624 10.2331 8.12328 10.1956 7.92587L10.1678 7.64016C10.1565 7.5807 10.1173 7.5303 10.0624 7.50473L9.89339 7.44664C9.63917 7.32817 9.55402 7.04137 9.69999 6.80188L9.79527 6.67011C9.83354 6.60731 9.83173 6.52798 9.79061 6.467L9.71955 6.36641C9.51837 6.07996 9.65746 5.75978 9.95557 5.66379L10.0213 5.64262C10.0939 5.61925 10.164 5.55899 10.17 5.48299L10.1847 5.2985C10.2084 4.99905 10.4817 4.82722 10.7691 4.91459L10.8621 4.94287C10.9517 4.97786 11.022 4.94806 11.0709 4.89476L11.1715 4.76644Z" fill="url(#paint21_radial_779_2019)"/>
<path d="M11.1715 4.76644C11.3858 4.52522 11.6772 4.56361 11.8636 4.76644L11.9773 4.89807C12.0167 4.9409 12.0736 4.96311 12.1316 4.95823L12.3337 4.89807C12.6093 4.83901 12.8596 5.04456 12.8596 5.36381V5.48408C12.8655 5.54974 12.9228 5.59424 12.9821 5.62317L13.1647 5.69947C13.4289 5.82849 13.4949 6.13463 13.3024 6.39156L13.2478 6.46372C13.1987 6.53001 13.2088 6.61702 13.2576 6.68348L13.3123 6.76002C13.5113 7.00493 13.3991 7.34093 13.118 7.45833L12.9608 7.52399C12.9016 7.54872 12.8784 7.59117 12.8673 7.65438L12.8564 7.85993C12.8181 8.14201 12.5676 8.26942 12.3665 8.24096L12.1271 8.177C12.0696 8.16885 11.9981 8.18793 11.9598 8.24806L11.8734 8.36614C11.6591 8.60777 11.3699 8.5676 11.224 8.42628L11.0647 8.2333C11.0229 8.1929 10.9703 8.15841 10.9074 8.18217L10.6664 8.24806C10.4674 8.27624 10.2331 8.12328 10.1956 7.92587L10.1678 7.64016C10.1565 7.5807 10.1173 7.5303 10.0624 7.50473L9.89339 7.44664C9.63917 7.32817 9.55402 7.04137 9.69999 6.80188L9.79527 6.67011C9.83354 6.60731 9.83173 6.52798 9.79061 6.467L9.71955 6.36641C9.51837 6.07996 9.65746 5.75978 9.95557 5.66379L10.0213 5.64262C10.0939 5.61925 10.164 5.55899 10.17 5.48299L10.1847 5.2985C10.2084 4.99905 10.4817 4.82722 10.7691 4.91459L10.8621 4.94287C10.9517 4.97786 11.022 4.94806 11.0709 4.89476L11.1715 4.76644Z" fill="url(#paint22_radial_779_2019)"/>
<path d="M11.1715 4.76644C11.3858 4.52522 11.6772 4.56361 11.8636 4.76644L11.9773 4.89807C12.0167 4.9409 12.0736 4.96311 12.1316 4.95823L12.3337 4.89807C12.6093 4.83901 12.8596 5.04456 12.8596 5.36381V5.48408C12.8655 5.54974 12.9228 5.59424 12.9821 5.62317L13.1647 5.69947C13.4289 5.82849 13.4949 6.13463 13.3024 6.39156L13.2478 6.46372C13.1987 6.53001 13.2088 6.61702 13.2576 6.68348L13.3123 6.76002C13.5113 7.00493 13.3991 7.34093 13.118 7.45833L12.9608 7.52399C12.9016 7.54872 12.8784 7.59117 12.8673 7.65438L12.8564 7.85993C12.8181 8.14201 12.5676 8.26942 12.3665 8.24096L12.1271 8.177C12.0696 8.16885 11.9981 8.18793 11.9598 8.24806L11.8734 8.36614C11.6591 8.60777 11.3699 8.5676 11.224 8.42628L11.0647 8.2333C11.0229 8.1929 10.9703 8.15841 10.9074 8.18217L10.6664 8.24806C10.4674 8.27624 10.2331 8.12328 10.1956 7.92587L10.1678 7.64016C10.1565 7.5807 10.1173 7.5303 10.0624 7.50473L9.89339 7.44664C9.63917 7.32817 9.55402 7.04137 9.69999 6.80188L9.79527 6.67011C9.83354 6.60731 9.83173 6.52798 9.79061 6.467L9.71955 6.36641C9.51837 6.07996 9.65746 5.75978 9.95557 5.66379L10.0213 5.64262C10.0939 5.61925 10.164 5.55899 10.17 5.48299L10.1847 5.2985C10.2084 4.99905 10.4817 4.82722 10.7691 4.91459L10.8621 4.94287C10.9517 4.97786 11.022 4.94806 11.0709 4.89476L11.1715 4.76644Z" fill="url(#paint23_radial_779_2019)"/>
<path d="M11.1715 4.76644C11.3858 4.52522 11.6772 4.56361 11.8636 4.76644L11.9773 4.89807C12.0167 4.9409 12.0736 4.96311 12.1316 4.95823L12.3337 4.89807C12.6093 4.83901 12.8596 5.04456 12.8596 5.36381V5.48408C12.8655 5.54974 12.9228 5.59424 12.9821 5.62317L13.1647 5.69947C13.4289 5.82849 13.4949 6.13463 13.3024 6.39156L13.2478 6.46372C13.1987 6.53001 13.2088 6.61702 13.2576 6.68348L13.3123 6.76002C13.5113 7.00493 13.3991 7.34093 13.118 7.45833L12.9608 7.52399C12.9016 7.54872 12.8784 7.59117 12.8673 7.65438L12.8564 7.85993C12.8181 8.14201 12.5676 8.26942 12.3665 8.24096L12.1271 8.177C12.0696 8.16885 11.9981 8.18793 11.9598 8.24806L11.8734 8.36614C11.6591 8.60777 11.3699 8.5676 11.224 8.42628L11.0647 8.2333C11.0229 8.1929 10.9703 8.15841 10.9074 8.18217L10.6664 8.24806C10.4674 8.27624 10.2331 8.12328 10.1956 7.92587L10.1678 7.64016C10.1565 7.5807 10.1173 7.5303 10.0624 7.50473L9.89339 7.44664C9.63917 7.32817 9.55402 7.04137 9.69999 6.80188L9.79527 6.67011C9.83354 6.60731 9.83173 6.52798 9.79061 6.467L9.71955 6.36641C9.51837 6.07996 9.65746 5.75978 9.95557 5.66379L10.0213 5.64262C10.0939 5.61925 10.164 5.55899 10.17 5.48299L10.1847 5.2985C10.2084 4.99905 10.4817 4.82722 10.7691 4.91459L10.8621 4.94287C10.9517 4.97786 11.022 4.94806 11.0709 4.89476L11.1715 4.76644Z" fill="url(#paint24_radial_779_2019)"/>
<path d="M11.1715 4.76644C11.3858 4.52522 11.6772 4.56361 11.8636 4.76644L11.9773 4.89807C12.0167 4.9409 12.0736 4.96311 12.1316 4.95823L12.3337 4.89807C12.6093 4.83901 12.8596 5.04456 12.8596 5.36381V5.48408C12.8655 5.54974 12.9228 5.59424 12.9821 5.62317L13.1647 5.69947C13.4289 5.82849 13.4949 6.13463 13.3024 6.39156L13.2478 6.46372C13.1987 6.53001 13.2088 6.61702 13.2576 6.68348L13.3123 6.76002C13.5113 7.00493 13.3991 7.34093 13.118 7.45833L12.9608 7.52399C12.9016 7.54872 12.8784 7.59117 12.8673 7.65438L12.8564 7.85993C12.8181 8.14201 12.5676 8.26942 12.3665 8.24096L12.1271 8.177C12.0696 8.16885 11.9981 8.18793 11.9598 8.24806L11.8734 8.36614C11.6591 8.60777 11.3699 8.5676 11.224 8.42628L11.0647 8.2333C11.0229 8.1929 10.9703 8.15841 10.9074 8.18217L10.6664 8.24806C10.4674 8.27624 10.2331 8.12328 10.1956 7.92587L10.1678 7.64016C10.1565 7.5807 10.1173 7.5303 10.0624 7.50473L9.89339 7.44664C9.63917 7.32817 9.55402 7.04137 9.69999 6.80188L9.79527 6.67011C9.83354 6.60731 9.83173 6.52798 9.79061 6.467L9.71955 6.36641C9.51837 6.07996 9.65746 5.75978 9.95557 5.66379L10.0213 5.64262C10.0939 5.61925 10.164 5.55899 10.17 5.48299L10.1847 5.2985C10.2084 4.99905 10.4817 4.82722 10.7691 4.91459L10.8621 4.94287C10.9517 4.97786 11.022 4.94806 11.0709 4.89476L11.1715 4.76644Z" fill="url(#paint25_radial_779_2019)"/>
<path d="M11.1715 4.76644C11.3858 4.52522 11.6772 4.56361 11.8636 4.76644L11.9773 4.89807C12.0167 4.9409 12.0736 4.96311 12.1316 4.95823L12.3337 4.89807C12.6093 4.83901 12.8596 5.04456 12.8596 5.36381V5.48408C12.8655 5.54974 12.9228 5.59424 12.9821 5.62317L13.1647 5.69947C13.4289 5.82849 13.4949 6.13463 13.3024 6.39156L13.2478 6.46372C13.1987 6.53001 13.2088 6.61702 13.2576 6.68348L13.3123 6.76002C13.5113 7.00493 13.3991 7.34093 13.118 7.45833L12.9608 7.52399C12.9016 7.54872 12.8784 7.59117 12.8673 7.65438L12.8564 7.85993C12.8181 8.14201 12.5676 8.26942 12.3665 8.24096L12.1271 8.177C12.0696 8.16885 11.9981 8.18793 11.9598 8.24806L11.8734 8.36614C11.6591 8.60777 11.3699 8.5676 11.224 8.42628L11.0647 8.2333C11.0229 8.1929 10.9703 8.15841 10.9074 8.18217L10.6664 8.24806C10.4674 8.27624 10.2331 8.12328 10.1956 7.92587L10.1678 7.64016C10.1565 7.5807 10.1173 7.5303 10.0624 7.50473L9.89339 7.44664C9.63917 7.32817 9.55402 7.04137 9.69999 6.80188L9.79527 6.67011C9.83354 6.60731 9.83173 6.52798 9.79061 6.467L9.71955 6.36641C9.51837 6.07996 9.65746 5.75978 9.95557 5.66379L10.0213 5.64262C10.0939 5.61925 10.164 5.55899 10.17 5.48299L10.1847 5.2985C10.2084 4.99905 10.4817 4.82722 10.7691 4.91459L10.8621 4.94287C10.9517 4.97786 11.022 4.94806 11.0709 4.89476L11.1715 4.76644Z" fill="url(#paint26_radial_779_2019)"/>
<path d="M11.1715 4.76644C11.3858 4.52522 11.6772 4.56361 11.8636 4.76644L11.9773 4.89807C12.0167 4.9409 12.0736 4.96311 12.1316 4.95823L12.3337 4.89807C12.6093 4.83901 12.8596 5.04456 12.8596 5.36381V5.48408C12.8655 5.54974 12.9228 5.59424 12.9821 5.62317L13.1647 5.69947C13.4289 5.82849 13.4949 6.13463 13.3024 6.39156L13.2478 6.46372C13.1987 6.53001 13.2088 6.61702 13.2576 6.68348L13.3123 6.76002C13.5113 7.00493 13.3991 7.34093 13.118 7.45833L12.9608 7.52399C12.9016 7.54872 12.8784 7.59117 12.8673 7.65438L12.8564 7.85993C12.8181 8.14201 12.5676 8.26942 12.3665 8.24096L12.1271 8.177C12.0696 8.16885 11.9981 8.18793 11.9598 8.24806L11.8734 8.36614C11.6591 8.60777 11.3699 8.5676 11.224 8.42628L11.0647 8.2333C11.0229 8.1929 10.9703 8.15841 10.9074 8.18217L10.6664 8.24806C10.4674 8.27624 10.2331 8.12328 10.1956 7.92587L10.1678 7.64016C10.1565 7.5807 10.1173 7.5303 10.0624 7.50473L9.89339 7.44664C9.63917 7.32817 9.55402 7.04137 9.69999 6.80188L9.79527 6.67011C9.83354 6.60731 9.83173 6.52798 9.79061 6.467L9.71955 6.36641C9.51837 6.07996 9.65746 5.75978 9.95557 5.66379L10.0213 5.64262C10.0939 5.61925 10.164 5.55899 10.17 5.48299L10.1847 5.2985C10.2084 4.99905 10.4817 4.82722 10.7691 4.91459L10.8621 4.94287C10.9517 4.97786 11.022 4.94806 11.0709 4.89476L11.1715 4.76644Z" fill="url(#paint27_radial_779_2019)"/>
<path d="M11.5191 8.07039C12.3494 8.07039 13.0225 7.39727 13.0225 6.56694C13.0225 5.7366 12.3494 5.06348 11.5191 5.06348C10.6887 5.06348 10.0156 5.7366 10.0156 6.56694C10.0156 7.39727 10.6887 8.07039 11.5191 8.07039Z" fill="url(#paint28_radial_779_2019)"/>
<path d="M3.4375 3.4375L2.90039 2.10547L1.375 1.375V20.625L2.90039 19.7656L3.4375 18.5625V3.4375Z" fill="url(#paint29_linear_779_2019)"/>
<path d="M3.4375 3.4375L2.90039 2.10547L1.375 1.375V20.625L2.90039 19.7656L3.4375 18.5625V3.4375Z" fill="url(#paint30_linear_779_2019)"/>
<path d="M18.5625 18.5625L18.8203 19.5938L20.625 20.625L20.625 1.375L18.9492 2.40625L18.5625 3.4375V18.5625Z" fill="url(#paint31_linear_779_2019)"/>
<path d="M18.5625 18.5625L18.8203 19.5938L20.625 20.625L20.625 1.375L18.9492 2.40625L18.5625 3.4375V18.5625Z" fill="url(#paint32_linear_779_2019)"/>
<path d="M3.4375 18.5625L1.375 20.625L20.625 20.625L18.5625 18.5625H3.4375Z" fill="url(#paint33_linear_779_2019)"/>
<path d="M3.4375 18.5625L1.375 20.625L20.625 20.625L18.5625 18.5625H3.4375Z" fill="url(#paint34_linear_779_2019)"/>
<path d="M3.4375 18.5625L1.375 20.625L20.625 20.625L18.5625 18.5625H3.4375Z" fill="url(#paint35_linear_779_2019)"/>
<path d="M18.5625 3.4375H3.4375L1.375 1.375H20.625L18.5625 3.4375Z" fill="url(#paint36_linear_779_2019)"/>
<path d="M18.5625 3.4375H3.4375L1.375 1.375H20.625L18.5625 3.4375Z" fill="url(#paint37_linear_779_2019)"/>
<path d="M18.5625 3.4375H3.4375L1.375 1.375H20.625L18.5625 3.4375Z" fill="url(#paint38_linear_779_2019)"/>
<defs>
<linearGradient id="paint0_linear_779_2019" x1="11" y1="2.40625" x2="11" y2="19.5938" gradientUnits="userSpaceOnUse">
<stop stop-color="#A6E5F7"/>
<stop offset="0.614765" stop-color="#85D6F5"/>
</linearGradient>
<radialGradient id="paint1_radial_779_2019" cx="0" cy="0" r="1" gradientUnits="userSpaceOnUse" gradientTransform="translate(5.27342 8.3252) rotate(-115.017) scale(1.06689)">
<stop offset="0.108272" stop-color="#EBEAFF"/>
<stop offset="1" stop-color="#D5D8FF"/>
</radialGradient>
<linearGradient id="paint2_linear_779_2019" x1="4.85545" y1="11.0004" x2="4.85545" y2="10.3988" gradientUnits="userSpaceOnUse">
<stop stop-color="#CFC9FF"/>
<stop offset="1" stop-color="#CFC9FF" stop-opacity="0"/>
</linearGradient>
<radialGradient id="paint3_radial_779_2019" cx="0" cy="0" r="1" gradientUnits="userSpaceOnUse" gradientTransform="translate(7.2617 9.15275) rotate(151.736) scale(2.26851 1.9045)">
<stop stop-color="#F2F3FF"/>
<stop offset="1" stop-color="#F2F3FF" stop-opacity="0"/>
</radialGradient>
<radialGradient id="paint4_radial_779_2019" cx="0" cy="0" r="1" gradientUnits="userSpaceOnUse" gradientTransform="translate(4.72654 7.34807) rotate(121.861) scale(1.87222 1.51772)">
<stop offset="0.222069" stop-color="#F4F4FF"/>
<stop offset="1" stop-color="#F4F4FF" stop-opacity="0"/>
</radialGradient>
<radialGradient id="paint5_radial_779_2019" cx="0" cy="0" r="1" gradientUnits="userSpaceOnUse" gradientTransform="translate(15.3394 7.34724) rotate(18.4331) scale(1.35892)">
<stop offset="0.209985" stop-color="#D4D5FF"/>
<stop offset="0.754934" stop-color="#DDDCFF"/>
</radialGradient>
<radialGradient id="paint6_radial_779_2019" cx="0" cy="0" r="1" gradientUnits="userSpaceOnUse" gradientTransform="translate(16.3169 8.66853) rotate(-50.9342) scale(2.13067 0.991626)">
<stop offset="0.457026" stop-color="#EFEFFF"/>
<stop offset="1" stop-color="#EFEFFF" stop-opacity="0"/>
</radialGradient>
<radialGradient id="paint7_radial_779_2019" cx="0" cy="0" r="1" gradientUnits="userSpaceOnUse" gradientTransform="translate(18.5625 8.46495) rotate(-128.32) scale(1.69781 3.50288)">
<stop offset="0.581265" stop-color="#DEDFFF"/>
<stop offset="1" stop-color="#D8D9FF"/>
</radialGradient>
<radialGradient id="paint8_radial_779_2019" cx="0" cy="0" r="1" gradientUnits="userSpaceOnUse" gradientTransform="translate(16.3496 8.85167) rotate(-42.7094) scale(1.14029 1.75771)">
<stop offset="0.564164" stop-color="#EFEFFF"/>
<stop offset="0.728168" stop-color="#EFEFFF" stop-opacity="0"/>
</radialGradient>
<radialGradient id="paint9_radial_779_2019" cx="0" cy="0" r="1" gradientUnits="userSpaceOnUse" gradientTransform="translate(17.0901 8.78467) rotate(152.354) scale(4.25647)">
<stop offset="0.400983" stop-color="#EEEEFF"/>
<stop offset="1" stop-color="#D4D3FF"/>
</radialGradient>
<radialGradient id="paint10_radial_779_2019" cx="0" cy="0" r="1" gradientUnits="userSpaceOnUse" gradientTransform="translate(11 16.5707) rotate(-90) scale(6.00159 14.7616)">
<stop stop-color="#2DAC5B"/>
<stop offset="1" stop-color="#35BD69"/>
</radialGradient>
<radialGradient id="paint11_radial_779_2019" cx="0" cy="0" r="1" gradientUnits="userSpaceOnUse" gradientTransform="translate(7.94922 11.2144) rotate(50.3558) scale(5.85921 3.5636)">
<stop stop-color="#4DC277"/>
<stop offset="1" stop-color="#4DC277" stop-opacity="0"/>
</radialGradient>
<radialGradient id="paint12_radial_779_2019" cx="0" cy="0" r="1" gradientUnits="userSpaceOnUse" gradientTransform="translate(18.5625 8.41406) rotate(90) scale(8.73004 3.44066)">
<stop stop-color="#3BCC74"/>
<stop offset="1" stop-color="#3BCC74" stop-opacity="0"/>
</radialGradient>
<radialGradient id="paint13_radial_779_2019" cx="0" cy="0" r="1" gradientUnits="userSpaceOnUse" gradientTransform="translate(12.375 12.5894) rotate(110.45) scale(2.70567 1.7708)">
<stop offset="0.350226" stop-color="#4CA876"/>
<stop offset="1" stop-color="#4CA876" stop-opacity="0"/>
</radialGradient>
<radialGradient id="paint14_radial_779_2019" cx="0" cy="0" r="1" gradientUnits="userSpaceOnUse" gradientTransform="translate(3.4375 19.3355) rotate(-49.844) scale(3.5981 5.36277)">
<stop stop-color="#399E60"/>
<stop offset="1" stop-color="#399E60" stop-opacity="0"/>
</radialGradient>
<radialGradient id="paint15_radial_779_2019" cx="0" cy="0" r="1" gradientUnits="userSpaceOnUse" gradientTransform="translate(11 18.5625) rotate(-90) scale(2.7804 8.10541)">
<stop stop-color="#7FD86C"/>
<stop offset="1" stop-color="#9FD660"/>
</radialGradient>
<radialGradient id="paint16_radial_779_2019" cx="0" cy="0" r="1" gradientUnits="userSpaceOnUse" gradientTransform="translate(4.39332 19.4325) rotate(-31.3955) scale(7.09279 9.59183)">
<stop stop-color="#79C56C"/>
<stop offset="1" stop-color="#79C56C" stop-opacity="0"/>
</radialGradient>
<radialGradient id="paint17_radial_779_2019" cx="0" cy="0" r="1" gradientUnits="userSpaceOnUse" gradientTransform="translate(18.9505 19.5216) rotate(-133.877) scale(6.42284 6.46543)">
<stop stop-color="#93EB81"/>
<stop offset="1" stop-color="#93EB81" stop-opacity="0"/>
</radialGradient>
<linearGradient id="paint18_linear_779_2019" x1="12.6868" y1="5.26129" x2="10.5386" y2="8.00209" gradientUnits="userSpaceOnUse">
<stop stop-color="#FC8B23"/>
<stop offset="1" stop-color="#E67639"/>
</linearGradient>
<radialGradient id="paint19_radial_779_2019" cx="0" cy="0" r="1" gradientUnits="userSpaceOnUse" gradientTransform="translate(11.8808 4.78132) rotate(138.155) scale(0.528814 0.466578)">
<stop offset="0.300161" stop-color="#FFA13A"/>
<stop offset="1" stop-color="#FFA13A" stop-opacity="0"/>
</radialGradient>
<radialGradient id="paint20_radial_779_2019" cx="0" cy="0" r="1" gradientUnits="userSpaceOnUse" gradientTransform="translate(10.5049 4.61438) rotate(67.8105) scale(0.840691 0.74175)">
<stop offset="0.300161" stop-color="#FF942A"/>
<stop offset="1" stop-color="#FF942A" stop-opacity="0"/>
</radialGradient>
<radialGradient id="paint21_radial_779_2019" cx="0" cy="0" r="1" gradientUnits="userSpaceOnUse" gradientTransform="translate(12.7628 5.39869) rotate(-164.745) scale(0.335195 0.464121)">
<stop offset="0.300161" stop-color="#FFA13D"/>
<stop offset="1" stop-color="#FFA13D" stop-opacity="0"/>
</radialGradient>
<radialGradient id="paint22_radial_779_2019" cx="0" cy="0" r="1" gradientUnits="userSpaceOnUse" gradientTransform="translate(13.4389 5.88671) rotate(154.195) scale(0.594316 0.438946)">
<stop offset="0.300161" stop-color="#FFA13D"/>
<stop offset="1" stop-color="#FFA13D" stop-opacity="0"/>
</radialGradient>
<radialGradient id="paint23_radial_779_2019" cx="0" cy="0" r="1" gradientUnits="userSpaceOnUse" gradientTransform="translate(13.5683 6.89214) rotate(-173.379) scale(0.662949 0.373594)">
<stop offset="0.300161" stop-color="#FFA13D"/>
<stop offset="1" stop-color="#FFA13D" stop-opacity="0"/>
</radialGradient>
<radialGradient id="paint24_radial_779_2019" cx="0" cy="0" r="1" gradientUnits="userSpaceOnUse" gradientTransform="translate(12.9744 7.66238) rotate(-43.9639) scale(0.601348 0.579329)">
<stop stop-color="#E0762A"/>
<stop offset="1" stop-color="#E0762A" stop-opacity="0"/>
</radialGradient>
<radialGradient id="paint25_radial_779_2019" cx="0" cy="0" r="1" gradientUnits="userSpaceOnUse" gradientTransform="translate(10.1874 7.52127) rotate(-127.747) scale(0.461023 0.444142)">
<stop stop-color="#E0762A"/>
<stop offset="1" stop-color="#E0762A" stop-opacity="0"/>
</radialGradient>
<radialGradient id="paint26_radial_779_2019" cx="0" cy="0" r="1" gradientUnits="userSpaceOnUse" gradientTransform="translate(9.55831 5.96314) rotate(25.2777) scale(0.468167 0.565847)">
<stop stop-color="#F0851D"/>
<stop offset="1" stop-color="#F0851D" stop-opacity="0"/>
</radialGradient>
<radialGradient id="paint27_radial_779_2019" cx="0" cy="0" r="1" gradientUnits="userSpaceOnUse" gradientTransform="translate(12.3529 8.33006) rotate(-142.487) scale(0.545833 0.514946)">
<stop offset="0.336586" stop-color="#E3745B"/>
<stop offset="1" stop-color="#E3745B" stop-opacity="0"/>
</radialGradient>
<radialGradient id="paint28_radial_779_2019" cx="0" cy="0" r="1" gradientUnits="userSpaceOnUse" gradientTransform="translate(12.3723 5.69592) rotate(117.739) scale(2.6828 3.31299)">
<stop offset="0.17178" stop-color="#FFCB38"/>
<stop offset="1" stop-color="#DCA21C"/>
<stop offset="1" stop-color="#E5AE1B"/>
</radialGradient>
<linearGradient id="paint29_linear_779_2019" x1="2.40625" y1="1.375" x2="2.40625" y2="20.625" gradientUnits="userSpaceOnUse">
<stop stop-color="#D38E57"/>
<stop offset="0.272321" stop-color="#EFA570"/>
<stop offset="0.79771" stop-color="#EFA570"/>
<stop offset="1" stop-color="#D38E57"/>
</linearGradient>
<linearGradient id="paint30_linear_779_2019" x1="2.81249" y1="19.3225" x2="2.65887" y2="19.1555" gradientUnits="userSpaceOnUse">
<stop stop-color="#CB7734"/>
<stop offset="1" stop-color="#CB7734" stop-opacity="0"/>
</linearGradient>
<linearGradient id="paint31_linear_779_2019" x1="19.5938" y1="1.375" x2="19.5938" y2="20.625" gradientUnits="userSpaceOnUse">
<stop stop-color="#CA7C50"/>
<stop offset="1" stop-color="#E0966B"/>
</linearGradient>
<linearGradient id="paint32_linear_779_2019" x1="19.3574" y1="2.57813" x2="19.4514" y2="2.6748" gradientUnits="userSpaceOnUse">
<stop stop-color="#C2712E"/>
<stop offset="1" stop-color="#C2712E" stop-opacity="0"/>
</linearGradient>
<linearGradient id="paint33_linear_779_2019" x1="7.26765" y1="19.937" x2="21.7486" y2="19.937" gradientUnits="userSpaceOnUse">
<stop stop-color="#E69F70"/>
<stop offset="1" stop-color="#D3895C"/>
</linearGradient>
<linearGradient id="paint34_linear_779_2019" x1="11" y1="21.0117" x2="11" y2="20.0664" gradientUnits="userSpaceOnUse">
<stop stop-color="#D47F6E"/>
<stop offset="1" stop-color="#D47F6E" stop-opacity="0"/>
</linearGradient>
<linearGradient id="paint35_linear_779_2019" x1="19.1595" y1="19.0811" x2="19.0027" y2="19.2379" gradientUnits="userSpaceOnUse">
<stop stop-color="#C67331"/>
<stop offset="1" stop-color="#C67331" stop-opacity="0"/>
</linearGradient>
<linearGradient id="paint36_linear_779_2019" x1="18.8169" y1="3.00564" x2="2.4791" y2="3.00564" gradientUnits="userSpaceOnUse">
<stop stop-color="#D99569"/>
<stop offset="1" stop-color="#D28459"/>
</linearGradient>
<linearGradient id="paint37_linear_779_2019" x1="11" y1="3.4375" x2="11" y2="3.21191" gradientUnits="userSpaceOnUse">
<stop stop-color="#CC8159"/>
<stop offset="1" stop-color="#CC8159" stop-opacity="0"/>
</linearGradient>
<linearGradient id="paint38_linear_779_2019" x1="2.68893" y1="2.84279" x2="3.06339" y2="2.49713" gradientUnits="userSpaceOnUse">
<stop stop-color="#C77731"/>
<stop offset="1" stop-color="#C77731" stop-opacity="0"/>
</linearGradient>
</defs>
</svg>
