<svg width="18" height="20" viewBox="0 0 18 20" fill="none" xmlns="http://www.w3.org/2000/svg">
<path d="M5.12946 8.70017C4.09756 9.75695 3.52361 11.1755 3.53133 12.6502C3.53133 14.143 4.09748 15.543 5.12946 16.6002C5.62982 17.1178 6.22982 17.5294 6.89354 17.8105C7.55726 18.0915 8.27106 18.2362 8.9922 18.2359C10.4542 18.2359 11.823 17.6573 12.8549 16.6002C14.9834 14.4216 14.9834 10.8787 12.8549 8.70017C12.3551 8.18192 11.7552 7.76984 11.0913 7.48873C10.4275 7.20762 9.71346 7.0633 8.9922 7.06446C7.59473 7.06446 6.1901 7.60732 5.12946 8.70017ZM10.7552 10.3316L10.0041 11.6245C10.3458 11.8142 10.6305 12.0912 10.829 12.427C11.0275 12.7629 11.1327 13.1454 11.1335 13.5352C11.1332 14.1129 10.9028 14.6669 10.493 15.0755C10.0832 15.4841 9.52742 15.7139 8.94777 15.7145C8.49774 15.7128 8.05911 15.5732 7.69142 15.3146C7.32373 15.0559 7.04478 14.6908 6.89242 14.2687C6.86134 14.183 6.84763 14.0919 6.8521 14.0008C6.85656 13.9097 6.87911 13.8203 6.91843 13.738C6.95775 13.6556 7.01307 13.5818 7.08118 13.5209C7.14929 13.46 7.22884 13.4131 7.31524 13.383C7.48918 13.3222 7.68018 13.3324 7.84663 13.4114C8.01307 13.4903 8.14148 13.6316 8.20389 13.8045C8.25842 13.9576 8.35924 14.0901 8.49246 14.1837C8.62568 14.2773 8.78475 14.3275 8.94777 14.3273C9.38492 14.3273 9.74181 13.9709 9.74181 13.5352C9.74181 13.0995 9.38492 12.7437 8.94777 12.7437C8.76207 12.7437 8.58398 12.6702 8.45267 12.5393C8.32137 12.4085 8.2476 12.231 8.2476 12.0459C8.24829 11.8898 8.30239 11.7386 8.40096 11.6173L8.93988 10.6809H7.93442C7.7527 10.6751 7.58036 10.5991 7.45387 10.4689C7.32738 10.3387 7.25665 10.1646 7.25665 9.98339C7.25665 9.80217 7.32738 9.62806 7.45387 9.49789C7.58036 9.36771 7.7527 9.29169 7.93442 9.28589H10.1503C10.273 9.28561 10.3936 9.31771 10.4999 9.37893C10.6061 9.44016 10.6942 9.52832 10.7552 9.63446C10.8163 9.74053 10.8484 9.86071 10.8484 9.98303C10.8484 10.1053 10.8163 10.2255 10.7552 10.3316Z" fill="#E0B07A"/>
<path d="M8.99841 3.54071L7.24262 0.664286C6.99895 0.25 6.5618 0 6.08164 0H1.35892C0.319776 0 -0.332375 1.11429 0.176446 2.01429C1.12216 3.68194 2.45693 5.09806 4.06786 6.14286C4.32155 6.33929 4.60319 6.49357 4.90204 6.60286C3.02656 7.92857 1.79751 10.1429 1.79751 12.65C1.79751 16.7093 5.01885 20 8.99267 20C12.9665 20 16.1878 16.7093 16.1878 12.65C16.1878 10.145 14.9617 7.93357 13.089 6.60643C13.3932 6.49519 13.6787 6.33891 13.9361 6.14286C15.5486 5.1 16.8816 3.68571 17.8275 2.01429C18.3292 1.11429 17.677 0 16.6379 0H11.9152C11.435 0 10.9979 0.25 10.7542 0.664286L8.99841 3.54071ZM8.99267 5.3C8.91528 5.3 8.83812 5.30119 8.7612 5.30357L11.3698 1.03071L11.3727 1.02571C11.4275 0.930738 11.5066 0.851907 11.6019 0.797213C11.6971 0.74252 11.8052 0.713911 11.9152 0.714286H16.6379C16.7497 0.7146 16.8595 0.743879 16.9565 0.79925C17.0536 0.854621 17.1345 0.934182 17.1914 1.03013C17.2483 1.12607 17.2791 1.23511 17.281 1.34653C17.2828 1.45796 17.2556 1.56795 17.2019 1.66571C16.3153 3.23395 15.0608 4.56476 13.5456 5.54429L13.5226 5.55857L13.5004 5.57571C13.126 5.86252 12.6762 6.03474 12.2054 6.07143C11.2113 5.56325 10.1099 5.29879 8.99267 5.3ZM4.52795 17.2214C3.33077 15.9998 2.66402 14.3577 2.67182 12.65C2.67182 10.9214 3.33114 9.3 4.52795 8.07857C5.10864 7.48043 5.8041 7.0048 6.57295 6.67997C7.3418 6.35514 8.16835 6.18775 9.00342 6.18775C9.8385 6.18775 10.665 6.35514 11.4339 6.67997C12.2028 7.0048 12.8982 7.48043 13.4789 8.07857C15.9442 10.6 15.9442 14.7 13.4789 17.2214C12.2749 18.4429 10.684 19.1143 8.99984 19.1143C7.30855 19.1143 5.71758 18.4429 4.52795 17.2214Z" fill="#E0B07A"/>
</svg>
