<svg width="18" height="20" viewBox="0 0 18 20" fill="none" xmlns="http://www.w3.org/2000/svg">
<path d="M5.12946 8.70066C5.62982 8.18306 6.22982 7.77141 6.89354 7.49036C7.55726 7.2093 8.27106 7.06461 8.9922 7.06494C10.3968 7.06494 11.7943 7.6078 12.8549 8.70066C14.9834 10.8792 14.9834 14.4221 12.8549 16.6007C12.3551 17.1189 11.7552 17.531 11.0913 17.8121C10.4275 18.0932 9.71347 18.2375 8.9922 18.2364C7.5374 18.2364 6.16143 17.6578 5.12946 16.6007C4.09756 15.5439 3.52361 14.1253 3.53133 12.6507C3.53133 11.1578 4.09748 9.7578 5.12946 8.70066ZM8.33718 9.31566C8.15201 9.31591 7.97412 9.3876 7.8408 9.51569C7.70748 9.64379 7.62909 9.81835 7.62205 10.0028C7.615 10.1872 7.67986 10.3672 7.80302 10.505C7.92619 10.6428 8.0981 10.7278 8.28272 10.7421V15.0007C8.28272 15.1901 8.35822 15.3718 8.49262 15.5057C8.62702 15.6397 8.8093 15.7149 8.99937 15.7149C9.18943 15.7149 9.37172 15.6397 9.50611 15.5057C9.64051 15.3718 9.71602 15.1901 9.71602 15.0007V10.0299C9.71602 9.8405 9.64051 9.65882 9.50611 9.52486C9.37172 9.39091 9.18943 9.31566 8.99937 9.31566H8.33718Z" fill="#E6C96E"/>
<path d="M7.24262 0.664286L8.99841 3.54071L10.7542 0.664286C10.9979 0.25 11.435 0 11.9152 0H16.6379C17.677 0 18.3292 1.11429 17.8275 2.01429C16.8841 3.68363 15.5489 5.10024 13.9361 6.14286C13.6791 6.33991 13.3932 6.49627 13.0883 6.60643C14.9617 7.93357 16.1878 10.145 16.1878 12.65C16.1878 16.7093 12.9665 20 8.99267 20C5.01885 20 1.79751 16.7093 1.79751 12.65C1.79751 10.1429 3.02656 7.92857 4.90204 6.60286C4.60172 6.49358 4.32029 6.33839 4.06786 6.14286C2.45693 5.09806 1.12216 3.68194 0.176446 2.01429C-0.332375 1.11429 0.319776 0 1.35892 0H6.08164C6.5618 0 6.99895 0.25 7.24262 0.664286ZM8.7612 5.30357C8.83764 5.30119 8.9148 5.3 8.99267 5.3C10.1099 5.29879 11.2113 5.56325 12.2054 6.07143C12.6762 6.03474 13.126 5.86252 13.5004 5.57571L13.5219 5.55857L13.5463 5.54429C15.0612 4.56467 16.3155 3.23387 17.2019 1.66571C17.2556 1.56795 17.2828 1.45796 17.281 1.34653C17.2791 1.23511 17.2483 1.12607 17.1914 1.03013C17.1345 0.934182 17.0536 0.854621 16.9565 0.79925C16.8595 0.743879 16.7497 0.7146 16.6379 0.714286H11.9152C11.8051 0.713784 11.6969 0.742334 11.6015 0.797033C11.506 0.851733 11.4269 0.930633 11.372 1.02571L11.3691 1.03071L8.7612 5.30357ZM4.52795 17.2214C5.10679 17.8211 5.80135 18.298 6.56985 18.6233C7.33835 18.9486 8.16491 19.1156 8.99984 19.1143C10.684 19.1143 12.2749 18.4429 13.4789 17.2214C15.9442 14.7 15.9442 10.6 13.4789 8.07857C12.8982 7.48043 12.2028 7.0048 11.4339 6.67997C10.665 6.35514 9.8385 6.18775 9.00342 6.18775C8.16835 6.18775 7.3418 6.35514 6.57295 6.67997C5.8041 7.0048 5.10864 7.48043 4.52795 8.07857C3.33077 9.3002 2.66402 10.9423 2.67182 12.65C2.67182 14.3786 3.33114 16 4.52795 17.2214Z" fill="#E6C96E"/>
</svg>
