<svg width="28" height="28" viewBox="0 0 28 28" fill="none" xmlns="http://www.w3.org/2000/svg">
<path d="M19.833 3.5C21.3801 3.5 22.8638 4.11458 23.9578 5.20854C25.0518 6.30251 25.6663 7.78624 25.6663 9.33333V18.6667C25.6663 20.2138 25.0518 21.6975 23.9578 22.7915C22.8638 23.8854 21.3801 24.5 19.833 24.5H3.49967C3.19026 24.5 2.89351 24.3771 2.67472 24.1583C2.45592 23.9395 2.33301 23.6428 2.33301 23.3333V9.33333C2.33301 7.78624 2.94759 6.30251 4.04155 5.20854C5.13551 4.11458 6.61925 3.5 8.16634 3.5H19.833ZM19.833 5.83333H8.16634C7.23808 5.83333 6.34785 6.20208 5.69147 6.85846C5.03509 7.51484 4.66634 8.40508 4.66634 9.33333V22.1667H19.833C20.7613 22.1667 21.6515 21.7979 22.3079 21.1415C22.9643 20.4852 23.333 19.5949 23.333 18.6667V9.33333C23.333 8.40508 22.9643 7.51484 22.3079 6.85846C21.6515 6.20208 20.7613 5.83333 19.833 5.83333ZM10.4997 11.6667C10.8091 11.6667 11.1058 11.7896 11.3246 12.0084C11.5434 12.2272 11.6663 12.5239 11.6663 12.8333V15.1667C11.6663 15.4761 11.5434 15.7728 11.3246 15.9916C11.1058 16.2104 10.8091 16.3333 10.4997 16.3333C10.1903 16.3333 9.89351 16.2104 9.67472 15.9916C9.45592 15.7728 9.33301 15.4761 9.33301 15.1667V12.8333C9.33301 12.5239 9.45592 12.2272 9.67472 12.0084C9.89351 11.7896 10.1903 11.6667 10.4997 11.6667ZM17.4997 11.6667C17.7854 11.6667 18.0612 11.7716 18.2748 11.9615C18.4883 12.1514 18.6247 12.413 18.6582 12.6968L18.6663 12.8333V15.1667C18.666 15.464 18.5522 15.75 18.348 15.9663C18.1439 16.1825 17.8649 16.3126 17.568 16.33C17.2712 16.3475 16.9789 16.2509 16.7509 16.06C16.5228 15.8692 16.3763 15.5984 16.3412 15.3032L16.333 15.1667V12.8333C16.333 12.5239 16.4559 12.2272 16.6747 12.0084C16.8935 11.7896 17.1903 11.6667 17.4997 11.6667Z" fill="#A1A4AA"/>
</svg>
