<svg width="18" height="20" viewBox="0 0 18 20" fill="none" xmlns="http://www.w3.org/2000/svg">
<path d="M5.12946 8.70017C5.62982 8.18257 6.22982 7.77093 6.89354 7.48987C7.55726 7.20881 8.27106 7.06412 8.9922 7.06445C10.3968 7.06445 11.7943 7.60731 12.8549 8.70017C14.9834 10.8787 14.9834 14.4216 12.8549 16.6002C12.3551 17.1184 11.7552 17.5305 11.0913 17.8116C10.4275 18.0927 9.71346 18.237 8.9922 18.2359C7.5374 18.2359 6.16143 17.6573 5.12946 16.6002C4.09756 15.5434 3.52361 14.1248 3.53133 12.6502C3.53133 11.1573 4.09748 9.75731 5.12946 8.70017ZM7.47147 15.6787H10.3166C10.7179 15.6787 11.0332 15.3502 11.0332 14.9502C11.0332 14.5502 10.7107 14.2287 10.3094 14.2287H8.99077L10.3882 12.5145C10.8612 11.9359 10.9616 11.1573 10.6534 10.4716C10.5078 10.1468 10.2747 9.86861 9.97983 9.66809C9.68501 9.46757 9.34013 9.35256 8.9836 9.33588H8.89044C8.19528 9.33588 7.54313 9.6716 7.14181 10.2359C6.91248 10.5645 6.98415 11.0145 7.31381 11.243C7.64346 11.4716 8.09495 11.393 8.32428 11.0716C8.46044 10.8859 8.66827 10.7787 8.8976 10.7787H8.93343C9.19859 10.7859 9.31326 10.9787 9.34909 11.0645C9.37776 11.1359 9.46376 11.3787 9.27743 11.6073L6.91248 14.5002C6.73332 14.7145 6.69749 15.0145 6.81932 15.2645C6.87689 15.3884 6.96892 15.4934 7.08451 15.5668C7.2001 15.6402 7.3344 15.6791 7.47147 15.6787Z" fill="#D6DAE1"/>
<path d="M8.99841 3.54071L7.24262 0.664286C6.99895 0.25 6.5618 0 6.08164 0H1.35892C0.319776 0 -0.332375 1.11429 0.176446 2.01429C1.12216 3.68194 2.45693 5.09806 4.06786 6.14286C4.32155 6.33929 4.60319 6.49357 4.90204 6.60286C3.02656 7.92857 1.79751 10.1429 1.79751 12.65C1.79751 16.7093 5.01885 20 8.99267 20C12.9665 20 16.1878 16.7093 16.1878 12.65C16.1878 10.145 14.9617 7.93357 13.089 6.60643C13.3932 6.49519 13.6787 6.33891 13.9361 6.14286C15.5486 5.1 16.8816 3.68571 17.8275 2.01429C18.3292 1.11429 17.677 0 16.6379 0H11.9152C11.435 0 10.9979 0.25 10.7542 0.664286L8.99841 3.54071ZM8.99267 5.3C8.91528 5.3 8.83812 5.30119 8.7612 5.30357L11.3698 1.03071L11.3727 1.02571C11.4275 0.930738 11.5066 0.851907 11.6019 0.797213C11.6971 0.74252 11.8052 0.713911 11.9152 0.714286H16.6379C16.7497 0.7146 16.8595 0.743879 16.9565 0.79925C17.0536 0.854621 17.1345 0.934182 17.1914 1.03013C17.2483 1.12607 17.2791 1.23511 17.281 1.34653C17.2828 1.45796 17.2556 1.56795 17.2019 1.66571C16.3153 3.23395 15.0608 4.56476 13.5456 5.54429L13.5226 5.55857L13.5004 5.57571C13.126 5.86252 12.6762 6.03474 12.2054 6.07143C11.2113 5.56325 10.1099 5.29879 8.99267 5.3ZM4.52795 17.2214C3.33077 15.9998 2.66402 14.3577 2.67182 12.65C2.67182 10.9214 3.33114 9.3 4.52795 8.07857C5.10864 7.48043 5.8041 7.0048 6.57295 6.67997C7.3418 6.35514 8.16835 6.18775 9.00342 6.18775C9.8385 6.18775 10.665 6.35514 11.4339 6.67997C12.2028 7.0048 12.8982 7.48043 13.4789 8.07857C15.9442 10.6 15.9442 14.7 13.4789 17.2214C12.2749 18.4429 10.684 19.1143 8.99984 19.1143C7.30855 19.1143 5.71758 18.4429 4.52795 17.2214Z" fill="#D6DAE1"/>
</svg>
